<?xml version="1.0" encoding="iso-8859-1"?>
<!-- Generator: Adobe Illustrator 19.0.0, SVG Export Plug-In . SVG Version: 6.00 Build 0)  -->
<svg version="1.1" id="Capa_1" xmlns="http://www.w3.org/2000/svg" xmlns:xlink="http://www.w3.org/1999/xlink" x="0px" y="0px"
	 viewBox="0 0 421.321 421.321" style="enable-background:new 0 0 421.321 421.321;" xml:space="preserve">
<g>
	<g fill="#2386C7">
		<path d="M250.693,53.657c-4.356-5.107-8.632-10.686-12.974-16.915c3.587-1.598,6.097-5.191,6.097-9.365V14.325
			C243.816,6.426,237.39,0,229.491,0H191.83c-7.899,0-14.325,6.426-14.325,14.325v13.052c0,4.174,2.51,7.766,6.097,9.365
			c-4.342,6.23-8.618,11.808-12.973,16.915c-19.632,23.019-30.444,52.359-30.444,82.615v216.243c0,19.574,5.81,38.482,16.801,54.679
			c6.003,8.846,15.969,14.127,26.658,14.127h0.742c7.068,0,13.067-4.641,15.124-11.034c2.876,2.304,6.509,3.668,10.376,3.668h2.512
			c3.542,0,6.884-1.12,9.63-3.073c2.231,6.08,8.062,10.438,14.906,10.438h0.743c10.689,0,20.655-5.281,26.658-14.127
			c10.991-16.197,16.801-35.104,16.801-54.678V136.272C281.136,106.016,270.325,76.676,250.693,53.657z M150.647,112.201
			c4.539,0.021,8.886,1.715,12.245,4.78c4.847,4.431,11.141,6.871,17.72,6.871s12.872-2.44,17.719-6.869
			c3.383-3.086,7.763-4.786,12.333-4.786c4.571,0,8.948,1.699,12.323,4.784c4.849,4.431,11.142,6.871,17.721,6.871
			c6.575,0,12.87-2.439,17.729-6.871c3.353-3.066,7.697-4.759,12.238-4.78c1.159,5.62,1.913,11.336,2.251,17.107
			c-0.719-0.06-1.441-0.097-2.166-0.097c-6.58,0-12.874,2.44-17.719,6.869c-3.377,3.081-7.757,4.778-12.333,4.778
			c-4.577,0-8.954-1.696-12.324-4.776c-4.847-4.431-11.141-6.871-17.72-6.871c-6.575,0-12.87,2.439-17.728,6.871
			c-3.37,3.08-7.747,4.776-12.324,4.776c-4.577,0-8.953-1.696-12.325-4.779c-4.855-4.429-11.15-6.868-17.726-6.868
			c-0.724,0-1.446,0.038-2.165,0.097C148.734,123.537,149.488,117.821,150.647,112.201z M148.185,309.875
			c0.786-0.103,1.579-0.163,2.376-0.163c4.57,0,8.95,1.7,12.33,4.784c4.848,4.431,11.141,6.872,17.721,6.872
			c6.579,0,12.873-2.44,17.719-6.869c3.383-3.086,7.763-4.786,12.333-4.786c4.571,0,8.948,1.699,12.323,4.784
			c4.848,4.431,11.142,6.871,17.721,6.871c6.576,0,12.871-2.439,17.729-6.872c3.374-3.085,7.751-4.784,12.323-4.784
			c0.797,0,1.59,0.06,2.377,0.163v16.971c-0.789-0.072-1.581-0.12-2.377-0.12c-6.58,0-12.874,2.44-17.719,6.869
			c-3.377,3.081-7.757,4.778-12.333,4.778c-4.577,0-8.954-1.696-12.323-4.776c-4.848-4.431-11.141-6.872-17.721-6.872
			c-6.576,0-12.871,2.439-17.728,6.871c-3.37,3.08-7.747,4.776-12.324,4.776c-4.577,0-8.953-1.696-12.325-4.778
			c-4.854-4.43-11.149-6.869-17.726-6.869c-0.795,0-1.587,0.049-2.376,0.12C148.185,326.845,148.185,309.875,148.185,309.875z
			 M270.759,301.712c-6.575,0-12.868,2.443-17.719,6.877c-3.377,3.081-7.757,4.778-12.333,4.778c-4.577,0-8.954-1.696-12.323-4.776
			c-4.854-4.437-11.146-6.879-17.721-6.879c-6.57,0-12.865,2.442-17.728,6.879c-3.37,3.08-7.747,4.776-12.324,4.776
			c-4.577,0-8.953-1.696-12.325-4.778c-4.86-4.435-11.155-6.877-17.726-6.877c-0.795,0-1.587,0.049-2.376,0.12V284.87
			c0.786-0.103,1.579-0.163,2.376-0.163c4.57,0,8.95,1.7,12.33,4.784c4.848,4.431,11.141,6.872,17.721,6.872
			c6.579,0,12.873-2.44,17.719-6.869c3.383-3.086,7.763-4.786,12.333-4.786c4.571,0,8.948,1.699,12.323,4.784
			c4.848,4.431,11.142,6.871,17.721,6.871c6.576,0,12.871-2.439,17.729-6.872c3.374-3.085,7.751-4.784,12.323-4.784
			c0.797,0,1.59,0.06,2.377,0.163v16.963C272.347,301.761,271.555,301.712,270.759,301.712z M270.759,276.707
			c-6.575,0-12.868,2.443-17.719,6.877c-3.377,3.081-7.757,4.778-12.333,4.778c-4.577,0-8.954-1.696-12.323-4.776
			c-4.854-4.437-11.146-6.879-17.721-6.879c-6.57,0-12.865,2.442-17.728,6.879c-3.37,3.08-7.747,4.776-12.324,4.776
			c-4.577,0-8.953-1.696-12.325-4.778c-4.86-4.435-11.155-6.877-17.726-6.877c-0.795,0-1.587,0.049-2.376,0.12v-16.963
			c0.786-0.103,1.579-0.163,2.376-0.163c4.569,0,8.95,1.698,12.33,4.776c4.854,4.437,11.146,6.879,17.721,6.879
			c6.575,0,12.867-2.443,17.716-6.874c3.386-3.083,7.767-4.781,12.336-4.781c4.57,0,8.947,1.697,12.323,4.776
			c4.854,4.436,11.146,6.879,17.721,6.879c6.57,0,12.865-2.442,17.726-6.876c3.378-3.082,7.755-4.779,12.326-4.779
			c0.797,0,1.59,0.06,2.377,0.163v16.963C272.347,276.756,271.555,276.707,270.759,276.707z M270.759,251.702
			c-6.57,0-12.863,2.439-17.719,6.869c-3.383,3.086-7.763,4.786-12.333,4.786c-4.571,0-8.948-1.699-12.326-4.787
			c-4.855-4.429-11.147-6.869-17.718-6.869c-6.566,0-12.86,2.438-17.728,6.871c-3.376,3.085-7.753,4.784-12.324,4.784
			s-8.948-1.699-12.328-4.789c-4.862-4.428-11.156-6.866-17.723-6.866c-0.795,0-1.587,0.049-2.376,0.12v-16.963
			c0.786-0.103,1.579-0.163,2.376-0.163c4.569,0,8.95,1.698,12.333,4.779c4.855,4.429,11.147,6.869,17.718,6.869
			c6.569,0,12.862-2.439,17.716-6.866c3.386-3.083,7.767-4.781,12.336-4.781c4.57,0,8.947,1.697,12.326,4.779
			c4.855,4.429,11.148,6.868,17.718,6.868c6.566,0,12.86-2.438,17.726-6.869c3.378-3.082,7.755-4.779,12.326-4.779
			c0.797,0,1.59,0.06,2.377,0.163v16.963C272.347,251.75,271.555,251.702,270.759,251.702z M270.759,226.696
			c-6.57,0-12.863,2.439-17.716,6.866c-3.386,3.083-7.767,4.781-12.336,4.781c-4.57,0-8.948-1.697-12.326-4.779
			c-4.855-4.429-11.147-6.869-17.718-6.869c-6.566,0-12.86,2.438-17.725,6.868c-3.379,3.082-7.757,4.779-12.327,4.779
			c-4.57,0-8.947-1.697-12.328-4.781c-4.862-4.428-11.156-6.866-17.723-6.866c-0.795,0-1.587,0.049-2.376,0.12v-89.444
			c0.786-0.103,1.579-0.163,2.376-0.163c4.576,0,8.956,1.697,12.33,4.775c4.848,4.431,11.141,6.872,17.721,6.872
			c6.579,0,12.873-2.44,17.719-6.869c3.377-3.082,7.757-4.778,12.333-4.778c4.577,0,8.953,1.696,12.323,4.776
			c4.848,4.431,11.142,6.871,17.721,6.871c6.576,0,12.871-2.439,17.728-6.871c3.37-3.08,7.746-4.776,12.324-4.776
			c0.797,0,1.59,0.06,2.377,0.163v89.444C272.347,226.745,271.555,226.696,270.759,226.696z M185.504,14.325
			c0-3.488,2.838-6.325,6.325-6.325h37.661c3.487,0,6.325,2.837,6.325,6.325v13.052c0,1.242-1.01,2.252-2.252,2.252h-45.807
			c-1.242,0-2.252-1.01-2.252-2.252V14.325z M176.714,58.849c5.374-6.301,10.615-13.258,15.983-21.219h35.926
			c5.366,7.96,10.608,14.917,15.982,21.219c11.334,13.29,19.526,28.829,24.149,45.431c-5.841,0.444-11.36,2.813-15.715,6.794
			c-3.377,3.082-7.757,4.778-12.333,4.778c-4.577,0-8.954-1.696-12.323-4.775c-4.854-4.437-11.146-6.879-17.721-6.879
			c-6.57,0-12.865,2.442-17.728,6.879c-3.37,3.08-7.747,4.776-12.324,4.776s-8.953-1.696-12.325-4.778
			c-4.365-3.982-9.858-6.355-15.72-6.796C157.19,87.677,165.381,72.138,176.714,58.849z M212.398,405.956h-2.512
			c-3.516,0-6.66-2.171-7.963-5.331c1.444-1.871,3.701-3.083,6.242-3.083h4.989c2.9,0,5.433,1.577,6.804,3.914
			C218.476,404.194,215.598,405.956,212.398,405.956z M257.715,402.703c-4.512,6.649-12.003,10.619-20.038,10.619h-0.743
			c-4.351,0-7.89-3.539-7.89-7.89c0-8.762-7.128-15.89-15.89-15.89h-4.989c-8.762,0-15.89,7.128-15.89,15.89
			c0,4.351-3.539,7.89-7.89,7.89h-0.742c-8.035,0-15.526-3.97-20.039-10.619c-10.087-14.867-15.419-32.222-15.419-50.188v-17.627
			c0.786-0.103,1.579-0.163,2.376-0.163c4.576,0,8.956,1.697,12.33,4.776c4.848,4.431,11.141,6.872,17.721,6.872
			c6.579,0,12.873-2.44,17.719-6.869c3.377-3.081,7.757-4.778,12.333-4.778c4.577,0,8.953,1.696,12.323,4.776
			c4.848,4.431,11.142,6.871,17.721,6.871c6.576,0,12.871-2.439,17.729-6.872c3.369-3.08,7.745-4.776,12.323-4.776
			c0.797,0,1.59,0.06,2.377,0.163v17.628C273.136,370.482,267.803,387.837,257.715,402.703z"/>
		<path d="M251.58,99.064c0.626,1.563,2.127,2.514,3.714,2.514c0.495,0,0.999-0.092,1.486-0.288c2.051-0.822,3.047-3.15,2.226-5.201
			c-4.46-11.134-10.464-21.572-17.846-31.024c-1.36-1.741-3.874-2.05-5.614-0.69c-1.741,1.36-2.051,3.874-0.69,5.614
			C241.773,78.848,247.4,88.63,251.58,99.064z"/>
		<path d="M264.136,153.785c-2.209,0-4,1.791-4,4v55.537c0,2.209,1.791,4,4,4c2.209,0,4-1.791,4-4v-55.537
			C268.136,155.576,266.345,153.785,264.136,153.785z"/>
		<path d="M264.388,365.377c-2.163-0.415-4.265,1.007-4.68,3.178c-1.797,9.4-6.053,18.767-11.678,25.698
			c-1.393,1.715-1.131,4.234,0.585,5.626c0.741,0.602,1.633,0.894,2.519,0.894c1.163,0,2.317-0.505,3.107-1.479
			c6.432-7.924,11.288-18.581,13.324-29.237C267.981,367.887,266.558,365.792,264.388,365.377z"/>
	</g>
</g>
<g>
</g>
<g>
</g>
<g>
</g>
<g>
</g>
<g>
</g>
<g>
</g>
<g>
</g>
<g>
</g>
<g>
</g>
<g>
</g>
<g>
</g>
<g>
</g>
<g>
</g>
<g>
</g>
<g>
</g>
</svg>
