<?xml version="1.0" encoding="utf-8"?>
<!-- Generator: Adobe Illustrator 24.0.0, SVG Export Plug-In . SVG Version: 6.00 Build 0)  -->
<svg version="1.1" id="Capa_1" xmlns="http://www.w3.org/2000/svg" xmlns:xlink="http://www.w3.org/1999/xlink" x="0px" y="0px"
	 viewBox="0 0 421.3 421.3" style="enable-background:new 0 0 421.3 421.3;" xml:space="preserve">
<style type="text/css">
	.st0{fill:#FFFFFF;}
</style>
<g>
	<g>
		<path class="st0" d="M250.7,53.7c-4.4-5.1-8.6-10.7-13-16.9c3.6-1.6,6.1-5.2,6.1-9.4V14.3c0-7.9-6.4-14.3-14.3-14.3h-37.7
			c-7.9,0-14.3,6.4-14.3,14.3v13.1c0,4.2,2.5,7.8,6.1,9.4c-4.3,6.2-8.6,11.8-13,16.9c-19.6,23-30.4,52.4-30.4,82.6v216.2
			c0,19.6,5.8,38.5,16.8,54.7c6,8.8,16,14.1,26.7,14.1h0.7c7.1,0,13.1-4.6,15.1-11c2.9,2.3,6.5,3.7,10.4,3.7h2.5
			c3.5,0,6.9-1.1,9.6-3.1c2.2,6.1,8.1,10.4,14.9,10.4h0.7c10.7,0,20.7-5.3,26.7-14.1c11-16.2,16.8-35.1,16.8-54.7V136.3
			C281.1,106,270.3,76.7,250.7,53.7z M150.6,112.2c4.5,0,8.9,1.7,12.2,4.8c4.8,4.4,11.1,6.9,17.7,6.9s12.9-2.4,17.7-6.9
			c3.4-3.1,7.8-4.8,12.3-4.8c4.6,0,8.9,1.7,12.3,4.8c4.8,4.4,11.1,6.9,17.7,6.9c6.6,0,12.9-2.4,17.7-6.9c3.4-3.1,7.7-4.8,12.2-4.8
			c1.2,5.6,1.9,11.3,2.3,17.1c-0.7-0.1-1.4-0.1-2.2-0.1c-6.6,0-12.9,2.4-17.7,6.9c-3.4,3.1-7.8,4.8-12.3,4.8c-4.6,0-9-1.7-12.3-4.8
			c-4.8-4.4-11.1-6.9-17.7-6.9c-6.6,0-12.9,2.4-17.7,6.9c-3.4,3.1-7.7,4.8-12.3,4.8c-4.6,0-9-1.7-12.3-4.8
			c-4.9-4.4-11.1-6.9-17.7-6.9c-0.7,0-1.4,0-2.2,0.1C148.7,123.5,149.5,117.8,150.6,112.2z M148.2,309.9c0.8-0.1,1.6-0.2,2.4-0.2
			c4.6,0,8.9,1.7,12.3,4.8c4.8,4.4,11.1,6.9,17.7,6.9c6.6,0,12.9-2.4,17.7-6.9c3.4-3.1,7.8-4.8,12.3-4.8c4.6,0,8.9,1.7,12.3,4.8
			c4.8,4.4,11.1,6.9,17.7,6.9c6.6,0,12.9-2.4,17.7-6.9c3.4-3.1,7.8-4.8,12.3-4.8c0.8,0,1.6,0.1,2.4,0.2v17c-0.8-0.1-1.6-0.1-2.4-0.1
			c-6.6,0-12.9,2.4-17.7,6.9c-3.4,3.1-7.8,4.8-12.3,4.8c-4.6,0-9-1.7-12.3-4.8c-4.8-4.4-11.1-6.9-17.7-6.9c-6.6,0-12.9,2.4-17.7,6.9
			c-3.4,3.1-7.7,4.8-12.3,4.8c-4.6,0-9-1.7-12.3-4.8c-4.9-4.4-11.1-6.9-17.7-6.9c-0.8,0-1.6,0-2.4,0.1V309.9z M270.8,301.7
			c-6.6,0-12.9,2.4-17.7,6.9c-3.4,3.1-7.8,4.8-12.3,4.8c-4.6,0-9-1.7-12.3-4.8c-4.9-4.4-11.1-6.9-17.7-6.9c-6.6,0-12.9,2.4-17.7,6.9
			c-3.4,3.1-7.7,4.8-12.3,4.8c-4.6,0-9-1.7-12.3-4.8c-4.9-4.4-11.2-6.9-17.7-6.9c-0.8,0-1.6,0-2.4,0.1v-17c0.8-0.1,1.6-0.2,2.4-0.2
			c4.6,0,8.9,1.7,12.3,4.8c4.8,4.4,11.1,6.9,17.7,6.9c6.6,0,12.9-2.4,17.7-6.9c3.4-3.1,7.8-4.8,12.3-4.8c4.6,0,8.9,1.7,12.3,4.8
			c4.8,4.4,11.1,6.9,17.7,6.9c6.6,0,12.9-2.4,17.7-6.9c3.4-3.1,7.8-4.8,12.3-4.8c0.8,0,1.6,0.1,2.4,0.2v17
			C272.3,301.8,271.6,301.7,270.8,301.7z M270.8,276.7c-6.6,0-12.9,2.4-17.7,6.9c-3.4,3.1-7.8,4.8-12.3,4.8c-4.6,0-9-1.7-12.3-4.8
			c-4.9-4.4-11.1-6.9-17.7-6.9c-6.6,0-12.9,2.4-17.7,6.9c-3.4,3.1-7.7,4.8-12.3,4.8c-4.6,0-9-1.7-12.3-4.8
			c-4.9-4.4-11.2-6.9-17.7-6.9c-0.8,0-1.6,0-2.4,0.1v-17c0.8-0.1,1.6-0.2,2.4-0.2c4.6,0,8.9,1.7,12.3,4.8c4.9,4.4,11.1,6.9,17.7,6.9
			s12.9-2.4,17.7-6.9c3.4-3.1,7.8-4.8,12.3-4.8c4.6,0,8.9,1.7,12.3,4.8c4.9,4.4,11.1,6.9,17.7,6.9c6.6,0,12.9-2.4,17.7-6.9
			c3.4-3.1,7.8-4.8,12.3-4.8c0.8,0,1.6,0.1,2.4,0.2v17C272.3,276.8,271.6,276.7,270.8,276.7z M270.8,251.7c-6.6,0-12.9,2.4-17.7,6.9
			c-3.4,3.1-7.8,4.8-12.3,4.8c-4.6,0-8.9-1.7-12.3-4.8c-4.9-4.4-11.1-6.9-17.7-6.9c-6.6,0-12.9,2.4-17.7,6.9
			c-3.4,3.1-7.8,4.8-12.3,4.8s-8.9-1.7-12.3-4.8c-4.9-4.4-11.2-6.9-17.7-6.9c-0.8,0-1.6,0-2.4,0.1v-17c0.8-0.1,1.6-0.2,2.4-0.2
			c4.6,0,8.9,1.7,12.3,4.8c4.9,4.4,11.1,6.9,17.7,6.9c6.6,0,12.9-2.4,17.7-6.9c3.4-3.1,7.8-4.8,12.3-4.8c4.6,0,8.9,1.7,12.3,4.8
			c4.9,4.4,11.1,6.9,17.7,6.9c6.6,0,12.9-2.4,17.7-6.9c3.4-3.1,7.8-4.8,12.3-4.8c0.8,0,1.6,0.1,2.4,0.2v17
			C272.3,251.8,271.6,251.7,270.8,251.7z M270.8,226.7c-6.6,0-12.9,2.4-17.7,6.9c-3.4,3.1-7.8,4.8-12.3,4.8c-4.6,0-8.9-1.7-12.3-4.8
			c-4.9-4.4-11.1-6.9-17.7-6.9c-6.6,0-12.9,2.4-17.7,6.9c-3.4,3.1-7.8,4.8-12.3,4.8c-4.6,0-8.9-1.7-12.3-4.8
			c-4.9-4.4-11.2-6.9-17.7-6.9c-0.8,0-1.6,0-2.4,0.1v-89.4c0.8-0.1,1.6-0.2,2.4-0.2c4.6,0,9,1.7,12.3,4.8c4.8,4.4,11.1,6.9,17.7,6.9
			c6.6,0,12.9-2.4,17.7-6.9c3.4-3.1,7.8-4.8,12.3-4.8c4.6,0,9,1.7,12.3,4.8c4.8,4.4,11.1,6.9,17.7,6.9c6.6,0,12.9-2.4,17.7-6.9
			c3.4-3.1,7.7-4.8,12.3-4.8c0.8,0,1.6,0.1,2.4,0.2v89.4C272.3,226.7,271.6,226.7,270.8,226.7z M185.5,14.3c0-3.5,2.8-6.3,6.3-6.3
			h37.7c3.5,0,6.3,2.8,6.3,6.3v13.1c0,1.2-1,2.3-2.3,2.3h-45.8c-1.2,0-2.3-1-2.3-2.3L185.5,14.3L185.5,14.3z M176.7,58.8
			c5.4-6.3,10.6-13.3,16-21.2h35.9c5.4,8,10.6,14.9,16,21.2c11.3,13.3,19.5,28.8,24.1,45.4c-5.8,0.4-11.4,2.8-15.7,6.8
			c-3.4,3.1-7.8,4.8-12.3,4.8c-4.6,0-9-1.7-12.3-4.8c-4.9-4.4-11.1-6.9-17.7-6.9c-6.6,0-12.9,2.4-17.7,6.9
			c-3.4,3.1-7.7,4.8-12.3,4.8s-9-1.7-12.3-4.8c-4.4-4-9.9-6.4-15.7-6.8C157.2,87.7,165.4,72.1,176.7,58.8z M212.4,406h-2.5
			c-3.5,0-6.7-2.2-8-5.3c1.4-1.9,3.7-3.1,6.2-3.1h5c2.9,0,5.4,1.6,6.8,3.9C218.5,404.2,215.6,406,212.4,406z M257.7,402.7
			c-4.5,6.6-12,10.6-20,10.6h-0.7c-4.4,0-7.9-3.5-7.9-7.9c0-8.8-7.1-15.9-15.9-15.9h-5c-8.8,0-15.9,7.1-15.9,15.9
			c0,4.4-3.5,7.9-7.9,7.9h-0.7c-8,0-15.5-4-20-10.6c-10.1-14.9-15.4-32.2-15.4-50.2v-17.6c0.8-0.1,1.6-0.2,2.4-0.2
			c4.6,0,9,1.7,12.3,4.8c4.8,4.4,11.1,6.9,17.7,6.9c6.6,0,12.9-2.4,17.7-6.9c3.4-3.1,7.8-4.8,12.3-4.8c4.6,0,9,1.7,12.3,4.8
			c4.8,4.4,11.1,6.9,17.7,6.9c6.6,0,12.9-2.4,17.7-6.9c3.4-3.1,7.7-4.8,12.3-4.8c0.8,0,1.6,0.1,2.4,0.2v17.6
			C273.1,370.5,267.8,387.8,257.7,402.7z"/>
		<path class="st0" d="M251.6,99.1c0.6,1.6,2.1,2.5,3.7,2.5c0.5,0,1-0.1,1.5-0.3c2.1-0.8,3-3.2,2.2-5.2c-4.5-11.1-10.5-21.6-17.8-31
			c-1.4-1.7-3.9-2-5.6-0.7c-1.7,1.4-2.1,3.9-0.7,5.6C241.8,78.8,247.4,88.6,251.6,99.1z"/>
		<path class="st0" d="M264.1,153.8c-2.2,0-4,1.8-4,4v55.5c0,2.2,1.8,4,4,4s4-1.8,4-4v-55.5C268.1,155.6,266.3,153.8,264.1,153.8z"
			/>
		<path class="st0" d="M264.4,365.4c-2.2-0.4-4.3,1-4.7,3.2c-1.8,9.4-6.1,18.8-11.7,25.7c-1.4,1.7-1.1,4.2,0.6,5.6
			c0.7,0.6,1.6,0.9,2.5,0.9c1.2,0,2.3-0.5,3.1-1.5c6.4-7.9,11.3-18.6,13.3-29.2C268,367.9,266.6,365.8,264.4,365.4z"/>
	</g>
</g>
</svg>
