<?xml version="1.0" encoding="utf-8"?>
<!-- Generator: Adobe Illustrator 24.0.0, SVG Export Plug-In . SVG Version: 6.00 Build 0)  -->
<svg version="1.1" id="Capa_1" xmlns="http://www.w3.org/2000/svg" xmlns:xlink="http://www.w3.org/1999/xlink" x="0px" y="0px"
	 viewBox="0 0 331.5 331.5" style="enable-background:new 0 0 331.5 331.5;" xml:space="preserve">
<style type="text/css">
	.st0{fill:#FFFFFF;}
</style>
<g>
	<path class="st0" d="M312,83.7L312,83.7C312,83.7,312,83.7,312,83.7c0-0.3,0-0.5,0-0.7c0-0.1,0-0.2,0-0.3c0-0.1,0-0.3-0.1-0.4
		c0-0.1-0.1-0.3-0.1-0.4c0-0.1,0-0.2-0.1-0.3c0-0.1-0.1-0.3-0.1-0.4c0-0.1-0.1-0.2-0.1-0.3c-0.1-0.1-0.1-0.3-0.2-0.4
		c0-0.1-0.1-0.2-0.1-0.3c-0.1-0.1-0.1-0.2-0.2-0.3c-0.1-0.1-0.1-0.2-0.2-0.3c-0.1-0.1-0.1-0.2-0.2-0.2c-0.1-0.1-0.2-0.2-0.3-0.3
		c-0.1-0.1-0.1-0.1-0.2-0.2c-0.1-0.1-0.2-0.2-0.3-0.3c-0.1-0.1-0.1-0.1-0.2-0.2c-0.1-0.1-0.2-0.2-0.3-0.3c-0.1-0.1-0.2-0.1-0.3-0.2
		c-0.1-0.1-0.2-0.1-0.3-0.2c-0.2-0.1-0.4-0.2-0.5-0.3c0,0,0,0-0.1,0l0,0c0,0,0,0,0,0L169.4,0.9c-2.2-1.2-5-1.2-7.2,0L23.4,77.1
		c0,0-0.1,0.1-0.1,0.1c0,0-0.1,0-0.2,0.1c-0.1,0.1-0.2,0.1-0.3,0.2c-0.1,0.1-0.3,0.2-0.4,0.3c-0.1,0.1-0.3,0.2-0.4,0.4
		c-0.1,0.1-0.2,0.2-0.3,0.3c-0.1,0.1-0.2,0.3-0.4,0.4c-0.1,0.1-0.2,0.2-0.3,0.3c-0.1,0.2-0.2,0.3-0.3,0.5c-0.1,0.1-0.2,0.2-0.2,0.3
		c-0.1,0.2-0.2,0.4-0.3,0.5c-0.1,0.1-0.1,0.2-0.2,0.3c-0.1,0.2-0.2,0.4-0.2,0.7c0,0.1-0.1,0.2-0.1,0.3c-0.1,0.3-0.1,0.6-0.2,1
		c0,0.1,0,0.2,0,0.2c0,0.2,0,0.5,0,0.7v127.1c0,4.1,3.4,7.5,7.5,7.5s7.5-3.4,7.5-7.5V96.1l27,14.1v40.5c0,4.1,3.4,7.5,7.5,7.5
		s7.5-3.4,7.5-7.5v-31l38.1,20.4v60.6l-42-22.5c-3.7-2-8.2-0.6-10.2,3.1c-2,3.7-0.6,8.2,3.1,10.2l53.1,28.4c1.1,0.6,2.3,0.9,3.5,0.9
		c1.3,0,2.7-0.4,3.9-1.1c2.3-1.4,3.6-3.8,3.6-6.4v-67.4l28.7,15v150.8L30.4,245.2c-3.7-1.9-8.2-0.5-10.1,3.2
		c-1.9,3.7-0.5,8.2,3.2,10.1l138.8,72.1c0.1,0,0.2,0.1,0.3,0.1c0.1,0.1,0.2,0.1,0.4,0.2c0.2,0.1,0.4,0.1,0.6,0.2
		c0.1,0,0.2,0.1,0.4,0.1c0.2,0.1,0.4,0.1,0.6,0.1c0.1,0,0.2,0,0.3,0.1c0.3,0,0.6,0.1,1,0.1l0,0l0,0c0.3,0,0.6,0,1-0.1
		c0.1,0,0.2,0,0.3-0.1c0.2,0,0.4-0.1,0.6-0.1c0.1,0,0.2-0.1,0.4-0.1c0.2-0.1,0.4-0.1,0.6-0.2c0.1,0,0.2-0.1,0.4-0.2
		c0.1,0,0.2-0.1,0.3-0.1L308,258.5c2.5-1.3,4-3.9,4-6.7L312,83.7C312,83.8,312,83.7,312,83.7z M86.8,106.3l51.8-27.2l34.6,18.1
		l-49,28.6L86.8,106.3z M173.3,311.7V160.9l99-51.8c3.7-1.9,5.1-6.5,3.2-10.1c-1.9-3.7-6.5-5.1-10.1-3.2l-99.1,51.8l-26.4-13.7
		l52.5-30.7c2.4-1.4,3.8-3.9,3.7-6.7c-0.1-2.7-1.6-5.2-4-6.5L142,64c-2.2-1.1-4.8-1.1-7,0L70.6,97.9L42.9,83.5l122.9-67.5L297,88.1
		v159.2L173.3,311.7z"/>
	<path class="st0" d="M271.6,226.9l-59.2,30.7c-3.7,1.9-5.1,6.4-3.2,10.1c1.3,2.6,4,4,6.7,4c1.2,0,2.3-0.3,3.4-0.8l59.2-30.7
		c3.7-1.9,5.1-6.4,3.2-10.1C279.8,226.4,275.3,225,271.6,226.9z"/>
	<path class="st0" d="M271.6,192.3l-59.2,30.7c-3.7,1.9-5.1,6.4-3.2,10.1c1.3,2.6,4,4,6.7,4c1.2,0,2.3-0.3,3.4-0.8l59.2-30.7
		c3.7-1.9,5.1-6.4,3.2-10.1C279.8,191.9,275.3,190.4,271.6,192.3z"/>
	<path class="st0" d="M271.6,157.8l-33.9,17.6c-3.7,1.9-5.1,6.4-3.2,10.1c1.3,2.6,4,4,6.7,4c1.2,0,2.3-0.3,3.4-0.8l33.9-17.6
		c3.7-1.9,5.1-6.4,3.2-10.1C279.8,157.3,275.3,155.9,271.6,157.8z"/>
</g>
</svg>
