<?xml version="1.0" encoding="iso-8859-1"?>
<!-- Generator: Adobe Illustrator 17.1.0, SVG Export Plug-In . SVG Version: 6.00 Build 0)  -->
<!DOCTYPE svg PUBLIC "-//W3C//DTD SVG 1.1//EN" "http://www.w3.org/Graphics/SVG/1.1/DTD/svg11.dtd">
<svg version="1.1" id="Capa_1" xmlns="http://www.w3.org/2000/svg" xmlns:xlink="http://www.w3.org/1999/xlink" x="0px" y="0px"
	 viewBox="0 0 331.513 331.513" style="enable-background:new 0 0 331.513 331.513;" xml:space="preserve">
<g fill="#2386C7">
	<path d="M312.045,83.712v-0.009c0-0.019-0.003-0.037-0.003-0.056c-0.002-0.225-0.012-0.449-0.034-0.672
		c-0.011-0.111-0.031-0.22-0.047-0.33c-0.018-0.128-0.034-0.257-0.059-0.384c-0.028-0.143-0.065-0.282-0.101-0.422
		c-0.024-0.093-0.044-0.186-0.071-0.278c-0.043-0.146-0.096-0.287-0.147-0.429c-0.031-0.086-0.06-0.173-0.094-0.258
		c-0.053-0.131-0.114-0.257-0.175-0.384c-0.045-0.095-0.087-0.19-0.136-0.283c-0.057-0.107-0.12-0.211-0.181-0.315
		c-0.064-0.108-0.126-0.217-0.196-0.322c-0.055-0.083-0.116-0.163-0.174-0.244c-0.085-0.118-0.17-0.237-0.262-0.35
		c-0.054-0.067-0.113-0.13-0.17-0.194c-0.103-0.118-0.205-0.236-0.316-0.348c-0.063-0.063-0.13-0.122-0.195-0.183
		c-0.11-0.103-0.218-0.207-0.335-0.304c-0.094-0.078-0.194-0.149-0.291-0.223c-0.094-0.071-0.185-0.145-0.284-0.212
		c-0.177-0.121-0.361-0.232-0.549-0.338c-0.024-0.014-0.046-0.03-0.07-0.043l-0.011-0.006c-0.015-0.008-0.03-0.016-0.045-0.024
		L169.367,0.926c-2.248-1.234-4.972-1.234-7.22,0L23.359,77.129c-0.046,0.025-0.086,0.058-0.132,0.085
		c-0.049,0.029-0.102,0.049-0.151,0.079c-0.109,0.066-0.206,0.146-0.31,0.217c-0.126,0.086-0.253,0.169-0.373,0.261
		c-0.144,0.111-0.277,0.231-0.412,0.351c-0.111,0.099-0.225,0.195-0.329,0.301c-0.129,0.13-0.246,0.269-0.365,0.408
		c-0.094,0.11-0.192,0.215-0.279,0.329c-0.114,0.15-0.214,0.308-0.316,0.466c-0.075,0.115-0.156,0.226-0.224,0.346
		c-0.099,0.173-0.182,0.355-0.267,0.535c-0.054,0.114-0.116,0.223-0.164,0.34c-0.09,0.219-0.161,0.446-0.23,0.674
		c-0.026,0.085-0.062,0.167-0.085,0.254c-0.084,0.317-0.148,0.64-0.191,0.969c-0.01,0.074-0.007,0.15-0.015,0.225
		c-0.024,0.244-0.048,0.488-0.048,0.736v127.053c0,4.142,3.358,7.5,7.5,7.5s7.5-3.358,7.5-7.5V96.092l27.029,14.143v40.521
		c0,4.142,3.358,7.5,7.5,7.5s7.5-3.358,7.5-7.5V119.73l38.059,20.397v60.555l-42.016-22.517c-3.65-1.956-8.197-0.583-10.153,3.067
		c-1.957,3.651-0.583,8.197,3.067,10.153l53.059,28.436c1.108,0.594,2.326,0.89,3.543,0.89c1.335,0,2.668-0.356,3.852-1.065
		c2.263-1.354,3.648-3.798,3.648-6.435v-67.364l28.701,15.018v150.798l-127.83-66.429c-3.675-1.909-8.203-0.478-10.114,3.197
		c-1.91,3.676-0.479,8.204,3.197,10.114l138.788,72.123c0.093,0.048,0.19,0.082,0.284,0.126c0.12,0.056,0.239,0.111,0.361,0.161
		c0.186,0.075,0.375,0.139,0.565,0.199c0.118,0.037,0.234,0.077,0.353,0.108c0.211,0.055,0.425,0.095,0.639,0.131
		c0.101,0.017,0.201,0.041,0.303,0.054c0.317,0.041,0.635,0.064,0.953,0.064h0h0c0.318,0,0.636-0.024,0.953-0.064
		c0.102-0.013,0.203-0.037,0.304-0.055c0.214-0.036,0.426-0.076,0.637-0.131c0.12-0.031,0.236-0.072,0.355-0.109
		c0.19-0.06,0.378-0.123,0.564-0.199c0.122-0.049,0.242-0.105,0.362-0.161c0.094-0.044,0.191-0.078,0.284-0.126l138.788-72.123
		c2.483-1.291,4.042-3.856,4.042-6.655V83.771C312.045,83.751,312.045,83.732,312.045,83.712z M86.767,106.326l51.76-27.238
		l34.557,18.064l-48.955,28.59L86.767,106.326z M173.257,311.663V160.865l98.977-51.791c3.67-1.92,5.088-6.452,3.168-10.122
		c-1.92-3.669-6.452-5.088-10.122-3.168l-99.057,51.832l-26.355-13.696l52.492-30.656c2.356-1.376,3.78-3.924,3.716-6.652
		c-0.064-2.729-1.605-5.207-4.023-6.471l-50.063-26.17c-2.184-1.141-4.788-1.138-6.967,0.009L70.56,97.904L42.884,83.521
		l122.873-67.465l131.288,72.086v159.193L173.257,311.663z"/>
	<path d="M271.603,226.861l-59.243,30.716c-3.677,1.907-5.113,6.433-3.206,10.11c1.334,2.574,3.953,4.049,6.665,4.049
		c1.163,0,2.342-0.271,3.446-0.843l59.243-30.716c3.677-1.907,5.113-6.433,3.206-10.11
		C279.807,226.391,275.281,224.955,271.603,226.861z"/>
	<path d="M271.603,192.335l-59.243,30.716c-3.677,1.907-5.113,6.433-3.206,10.11c1.334,2.574,3.953,4.049,6.665,4.049
		c1.163,0,2.342-0.271,3.446-0.843l59.243-30.716c3.677-1.907,5.113-6.433,3.206-10.11
		C279.807,191.864,275.281,190.429,271.603,192.335z"/>
	<path d="M271.603,157.809L237.7,175.387c-3.677,1.907-5.113,6.433-3.206,10.11c1.334,2.574,3.953,4.049,6.665,4.049
		c1.163,0,2.342-0.271,3.446-0.843l33.903-17.578c3.677-1.907,5.113-6.433,3.206-10.11
		C279.806,157.338,275.28,155.901,271.603,157.809z"/>
</g>
<g>
</g>
<g>
</g>
<g>
</g>
<g>
</g>
<g>
</g>
<g>
</g>
<g>
</g>
<g>
</g>
<g>
</g>
<g>
</g>
<g>
</g>
<g>
</g>
<g>
</g>
<g>
</g>
<g>
</g>
</svg>
