<?xml version="1.0" encoding="iso-8859-1"?>
<!-- Generator: Adobe Illustrator 19.0.0, SVG Export Plug-In . SVG Version: 6.00 Build 0)  -->
<svg version="1.1" id="Capa_1" xmlns="http://www.w3.org/2000/svg" xmlns:xlink="http://www.w3.org/1999/xlink" x="0px" y="0px"
	 viewBox="0 0 463 463" style="enable-background:new 0 0 463 463;" xml:space="preserve">
<g fill="#2386C7">
	<path d="M359.5,32C345.991,32,335,21.01,335,7.5c0-4.143-3.358-7.5-7.5-7.5h-192c-4.142,0-7.5,3.357-7.5,7.5
		c0,13.51-10.991,24.5-24.5,24.5c-4.142,0-7.5,3.357-7.5,7.5v384c0,4.143,3.358,7.5,7.5,7.5c13.509,0,24.5,10.99,24.5,24.5
		c0,4.143,3.358,7.5,7.5,7.5h192c4.142,0,7.5-3.357,7.5-7.5c0-13.51,10.991-24.5,24.5-24.5c4.142,0,7.5-3.357,7.5-7.5v-384
		C367,35.357,363.642,32,359.5,32z M320.714,448H142.286c-1.223-6.34-3.986-12.127-7.854-17H279.5c4.142,0,7.5-3.357,7.5-7.5
		s-3.358-7.5-7.5-7.5H111V47h168.5c4.142,0,7.5-3.357,7.5-7.5s-3.358-7.5-7.5-7.5H134.432c3.868-4.873,6.631-10.66,7.854-17h178.429
		c1.223,6.34,3.986,12.127,7.854,17H311.5c-4.142,0-7.5,3.357-7.5,7.5s3.358,7.5,7.5,7.5H352v369h-40.5c-4.142,0-7.5,3.357-7.5,7.5
		s3.358,7.5,7.5,7.5h17.068C324.701,435.873,321.937,441.66,320.714,448z"/>
	<path d="M335,231.5c0-57.07-46.43-103.5-103.5-103.5S128,174.43,128,231.5S174.43,335,231.5,335S335,288.57,335,231.5z M231.5,320
		c-48.799,0-88.5-39.701-88.5-88.5s39.701-88.5,88.5-88.5s88.5,39.701,88.5,88.5S280.299,320,231.5,320z"/>
	<path d="M266.197,186.196l-80,80c-2.929,2.93-2.929,7.678,0,10.607c1.464,1.464,3.384,2.196,5.303,2.196s3.839-0.732,5.303-2.196
		l80-80c2.929-2.93,2.929-7.678,0-10.607C273.875,183.269,269.125,183.269,266.197,186.196z"/>
	<path d="M191.5,231c1.919,0,3.839-0.732,5.303-2.196l32-32c2.929-2.93,2.929-7.678,0-10.607c-2.929-2.928-7.678-2.928-10.606,0
		l-32,32c-2.929,2.93-2.929,7.678,0,10.607C187.661,230.268,189.581,231,191.5,231z"/>
	<path d="M266.197,234.196l-32,32c-2.929,2.93-2.929,7.678,0,10.607c1.464,1.464,3.384,2.196,5.303,2.196s3.839-0.732,5.303-2.196
		l32-32c2.929-2.93,2.929-7.678,0-10.607C273.875,231.269,269.125,231.269,266.197,234.196z"/>
</g>
<g>
</g>
<g>
</g>
<g>
</g>
<g>
</g>
<g>
</g>
<g>
</g>
<g>
</g>
<g>
</g>
<g>
</g>
<g>
</g>
<g>
</g>
<g>
</g>
<g>
</g>
<g>
</g>
<g>
</g>
</svg>
