<?xml version="1.0" encoding="utf-8"?>
<!-- Generator: Adobe Illustrator 24.0.0, SVG Export Plug-In . SVG Version: 6.00 Build 0)  -->
<svg version="1.1" id="Capa_1" xmlns="http://www.w3.org/2000/svg" xmlns:xlink="http://www.w3.org/1999/xlink" x="0px" y="0px"
	 viewBox="0 0 463 463" style="enable-background:new 0 0 463 463;" xml:space="preserve">
<style type="text/css">
	.st0{fill:#FFFFFF;}
</style>
<g>
	<path class="st0" d="M359.5,32C346,32,335,21,335,7.5c0-4.1-3.4-7.5-7.5-7.5h-192c-4.1,0-7.5,3.4-7.5,7.5C128,21,117,32,103.5,32
		c-4.1,0-7.5,3.4-7.5,7.5v384c0,4.1,3.4,7.5,7.5,7.5c13.5,0,24.5,11,24.5,24.5c0,4.1,3.4,7.5,7.5,7.5h192c4.1,0,7.5-3.4,7.5-7.5
		c0-13.5,11-24.5,24.5-24.5c4.1,0,7.5-3.4,7.5-7.5v-384C367,35.4,363.6,32,359.5,32z M320.7,448H142.3c-1.2-6.3-4-12.1-7.9-17h145.1
		c4.1,0,7.5-3.4,7.5-7.5s-3.4-7.5-7.5-7.5H111V47h168.5c4.1,0,7.5-3.4,7.5-7.5s-3.4-7.5-7.5-7.5H134.4c3.9-4.9,6.6-10.7,7.9-17
		h178.4c1.2,6.3,4,12.1,7.9,17h-17.1c-4.1,0-7.5,3.4-7.5,7.5s3.4,7.5,7.5,7.5H352v369h-40.5c-4.1,0-7.5,3.4-7.5,7.5s3.4,7.5,7.5,7.5
		h17.1C324.7,435.9,321.9,441.7,320.7,448z"/>
	<path class="st0" d="M335,231.5c0-57.1-46.4-103.5-103.5-103.5S128,174.4,128,231.5S174.4,335,231.5,335S335,288.6,335,231.5z
		 M231.5,320c-48.8,0-88.5-39.7-88.5-88.5s39.7-88.5,88.5-88.5s88.5,39.7,88.5,88.5S280.3,320,231.5,320z"/>
	<path class="st0" d="M266.2,186.2l-80,80c-2.9,2.9-2.9,7.7,0,10.6c1.5,1.5,3.4,2.2,5.3,2.2s3.8-0.7,5.3-2.2l80-80
		c2.9-2.9,2.9-7.7,0-10.6C273.9,183.3,269.1,183.3,266.2,186.2z"/>
	<path class="st0" d="M191.5,231c1.9,0,3.8-0.7,5.3-2.2l32-32c2.9-2.9,2.9-7.7,0-10.6c-2.9-2.9-7.7-2.9-10.6,0l-32,32
		c-2.9,2.9-2.9,7.7,0,10.6C187.7,230.3,189.6,231,191.5,231z"/>
	<path class="st0" d="M266.2,234.2l-32,32c-2.9,2.9-2.9,7.7,0,10.6c1.5,1.5,3.4,2.2,5.3,2.2s3.8-0.7,5.3-2.2l32-32
		c2.9-2.9,2.9-7.7,0-10.6C273.9,231.3,269.1,231.3,266.2,234.2z"/>
</g>
</svg>
