<?xml version="1.0" encoding="utf-8"?>
<!-- Generator: Adobe Illustrator 24.0.0, SVG Export Plug-In . SVG Version: 6.00 Build 0)  -->
<svg version="1.1" id="Capa_1" xmlns="http://www.w3.org/2000/svg" xmlns:xlink="http://www.w3.org/1999/xlink" x="0px" y="0px"
	 viewBox="0 0 325.5 325.5" style="enable-background:new 0 0 325.5 325.5;" xml:space="preserve">
<style type="text/css">
	.st0{fill:#FFFFFF;}
</style>
<path class="st0" d="M323.7,107L220.7,4c-1.1-1.1-2.7-1.8-4.2-1.8c-1.6,0-3.1,0.6-4.2,1.8l-17,17c-2.3,2.3-2.3,6.1,0,8.5l0.5,0.5
	l-45.9,50.5l0,0c0,0,0,0,0,0l-57.3,62.9c-0.1,0.1-0.1,0.1-0.2,0.1c-0.2,0.2-0.3,0.3-0.4,0.5l-64.5,70.9c-1.6,1.8-2,4.4-1,6.7
	l11.1,23l-6.7,6.7l-3.7-3.7c-2.3-2.3-6.1-2.3-8.4,0L1.8,264.1c-1.1,1.1-1.8,2.7-1.8,4.3c0,1.6,0.6,3.1,1.8,4.3l48.8,48.8
	c1.2,1.2,2.7,1.8,4.2,1.8c1.5,0,3-0.6,4.2-1.7L75.9,305c1.1-1.1,1.8-2.7,1.8-4.3s-0.6-3.1-1.8-4.3l-3.4-3.4l6.7-6.7l23.2,11.2
	c2.2,1.1,4.8,0.7,6.6-0.9L297.6,132l0.6,0.6c1.1,1.1,2.7,1.8,4.2,1.8c1.6,0,3.1-0.6,4.2-1.8l17.1-17.1c1.1-1.1,1.8-2.7,1.8-4.2
	C325.5,109.6,324.8,108.1,323.7,107z M177.9,220.6l-73-73l49.3-54.2l78.9,78.9L177.9,220.6z M54.9,308.8l-40.3-40.3l8.3-8.1
	l40.3,40.3L54.9,308.8z M39.3,259.8l5.5-5.5l24.8,24.8l-5.5,5.5L39.3,259.8z M104.1,285l-22.5-10.9l-31.9-31.8L39,220l57.8-63.5
	l72.1,72L104.1,285z M242.2,164.4l-79.9-79.8l41.9-46l84.9,84.9L242.2,164.4z M302.4,119.8l-94.5-94.5l8.6-8.6l94.5,94.5
	L302.4,119.8z"/>
</svg>
