<?xml version="1.0" encoding="iso-8859-1"?>
<!-- Generator: Adobe Illustrator 18.0.0, SVG Export Plug-In . SVG Version: 6.00 Build 0)  -->
<!DOCTYPE svg PUBLIC "-//W3C//DTD SVG 1.1//EN" "http://www.w3.org/Graphics/SVG/1.1/DTD/svg11.dtd">
<svg version="1.1" id="Capa_1" xmlns="http://www.w3.org/2000/svg" xmlns:xlink="http://www.w3.org/1999/xlink" x="0px" y="0px"
	 viewBox="0 0 325.455 325.455" style="enable-background:new 0 0 325.455 325.455;" xml:space="preserve">
<g fill="#2386C7">
	<path d="M323.697,106.998L220.719,4.021c-1.125-1.126-2.651-1.758-4.242-1.758c-1.592,0-3.117,0.632-4.243,1.758l-17.049,17.05
		c-2.343,2.343-2.343,6.142,0,8.484l0.497,0.497l-45.949,50.467l-0.001,0.001c-0.001,0.001-0.002,0.003-0.003,0.004l-57.26,62.89
		c-0.06,0.055-0.127,0.093-0.185,0.15c-0.155,0.156-0.273,0.332-0.408,0.5l-64.51,70.853c-1.649,1.812-2.032,4.445-0.965,6.651
		l11.122,23.001l-6.745,6.745l-3.671-3.667c-2.326-2.322-6.091-2.341-8.438-0.041L1.802,264.128
		c-1.145,1.121-1.794,2.654-1.802,4.257c-0.008,1.603,0.626,3.142,1.76,4.274l48.83,48.778c1.171,1.169,2.705,1.755,4.24,1.755
		c1.516,0,3.032-0.57,4.199-1.714l16.864-16.522c1.145-1.121,1.794-2.654,1.802-4.257c0.008-1.603-0.626-3.142-1.76-4.275
		l-3.379-3.376l6.737-6.737l23.163,11.237c2.167,1.051,4.752,0.705,6.566-0.88l188.558-164.717l0.58,0.58
		c1.126,1.126,2.651,1.758,4.243,1.758c1.591,0,3.117-0.632,4.242-1.758l17.051-17.051c1.126-1.125,1.758-2.651,1.758-4.242
		C325.455,109.648,324.823,108.123,323.697,106.998z M177.878,220.588l-73.026-72.951l49.335-54.186l78.947,78.866L177.878,220.588z
		 M54.871,308.753l-40.34-40.297l8.295-8.125l40.338,40.298L54.871,308.753z M39.269,259.795l5.515-5.516l24.8,24.773l-5.516,5.517
		L39.269,259.795z M104.121,285.02l-22.524-10.927L49.74,242.269l-10.77-22.273l57.794-63.476l72.055,71.981L104.121,285.02z
		 M242.191,164.405l-79.917-79.837l41.855-45.971l84.942,84.854L242.191,164.405z M302.404,119.806l-94.491-94.493l8.564-8.565
		l94.493,94.492L302.404,119.806z"/>
</g>
<g>
</g>
<g>
</g>
<g>
</g>
<g>
</g>
<g>
</g>
<g>
</g>
<g>
</g>
<g>
</g>
<g>
</g>
<g>
</g>
<g>
</g>
<g>
</g>
<g>
</g>
<g>
</g>
<g>
</g>
</svg>
