<?xml version="1.0" encoding="iso-8859-1"?>
<!-- Generator: Adobe Illustrator 18.0.0, SVG Export Plug-In . SVG Version: 6.00 Build 0)  -->
<!DOCTYPE svg PUBLIC "-//W3C//DTD SVG 1.1//EN" "http://www.w3.org/Graphics/SVG/1.1/DTD/svg11.dtd">
<svg version="1.1" id="Capa_1" xmlns="http://www.w3.org/2000/svg" xmlns:xlink="http://www.w3.org/1999/xlink" x="0px" y="0px"
	 viewBox="0 0 402.543 402.543" style="enable-background:new 0 0 402.543 402.543;" xml:space="preserve">
<g fill="#2386C7">
	<path d="M401.391,108.58c0,0-55.784-69.346-63.384-76.305c-1.433-1.312-35.891-31.931-88.014-31.931
		c-2.695,0-4.906,2.144-4.998,4.838c-0.009,0.267-0.056,1.363-0.237,3.048c-0.01,0.056-0.031,0.108-0.038,0.165
		c-2.489,2.624-17.537,7.392-43.509,7.392c-25.973,0-40.978-4.781-43.41-7.398c-0.195-1.772-0.244-2.924-0.254-3.198
		c-0.083-2.7-2.296-4.846-4.997-4.846c-52.122,0-86.397,30.854-88.014,31.931c-4.055,2.7-63.384,76.305-63.384,76.305
		c-1.614,1.945-1.523,4.789,0.212,6.627l48.521,51.375c0.963,1.02,2.285,1.567,3.637,1.567c0.584,0,1.174-0.102,1.742-0.313
		l16.495-6.135v235.497c0,2.761,2.238,5,5,5h249.023c2.761,0,5-2.239,5-5l0-235.497l16.497,6.135
		c0.568,0.211,1.158,0.313,1.742,0.313c1.351,0,2.674-0.548,3.636-1.567l48.521-51.375
		C402.913,113.369,403.005,110.526,401.391,108.58z M71.76,117.418v33.613l-16.878,6.277l-43.207-45.75l54.653-65.863
		C71.201,63.886,71.948,102.086,71.76,117.418z M201.211,25.787c3.668,0,26.439-0.212,41.055-5.24
		c-4.163,13.903-14.645,32.177-40.995,32.205c-26.335-0.027-36.819-18.283-40.987-32.181
		C174.917,25.581,197.71,25.787,201.211,25.787z M320.783,117.418v274.78H81.76l-0.001-274.72
		c0.079-6.369,0.473-59.318-7.677-80.097c8.619-6.666,36.194-25.516,73.914-26.951c0.688,5.335,2.419,14.277,6.749,23.284
		c6.357,13.223,19.575,28.978,46.441,29.035c0.009,0,0.017,0.002,0.026,0.002c0.02,0,0.039-0.001,0.058-0.001
		c0.02,0,0.039,0.001,0.058,0.001c0.009,0,0.017-0.002,0.026-0.002c26.867-0.057,40.085-15.812,46.442-29.035
		c4.33-9.007,6.061-17.949,6.749-23.284c37.723,1.434,65.301,20.289,73.915,26.95C320.312,58.16,320.705,111.106,320.783,117.418z
		 M347.661,157.309l-16.878-6.277v-33.676c-0.188-15.277,0.557-53.469,5.431-71.661l54.654,65.864L347.661,157.309z"/>
	<path d="M291.39,270.731l-20.71-42.547c2.41-7.246,3.734-14.982,3.734-23.026c0-31.671-20.236-58.694-48.455-68.845l-20.194-41.486
		c-0.837-1.72-2.583-2.811-4.496-2.811c-1.913,0-3.658,1.092-4.496,2.811l-20.193,41.488c-28.217,10.15-48.451,37.174-48.451,68.843
		c0,8.044,1.324,15.78,3.734,23.025l-20.896,42.93c-0.754,1.549-0.657,3.378,0.257,4.84c0.914,1.461,2.516,2.348,4.239,2.348H287.08
		c0.006,0,0.012,0,0.02,0c2.761,0,5-2.238,5-5C292.1,272.36,291.841,271.481,291.39,270.731z M264.414,205.157
		c0,3.006-0.225,5.958-0.633,8.854l-30.9-63.48C251.714,161.471,264.414,181.853,264.414,205.157z M259.828,228.738
		c-9.364,23.166-32.075,39.56-58.556,39.56c-26.483,0-49.195-16.394-58.558-39.56l40.993-84.219
		c5.581-1.619,11.47-2.505,17.565-2.505c6.093,0,11.98,0.885,17.559,2.503L259.828,228.738z M201.269,108.44l11.959,24.568
		c-3.893-0.643-7.884-0.993-11.956-0.993c-4.075,0-8.067,0.351-11.962,0.994L201.269,108.44z M138.129,205.157
		c0-23.303,12.698-43.683,31.529-54.624l-30.896,63.475C138.354,211.115,138.129,208.162,138.129,205.157z M123.457,268.299
		l13.657-28.057c6.392,11.643,15.865,21.353,27.309,28.057H123.457z M238.121,268.299c11.442-6.703,20.915-16.414,27.308-28.055
		l13.657,28.055H238.121z"/>
</g>
<g>
</g>
<g>
</g>
<g>
</g>
<g>
</g>
<g>
</g>
<g>
</g>
<g>
</g>
<g>
</g>
<g>
</g>
<g>
</g>
<g>
</g>
<g>
</g>
<g>
</g>
<g>
</g>
<g>
</g>
</svg>
