<?xml version="1.0" encoding="utf-8"?>
<!-- Generator: Adobe Illustrator 24.0.0, SVG Export Plug-In . SVG Version: 6.00 Build 0)  -->
<svg version="1.1" id="Capa_1" xmlns="http://www.w3.org/2000/svg" xmlns:xlink="http://www.w3.org/1999/xlink" x="0px" y="0px"
	 viewBox="0 0 402.5 402.5" style="enable-background:new 0 0 402.5 402.5;" xml:space="preserve">
<style type="text/css">
	.st0{fill:#FFFFFF;}
</style>
<g>
	<path class="st0" d="M401.4,108.6c0,0-55.8-69.3-63.4-76.3c-1.4-1.3-35.9-31.9-88-31.9c-2.7,0-4.9,2.1-5,4.8c0,0.3-0.1,1.4-0.2,3
		c0,0.1,0,0.1,0,0.2c-2.5,2.6-17.5,7.4-43.5,7.4c-26,0-41-4.8-43.4-7.4c-0.2-1.8-0.2-2.9-0.3-3.2c-0.1-2.7-2.3-4.8-5-4.8
		c-52.1,0-86.4,30.9-88,31.9C60.5,35,1.2,108.6,1.2,108.6c-1.6,1.9-1.5,4.8,0.2,6.6l48.5,51.4c1,1,2.3,1.6,3.6,1.6
		c0.6,0,1.2-0.1,1.7-0.3l16.5-6.1v235.5c0,2.8,2.2,5,5,5h249c2.8,0,5-2.2,5-5V161.7l16.5,6.1c0.6,0.2,1.2,0.3,1.7,0.3
		c1.4,0,2.7-0.5,3.6-1.6l48.5-51.4C402.9,113.4,403,110.5,401.4,108.6z M71.8,117.4V151l-16.9,6.3l-43.2-45.8l54.7-65.9
		C71.2,63.9,71.9,102.1,71.8,117.4z M201.2,25.8c3.7,0,26.4-0.2,41.1-5.2c-4.2,13.9-14.6,32.2-41,32.2c-26.3,0-36.8-18.3-41-32.2
		C174.9,25.6,197.7,25.8,201.2,25.8z M320.8,117.4v274.8h-239l0-274.7c0.1-6.4,0.5-59.3-7.7-80.1c8.6-6.7,36.2-25.5,73.9-27
		c0.7,5.3,2.4,14.3,6.7,23.3c6.4,13.2,19.6,29,46.4,29c0,0,0,0,0,0c0,0,0,0,0.1,0c0,0,0,0,0.1,0c0,0,0,0,0,0
		c26.9-0.1,40.1-15.8,46.4-29c4.3-9,6.1-17.9,6.7-23.3c37.7,1.4,65.3,20.3,73.9,27C320.3,58.2,320.7,111.1,320.8,117.4z
		 M347.7,157.3l-16.9-6.3v-33.7c-0.2-15.3,0.6-53.5,5.4-71.7l54.7,65.9L347.7,157.3z"/>
	<path class="st0" d="M291.4,270.7l-20.7-42.5c2.4-7.2,3.7-15,3.7-23c0-31.7-20.2-58.7-48.5-68.8l-20.2-41.5
		c-0.8-1.7-2.6-2.8-4.5-2.8c-1.9,0-3.7,1.1-4.5,2.8l-20.2,41.5c-28.2,10.1-48.5,37.2-48.5,68.8c0,8,1.3,15.8,3.7,23L111,271.1
		c-0.8,1.5-0.7,3.4,0.3,4.8c0.9,1.5,2.5,2.3,4.2,2.3h171.6c0,0,0,0,0,0c2.8,0,5-2.2,5-5C292.1,272.4,291.8,271.5,291.4,270.7z
		 M264.4,205.2c0,3-0.2,6-0.6,8.9l-30.9-63.5C251.7,161.5,264.4,181.9,264.4,205.2z M259.8,228.7c-9.4,23.2-32.1,39.6-58.6,39.6
		c-26.5,0-49.2-16.4-58.6-39.6l41-84.2c5.6-1.6,11.5-2.5,17.6-2.5c6.1,0,12,0.9,17.6,2.5L259.8,228.7z M201.3,108.4l12,24.6
		c-3.9-0.6-7.9-1-12-1c-4.1,0-8.1,0.4-12,1L201.3,108.4z M138.1,205.2c0-23.3,12.7-43.7,31.5-54.6L138.8,214
		C138.4,211.1,138.1,208.2,138.1,205.2z M123.5,268.3l13.7-28.1c6.4,11.6,15.9,21.4,27.3,28.1H123.5z M238.1,268.3
		c11.4-6.7,20.9-16.4,27.3-28.1l13.7,28.1H238.1z"/>
</g>
</svg>
