<?xml version="1.0" encoding="iso-8859-1"?>
<!-- Generator: Adobe Illustrator 16.0.0, SVG Export Plug-In . SVG Version: 6.00 Build 0)  -->
<!DOCTYPE svg PUBLIC "-//W3C//DTD SVG 1.1//EN" "http://www.w3.org/Graphics/SVG/1.1/DTD/svg11.dtd">
<svg version="1.1" id="Capa_1" xmlns="http://www.w3.org/2000/svg" xmlns:xlink="http://www.w3.org/1999/xlink" x="0px" y="0px"
	 width="38.678px" height="38.677px" viewBox="0 0 38.678 38.677" style="enable-background:new 0 0 38.678 38.677;"
	 xml:space="preserve">
<g>
	<g fill="#2386C7">
		<path d="M25.397,28.345c-7.439,0-13.89-1.248-17.932-3.541c-1.391,0.675-5.772,2.859-6.931,4.242
			C0.296,29.33,0.018,30.061,0,30.429c-0.013,0.287,0.314,1.101,0.314,1.101c9.837,4.158,15.337,2.574,20.836,1.49
			c5.85-1.149,11.155-4.894,11.155-4.894c0.044-0.049,0.097-0.098,0.144-0.145C30.036,28.22,27.669,28.345,25.397,28.345z"/>
		<path d="M25.554,6.096l-0.083,0.002c-0.069-0.925-1.188-1.661-2.569-1.661c-1.426,0-2.582,0.783-2.582,1.75
			c0,0.016,0.006,0.03,0.006,0.046C7.254,7.591,7.789,16.74,8.055,21.679c0.047,0.865-0.015,1.716-0.073,2.272
			c5.331,3.036,15.178,4.151,25.915,2.866c1.989-1.371,4.705-2.686,4.705-2.686s0.168-5.074,0-6.754
			C37.717,8.554,30.172,6.521,25.554,6.096z"/>
	</g>
</g>
<g>
</g>
<g>
</g>
<g>
</g>
<g>
</g>
<g>
</g>
<g>
</g>
<g>
</g>
<g>
</g>
<g>
</g>
<g>
</g>
<g>
</g>
<g>
</g>
<g>
</g>
<g>
</g>
<g>
</g>
</svg>
