<?xml version="1.0" encoding="utf-8"?>
<!-- Generator: Adobe Illustrator 24.0.0, SVG Export Plug-In . SVG Version: 6.00 Build 0)  -->
<svg version="1.1" id="Capa_1" xmlns="http://www.w3.org/2000/svg" xmlns:xlink="http://www.w3.org/1999/xlink" x="0px" y="0px"
	 viewBox="0 0 38.7 38.7" style="enable-background:new 0 0 38.7 38.7;" xml:space="preserve">
<style type="text/css">
	.st0{fill:#FFFFFF;}
</style>
<g>
	<g>
		<path class="st0" d="M25.4,28.3c-7.4,0-13.9-1.2-17.9-3.5c-1.4,0.7-5.8,2.9-6.9,4.2c-0.2,0.3-0.5,1-0.5,1.4c0,0.3,0.3,1.1,0.3,1.1
			c9.8,4.2,15.3,2.6,20.8,1.5c5.9-1.1,11.2-4.9,11.2-4.9c0,0,0.1-0.1,0.1-0.1C30,28.2,27.7,28.3,25.4,28.3z"/>
		<path class="st0" d="M25.6,6.1L25.6,6.1c-0.2-0.9-1.3-1.7-2.7-1.7c-1.4,0-2.6,0.8-2.6,1.8c0,0,0,0,0,0C7.3,7.6,7.8,16.7,8.1,21.7
			c0,0.9,0,1.7-0.1,2.3c5.3,3,15.2,4.2,25.9,2.9c2-1.4,4.7-2.7,4.7-2.7s0.2-5.1,0-6.8C37.7,8.6,30.2,6.5,25.6,6.1z"/>
	</g>
</g>
</svg>
