<?xml version="1.0" encoding="utf-8"?>
<!-- Generator: Adobe Illustrator 24.0.0, SVG Export Plug-In . SVG Version: 6.00 Build 0)  -->
<svg version="1.1" id="Capa_1" xmlns="http://www.w3.org/2000/svg" xmlns:xlink="http://www.w3.org/1999/xlink" x="0px" y="0px"
	 viewBox="0 0 464.6 464.6" style="enable-background:new 0 0 464.6 464.6;" xml:space="preserve">
<style type="text/css">
	.st0{fill:#FFFFFF;}
</style>
<g>
	<path class="st0" d="M464.6,393.3l-87.5-315l-75.4,20.9l8.3,30h-83.9V87.4H148v30.9h-42.4V50.2H0v364.2h90.6h15H148h15h48.2h15
		h98.2V180.7l64.8,233.5L464.6,393.3z M163,102.4h48.2v37.1H163V102.4z M163,201.8h48.2v170.6H163V201.8z M163,186.8v-8.6h48.2v8.6
		H163z M163,163.2v-8.6h48.2v8.6H163z M90.6,370.2H15v-276h75.6V370.2z M90.6,65.2v14H15v-14H90.6z M15,399.4v-14.2h75.6v14.2H15z
		 M148,399.4h-42.4v-266H148V399.4z M163,399.4v-12h48.2v12H163z M309.4,399.4h-83.2V144.2h83.2V399.4z M399.6,395.8l-52.7-190
		l46.5-12.9l52.7,190L399.6,395.8z M342.9,191.4l-4.1-14.9l46.5-12.9l4.1,14.9L342.9,191.4z M366.7,96.8l14.5,52.4L334.7,162
		l-14.5-52.4L366.7,96.8z"/>
	<rect x="243.6" y="160.5" class="st0" width="48.3" height="15"/>
	<rect x="243.6" y="186.8" class="st0" width="48.3" height="15"/>
	<rect x="243.6" y="213.2" class="st0" width="48.3" height="15"/>
	<rect x="243.6" y="365.8" class="st0" width="48.3" height="15"/>
	<rect x="119.3" y="272.3" class="st0" width="15" height="25.3"/>
	<rect x="119.3" y="311.8" class="st0" width="15" height="57.1"/>
	<rect x="119.3" y="189.9" class="st0" width="15" height="68.1"/>
	<rect x="119.3" y="150.4" class="st0" width="15" height="26.4"/>
</g>
</svg>
