<?xml version="1.0" encoding="utf-8"?>
<!-- Generator: Adobe Illustrator 24.0.0, SVG Export Plug-In . SVG Version: 6.00 Build 0)  -->
<svg version="1.1" id="Layer_1" xmlns="http://www.w3.org/2000/svg" xmlns:xlink="http://www.w3.org/1999/xlink" x="0px" y="0px"
	 viewBox="0 0 512 512" style="enable-background:new 0 0 512 512;" xml:space="preserve">
<style type="text/css">
	.st0{fill:#FFFFFF;}
</style>
<g>
	<g>
		<path class="st0" d="M490.6,11H21.4C15.7,11,11,15.7,11,21.4v469.1c0,5.8,4.7,10.4,10.4,10.4h469.1c5.8,0,10.4-4.7,10.4-10.4V21.4
			C501,15.7,496.3,11,490.6,11z M31.9,31.9h448.3v64.8H31.9V31.9z M480.1,480.1H31.9V117.5h448.3L480.1,480.1L480.1,480.1z"/>
		<path class="st0" d="M85.9,53.8H65.1c-5.8,0-10.4,4.7-10.4,10.4s4.7,10.4,10.4,10.4h20.8c5.8,0,10.4-4.7,10.4-10.4
			S91.6,53.8,85.9,53.8z"/>
		<path class="st0" d="M150.7,53.8h-20.8c-5.8,0-10.4,4.7-10.4,10.4s4.7,10.4,10.4,10.4h20.8c5.8,0,10.4-4.7,10.4-10.4
			S156.5,53.8,150.7,53.8z"/>
		<path class="st0" d="M446.9,53.8h-181c-5.8,0-10.4,4.7-10.4,10.4s4.7,10.4,10.4,10.4h181c5.8,0,10.4-4.7,10.4-10.4
			S452.7,53.8,446.9,53.8z"/>
		<path class="st0" d="M65.1,305.2h128.6c5.8,0,10.4-4.7,10.4-10.4V166.2c0-5.8-4.7-10.4-10.4-10.4H65.1c-5.8,0-10.4,4.7-10.4,10.4
			v128.6C54.6,300.6,59.3,305.2,65.1,305.2z M75.5,176.7h107.7v107.7H75.5V176.7L75.5,176.7z"/>
		<path class="st0" d="M256,305.2h190.9c5.8,0,10.4-4.7,10.4-10.4c0-5.8-4.7-10.4-10.4-10.4H256c-5.8,0-10.4,4.7-10.4,10.4
			C245.6,300.6,250.2,305.2,256,305.2z"/>
		<path class="st0" d="M65.1,371.1h381.8c5.8,0,10.4-4.7,10.4-10.4c0-5.8-4.7-10.4-10.4-10.4H65.1c-5.8,0-10.4,4.7-10.4,10.4
			C54.6,366.4,59.3,371.1,65.1,371.1z"/>
		<path class="st0" d="M65.1,441.8h381.8c5.8,0,10.4-4.7,10.4-10.4c0-5.8-4.7-10.4-10.4-10.4H65.1c-5.8,0-10.4,4.7-10.4,10.4
			C54.6,437.2,59.3,441.8,65.1,441.8z"/>
	</g>
</g>
</svg>
