<?xml version="1.0" encoding="utf-8"?>
<!-- Generator: Adobe Illustrator 24.0.0, SVG Export Plug-In . SVG Version: 6.00 Build 0)  -->
<svg version="1.1" id="Capa_1" xmlns="http://www.w3.org/2000/svg" xmlns:xlink="http://www.w3.org/1999/xlink" x="0px" y="0px"
	 viewBox="0 0 430.4 430.4" style="enable-background:new 0 0 430.4 430.4;" xml:space="preserve">
<style type="text/css">
	.st0{fill:#FFFFFF;}
</style>
<path id="XMLID_16_" class="st0" d="M180,149.9H72.8c-5,0-9-4-9-9s4-9,9-9H180c5,0,9,4,9,9S184.9,149.9,180,149.9z M170.4,367.1
	c0,5-4,9-9,9h-33.9v45.3c0,3.5-2,6.7-5.2,8.2c-1.2,0.6-2.5,0.8-3.8,0.8c-2.1,0-4.2-0.7-5.8-2.1l-17.1-14.4l-17.1,14.4
	c-2.7,2.3-6.4,2.8-9.6,1.3c-3.2-1.5-5.2-4.7-5.2-8.2v-45.3H21.4c-5,0-9-4-9-9V27.5C12.4,12.3,23.2,0,36.4,0H286c5,0,9,4,9,9
	s-4,9-9,9H36.4c-2.8,0-6,4-6,9.5v9.5H286c5,0,9,4,9,9v87.6c0,5-4,9-9,9s-9-4-9-9V54.9H30.4v303.2h131
	C166.4,358.1,170.4,362.1,170.4,367.1z M109.6,376.1H81.8V402l8.1-6.8c1.7-1.4,3.7-2.1,5.8-2.1s4.1,0.7,5.8,2.1l8.1,6.8
	C109.6,402,109.6,376.1,109.6,376.1z M418,290.5c0,68.2-55.5,123.7-123.7,123.7s-123.7-55.5-123.7-123.7s55.5-123.7,123.7-123.7
	c12.6,0,31.7,0,42.3,15.2c4.5,6.5,12.4,24.1-11.5,47.9c-7.8,7.7-7.8,20.4,0,28.1c7.7,7.7,20.4,7.8,28.1,0c15.9-15.8,28.9-17.4,37-16
	c9.8,1.8,17.9,8.8,22.9,19.7C417.4,271,418,281,418,290.5z M400,290.5c0-8.6-0.5-15.5-3.1-21.1c-1.8-3.9-4.9-8.6-9.8-9.5
	c-5.5-1-13,2.9-21.1,11c-14.8,14.7-38.8,14.7-53.6,0c-14.8-14.8-14.7-38.8,0-53.6c5.9-5.9,15-16.9,9.4-24.9
	c-4.9-7-14.9-7.5-27.6-7.5c-58.3,0-105.7,47.4-105.7,105.7S236,396.2,294.3,396.2C352.6,396.2,400,348.8,400,290.5z M326.5,307
	L326.5,307C326.5,307,326.5,307,326.5,307L326.5,307z M72.8,167.2c-5,0-9,4-9,9s4,9,9,9h36.3c5,0,9-4,9-9s-4-9-9-9H72.8z
	 M328.7,15.7c-2.8-2.6-3.7-6.7-2.2-10.2c1.5-3.5,5-5.7,8.9-5.5c62.8,4.2,69.8,40.8,68.8,72.3v0c-0.4,14.6-10,26.6-23,30.5v106.9
	c0,5-4,9-9,9s-9-4-9-9V102.9c-13.4-3.9-23.3-16.2-23.3-30.9c0-4.1,0-8,0.1-11.5C340.2,33.3,339.8,25.7,328.7,15.7z M354.2,21
	c4,10.6,3.9,22.8,3.8,39.6c0,3.5-0.1,7.3-0.1,11.4c0,7.8,6.3,14.1,14.1,14.1c7.7,0,13.9-6.3,14.1-14.4
	C386.8,50.3,384.5,29.1,354.2,21z M257.4,318.4c-4.8,4.8-11.3,7.5-18.1,7.5c0,0,0,0,0,0c-6.8,0-13.3-2.7-18.1-7.5
	c-10-10-10-26.3,0-36.2s26.3-10,36.3,0C267.4,292.2,267.4,308.5,257.4,318.4z M244.7,294.9c-1.5-1.5-3.4-2.2-5.4-2.2
	c-2,0-3.9,0.7-5.4,2.2l0,0c-3,3-3,7.8,0,10.8c1.4,1.4,3.4,2.2,5.4,2.2c0,0,0,0,0,0c2,0,3.9-0.8,5.4-2.2
	C247.6,302.7,247.6,297.9,244.7,294.9z M302.5,327.4c10,10,10,26.3,0,36.3c-5,5-11.6,7.5-18.1,7.5c-6.6,0-13.1-2.5-18.1-7.5
	c-4.8-4.8-7.5-11.3-7.5-18.1c0-6.8,2.7-13.3,7.5-18.1C276.3,317.4,292.5,317.4,302.5,327.4z M289.8,340.1c-3-3-7.8-3-10.8,0
	c-1.4,1.4-2.2,3.4-2.2,5.4s0.8,4,2.2,5.4c3,3,7.8,3,10.8,0C292.8,347.9,292.8,343.1,289.8,340.1z M72.8,114.6h85.3c5,0,9-4,9-9
	s-4-9-9-9H72.8c-5,0-9,4-9,9S67.9,114.6,72.8,114.6z M239.5,256.1c-4.8-4.8-7.5-11.3-7.5-18.1c0-6.8,2.7-13.3,7.5-18.1
	c10-10,26.3-10,36.2,0c4.8,4.8,7.5,11.3,7.5,18.1c0,6.8-2.7,13.3-7.5,18.1c-4.8,4.8-11.3,7.5-18.1,7.5c0,0,0,0,0,0
	C250.7,263.6,244.3,260.9,239.5,256.1z M250,237.9c0,2,0.8,4,2.2,5.4c1.4,1.4,3.4,2.2,5.4,2.2c0,0,0,0,0,0c2,0,4-0.8,5.4-2.2
	c1.4-1.4,2.2-3.4,2.2-5.4s-0.8-4-2.2-5.4c-1.5-1.5-3.4-2.2-5.4-2.2c-2,0-3.9,0.7-5.4,2.2l0,0C250.8,234,250,235.9,250,237.9z
	 M362.8,307.1c10,10,10,26.3,0,36.2c-4.8,4.8-11.3,7.5-18.1,7.5c0,0,0,0,0,0c-6.8,0-13.3-2.7-18.1-7.5c-10-10-10-26.3,0-36.2
	c4.8-4.8,11.3-7.5,18.1-7.5c0,0,0,0,0,0C351.5,299.5,358,302.2,362.8,307.1z M352.3,325.2c0-2-0.8-4-2.2-5.4
	c-1.4-1.4-3.4-2.2-5.4-2.2c0,0,0,0,0,0c-2,0-4,0.8-5.4,2.2l0,0c-3,3-3,7.8,0,10.8c1.4,1.4,3.4,2.2,5.4,2.2c0,0,0,0,0,0
	c2,0,4-0.8,5.4-2.2C351.5,329.1,352.3,327.2,352.3,325.2z"/>
</svg>
