<?xml version="1.0" encoding="utf-8"?>
<!-- Generator: Adobe Illustrator 24.0.0, SVG Export Plug-In . SVG Version: 6.00 Build 0)  -->
<svg version="1.1" id="Capa_1" xmlns="http://www.w3.org/2000/svg" xmlns:xlink="http://www.w3.org/1999/xlink" x="0px" y="0px"
	 viewBox="0 0 479.4 479.4" style="enable-background:new 0 0 479.4 479.4;" xml:space="preserve">
<style type="text/css">
	.st0{fill:#FFFFFF;}
</style>
<g>
	<path class="st0" d="M387.2,239.8c2.3-1.3,3.8-3.8,3.8-6.5c0-2.7-1.4-5.2-3.8-6.5l-154.8-89.4c-2.3-1.3-5.2-1.3-7.5,0L48,239.6
		c-2.3,1.3-3.8,3.8-3.8,6.5s1.4,5.2,3.8,6.5l154.8,89.4c1.2,0.7,2.5,1,3.8,1s2.6-0.3,3.8-1L387.2,239.8z M66.7,246.1l161.9-93.5
		l139.8,80.7l-161.9,93.5L66.7,246.1z"/>
	<path class="st0" d="M254.5,137.7l18.4-10.6l7.1,4.1l-10.9,6.3c-3.6,2.1-4.8,6.7-2.7,10.2c1.4,2.4,3.9,3.8,6.5,3.8
		c1.3,0,2.6-0.3,3.7-1l22.1-12.8c2.3-1.3,3.8-3.8,3.8-6.5s-1.4-5.2-3.8-6.5l-22.1-12.7c-2.3-1.3-5.2-1.3-7.5,0L247,124.7
		c-3.6,2.1-4.8,6.7-2.8,10.2S250.9,139.7,254.5,137.7z"/>
	<path class="st0" d="M288.5,160.5c1.4,2.4,3.9,3.8,6.5,3.8c1.3,0,2.6-0.3,3.7-1l22.1-12.8c3.6-2.1,4.8-6.7,2.7-10.2
		c-2.1-3.6-6.7-4.8-10.2-2.7l-22.1,12.8C287.6,152.3,286.4,156.9,288.5,160.5z"/>
	<path class="st0" d="M309.6,169.5c0,2.7,1.4,5.2,3.8,6.5l22.1,12.8c1.2,0.7,2.5,1,3.8,1c1.3,0,2.6-0.3,3.7-1L365,176
		c3.6-2.1,4.8-6.7,2.8-10.2c-2.1-3.6-6.7-4.8-10.2-2.8l-18.4,10.6l-7.1-4.1l10.9-6.3c3.6-2.1,4.8-6.7,2.7-10.2
		c-2.1-3.6-6.7-4.8-10.2-2.7L313.3,163C311,164.3,309.6,166.8,309.6,169.5z"/>
	<path class="st0" d="M354.8,198.7c1.4,2.4,3.9,3.8,6.5,3.8c1.3,0,2.6-0.3,3.7-1l22.1-12.7c3.6-2.1,4.8-6.7,2.8-10.2
		c-2.1-3.6-6.7-4.8-10.2-2.8l-22.1,12.7C354,190.6,352.7,195.1,354.8,198.7z"/>
	<path class="st0" d="M376.9,211.5c2.1,3.6,6.7,4.8,10.2,2.7l18.4-10.6l7.1,4.1l-10.9,6.3c-3.6,2.1-4.8,6.7-2.7,10.2
		c1.4,2.4,3.9,3.7,6.5,3.7c1.3,0,2.6-0.3,3.7-1l22.1-12.8c2.3-1.3,3.7-3.8,3.7-6.5s-1.4-5.2-3.8-6.5l-22.1-12.8
		c-2.3-1.3-5.2-1.3-7.5,0l-22.1,12.8C376.1,203.3,374.8,207.9,376.9,211.5z"/>
	<path class="st0" d="M479.3,207.8L479.3,207.8c0-2.7-1.4-5.2-3.8-6.5l-199-114.9c-2.3-1.3-5.2-1.3-7.5,0L3.8,239.6
		c-2.3,1.3-3.8,3.8-3.8,6.5c0,0,0,0,0,0l0,0l0,25.5c0,2.7,1.4,5.1,3.8,6.5l199,114.9c1.2,0.7,2.5,1,3.8,1c1.3,0,2.6-0.3,3.8-1
		l265.4-153.2c2.3-1.3,3.8-3.8,3.8-6.5L479.3,207.8z M272.8,101.5l184,106.2L206.5,352.3l-184-106.2L272.8,101.5z M206.5,377.8
		L15,267.3l0-8.2l187.8,108.4c1.2,0.7,2.5,1,3.8,1s2.6-0.3,3.8-1l254.1-146.7l0,8.2L206.5,377.8z"/>
</g>
</svg>
