<?xml version="1.0" encoding="iso-8859-1"?>
<!-- Generator: Adobe Illustrator 18.0.0, SVG Export Plug-In . SVG Version: 6.00 Build 0)  -->
<!DOCTYPE svg PUBLIC "-//W3C//DTD SVG 1.1//EN" "http://www.w3.org/Graphics/SVG/1.1/DTD/svg11.dtd">
<svg version="1.1" id="Capa_1" xmlns="http://www.w3.org/2000/svg" xmlns:xlink="http://www.w3.org/1999/xlink" x="0px" y="0px"
	 viewBox="0 0 479.354 479.354" style="enable-background:new 0 0 479.354 479.354;" xml:space="preserve">
<g>
	<path style="fill:#2386C7;" d="M387.16,239.78c2.32-1.34,3.75-3.815,3.75-6.495c0-2.679-1.43-5.155-3.75-6.495l-154.778-89.363
		c-2.32-1.34-5.18-1.34-7.5,0L47.992,239.554c-2.32,1.34-3.75,3.815-3.75,6.495c0,2.68,1.429,5.155,3.75,6.495l154.76,89.373
		c1.16,0.67,2.455,1.005,3.75,1.005c1.295,0,2.59-0.335,3.75-1.005L387.16,239.78z M66.741,246.05l161.891-93.468l139.778,80.703
		l-161.907,93.477L66.741,246.05z"/>
	<path style="fill:#2386C7;" d="M254.47,137.664l18.384-10.597l7.102,4.094l-10.87,6.276c-3.587,2.071-4.816,6.658-2.745,10.245
		c1.389,2.406,3.91,3.751,6.502,3.751c1.272,0,2.562-0.324,3.743-1.006l22.128-12.776c2.321-1.34,3.751-3.817,3.75-6.498
		c-0.001-2.681-1.432-5.157-3.754-6.495L276.6,111.913c-2.317-1.336-5.172-1.336-7.491,0l-22.129,12.755
		c-3.589,2.069-4.821,6.655-2.753,10.244C246.295,138.501,250.882,139.733,254.47,137.664z"/>
	<path style="fill:#2386C7;" d="M288.47,160.458c1.389,2.406,3.91,3.751,6.502,3.751c1.272,0,2.562-0.324,3.743-1.006l22.111-12.766
		c3.587-2.071,4.816-6.658,2.745-10.245c-2.071-3.588-6.657-4.817-10.245-2.745l-22.111,12.766
		C287.628,152.284,286.398,156.871,288.47,160.458z"/>
	<path style="fill:#2386C7;" d="M309.576,169.474c0,2.68,1.43,5.155,3.75,6.495l22.094,12.756c1.16,0.67,2.455,1.005,3.75,1.005
		c1.293,0,2.586-0.334,3.746-1.002l22.128-12.756c3.589-2.068,4.821-6.655,2.752-10.243c-2.069-3.589-6.657-4.82-10.243-2.752
		l-18.379,10.595l-7.097-4.097l10.861-6.271c3.587-2.071,4.816-6.658,2.745-10.245c-2.071-3.588-6.658-4.816-10.245-2.745
		l-22.111,12.766C311.006,164.319,309.576,166.795,309.576,169.474z"/>
	<path style="fill:#2386C7;" d="M354.801,198.732c1.388,2.409,3.911,3.756,6.504,3.756c1.271,0,2.559-0.324,3.739-1.004l22.111-12.747
		c3.589-2.069,4.821-6.655,2.752-10.243c-2.068-3.589-6.656-4.82-10.243-2.752l-22.111,12.747
		C353.964,190.558,352.732,195.144,354.801,198.732z"/>
	<path style="fill:#2386C7;" d="M376.897,211.512c2.071,3.587,6.658,4.817,10.245,2.745l18.378-10.61l7.12,4.111l-10.874,6.288
		c-3.585,2.073-4.812,6.661-2.738,10.247c1.39,2.404,3.909,3.747,6.5,3.747c1.274,0,2.565-0.325,3.748-1.009l22.111-12.785
		c2.319-1.341,3.747-3.816,3.746-6.495s-1.43-5.153-3.75-6.493l-22.111-12.766c-2.32-1.34-5.18-1.34-7.5,0l-22.128,12.775
		C376.056,203.338,374.826,207.925,376.897,211.512z"/>
	<path style="fill:#2386C7;" d="M479.337,207.757L479.337,207.757c-0.002-2.678-1.431-5.151-3.75-6.49L276.585,86.373c-2.32-1.34-5.18-1.34-7.5,0
		L3.75,239.565C1.429,240.905,0,243.381,0,246.06c0,0.002,0,0.003,0,0.005h0l0.02,25.544c0.002,2.677,1.431,5.15,3.75,6.489
		l198.981,114.882c1.16,0.67,2.455,1.005,3.75,1.005c1.294,0,2.589-0.335,3.75-1.004l265.353-153.182
		c2.322-1.341,3.752-3.819,3.75-6.5L479.337,207.757z M272.835,101.529l184.002,106.233L206.52,352.283L22.501,246.059
		L272.835,101.529z M206.501,377.825L15.017,267.272l-0.006-8.217l187.761,108.384c1.16,0.669,2.455,1.004,3.75,1.004
		s2.59-0.335,3.75-1.005l254.075-146.691l0.005,8.228L206.501,377.825z"/>
</g>
<g>
</g>
<g>
</g>
<g>
</g>
<g>
</g>
<g>
</g>
<g>
</g>
<g>
</g>
<g>
</g>
<g>
</g>
<g>
</g>
<g>
</g>
<g>
</g>
<g>
</g>
<g>
</g>
<g>
</g>
</svg>
