<?xml version="1.0" encoding="iso-8859-1"?>
<!-- Generator: Adobe Illustrator 18.0.0, SVG Export Plug-In . SVG Version: 6.00 Build 0)  -->
<!DOCTYPE svg PUBLIC "-//W3C//DTD SVG 1.1//EN" "http://www.w3.org/Graphics/SVG/1.1/DTD/svg11.dtd">
<svg version="1.1" id="Capa_1" xmlns="http://www.w3.org/2000/svg" xmlns:xlink="http://www.w3.org/1999/xlink" x="0px" y="0px"
	 viewBox="0 0 470.64 470.64" style="enable-background:new 0 0 470.64 470.64;" xml:space="preserve">
<g fill="#2386C7">
	<path d="M215.771,295.64h141.76c5.522,0,10-4.477,10-10s-4.478-10-10-10h-141.76c-5.523,0-10,4.477-10,10
		S210.248,295.64,215.771,295.64z"/>
	<path d="M215.771,219.64h54.15c5.522,0,10-4.477,10-10s-4.478-10-10-10h-54.15c-5.523,0-10,4.477-10,10
		S210.248,219.64,215.771,219.64z"/>
	<path d="M215.771,335.64h141.76c5.522,0,10-4.477,10-10s-4.478-10-10-10h-141.76c-5.523,0-10,4.477-10,10
		S210.248,335.64,215.771,335.64z"/>
	<path d="M215.771,375.64h141.76c5.522,0,10-4.477,10-10s-4.478-10-10-10h-141.76c-5.523,0-10,4.477-10,10
		S210.248,375.64,215.771,375.64z"/>
	<path d="M424.529,102.655h-36.328V66.33c0-8.284-6.716-15-15-15h-36.33V15c0-8.284-6.716-15-15-15H46.111c-8.284,0-15,6.716-15,15
		v337.98c0,8.284,6.716,15,15,15h36.33v36.33c0,8.284,6.716,15,15,15h36.332v36.33c0,8.284,6.716,15,15,15h275.757
		c8.284,0,15-6.716,15-15V117.655C439.529,109.371,432.813,102.655,424.529,102.655z M82.441,66.33v271.65h-21.33V30h245.76v21.33
		H97.441C89.157,51.33,82.441,58.046,82.441,66.33z M133.772,117.655V389.31h-21.332V81.33h245.76v21.325H148.772
		C140.488,102.655,133.772,109.371,133.772,117.655z M409.529,440.64H163.772V132.655h245.757V440.64z"/>
</g>
<g>
</g>
<g>
</g>
<g>
</g>
<g>
</g>
<g>
</g>
<g>
</g>
<g>
</g>
<g>
</g>
<g>
</g>
<g>
</g>
<g>
</g>
<g>
</g>
<g>
</g>
<g>
</g>
<g>
</g>
</svg>
