<?xml version="1.0" encoding="utf-8"?>
<!-- Generator: Adobe Illustrator 24.0.0, SVG Export Plug-In . SVG Version: 6.00 Build 0)  -->
<svg version="1.1" id="Capa_1" xmlns="http://www.w3.org/2000/svg" xmlns:xlink="http://www.w3.org/1999/xlink" x="0px" y="0px"
	 viewBox="0 0 470.6 470.6" style="enable-background:new 0 0 470.6 470.6;" xml:space="preserve">
<style type="text/css">
	.st0{fill:#FFFFFF;}
</style>
<g>
	<path class="st0" d="M215.8,295.6h141.8c5.5,0,10-4.5,10-10s-4.5-10-10-10H215.8c-5.5,0-10,4.5-10,10S210.2,295.6,215.8,295.6z"/>
	<path class="st0" d="M215.8,219.6h54.1c5.5,0,10-4.5,10-10s-4.5-10-10-10h-54.1c-5.5,0-10,4.5-10,10S210.2,219.6,215.8,219.6z"/>
	<path class="st0" d="M215.8,335.6h141.8c5.5,0,10-4.5,10-10s-4.5-10-10-10H215.8c-5.5,0-10,4.5-10,10S210.2,335.6,215.8,335.6z"/>
	<path class="st0" d="M215.8,375.6h141.8c5.5,0,10-4.5,10-10s-4.5-10-10-10H215.8c-5.5,0-10,4.5-10,10S210.2,375.6,215.8,375.6z"/>
	<path class="st0" d="M424.5,102.7h-36.3V66.3c0-8.3-6.7-15-15-15h-36.3V15c0-8.3-6.7-15-15-15H46.1c-8.3,0-15,6.7-15,15v338
		c0,8.3,6.7,15,15,15h36.3v36.3c0,8.3,6.7,15,15,15h36.3v36.3c0,8.3,6.7,15,15,15h275.8c8.3,0,15-6.7,15-15v-338
		C439.5,109.4,432.8,102.7,424.5,102.7z M82.4,66.3V338H61.1V30h245.8v21.3H97.4C89.2,51.3,82.4,58,82.4,66.3z M133.8,117.7v271.7
		h-21.3v-308h245.8v21.3H148.8C140.5,102.7,133.8,109.4,133.8,117.7z M409.5,440.6H163.8v-308h245.8V440.6z"/>
</g>
</svg>
