<?xml version="1.0" encoding="utf-8"?>
<!-- Generator: Adobe Illustrator 24.0.0, SVG Export Plug-In . SVG Version: 6.00 Build 0)  -->
<svg version="1.1" id="Capa_1" xmlns="http://www.w3.org/2000/svg" xmlns:xlink="http://www.w3.org/1999/xlink" x="0px" y="0px"
	 viewBox="0 0 443.1 443.1" style="enable-background:new 0 0 443.1 443.1;" xml:space="preserve">
<style type="text/css">
	.st0{fill:#FFFFFF;}
</style>
<path class="st0" d="M387.3,43.1C387.3,19.3,368,0,344.2,0H102.9C89.1,0,77.9,11.2,77.9,25.1v18.7h-4.2c-4.8,0-9.3,1.9-12.7,5.2
	c-3.4,3.4-5.3,7.9-5.3,12.7c0,9.9,8,17.9,17.9,17.9h4.2v25.2h-4.2c-4.8,0-9.3,1.9-12.7,5.2c-3.4,3.4-5.3,7.9-5.3,12.7
	c0,9.9,8,17.9,17.9,17.9h4.2v25.2h-4.2c-4.8,0-9.3,1.9-12.7,5.2c-3.4,3.4-5.3,7.9-5.3,12.7c0,9.9,8,17.9,17.9,17.9h4.2v25.2h-4.2
	c-4.8,0-9.3,1.9-12.7,5.2c-3.4,3.4-5.3,7.9-5.3,12.7c0,9.9,8,17.9,17.9,17.9h4.2V288h-4.2c-4.8,0-9.3,1.9-12.7,5.2
	c-3.4,3.4-5.3,7.9-5.3,12.7c0,9.9,8,17.9,17.9,17.9h4.2V349h-4.2c-4.8,0-9.3,1.9-12.7,5.2c-3.4,3.4-5.3,7.9-5.3,12.7
	c0,9.9,8,17.9,17.9,17.9h4.2V418h0c0,13.8,11.2,25.1,25.1,25.1h241.3c23.8,0,43.1-19.3,43.1-43.1L387.3,43.1z M73.7,65.5
	c-2.2,0-3.9-1.8-3.9-3.9c0-1.3,0.6-2.2,1.2-2.8c0.7-0.7,1.7-1.1,2.7-1.1h4.2v7.8H73.7z M73.7,126.6c-2.2,0-3.9-1.8-3.9-3.9
	c0-1.3,0.6-2.2,1.2-2.8c0.7-0.7,1.7-1.1,2.7-1.1h4.2v7.8H73.7z M73.7,187.7c-2.2,0-3.9-1.8-3.9-3.9c0-1.3,0.6-2.2,1.2-2.8
	c0.7-0.7,1.7-1.1,2.7-1.1h4.2v7.8H73.7z M73.7,248.7c-2.2,0-3.9-1.8-3.9-3.9c0-1.3,0.6-2.2,1.2-2.8c0.7-0.7,1.7-1.1,2.7-1.1h4.2v7.8
	H73.7z M73.7,309.8c-2.2,0-3.9-1.8-3.9-3.9c0-1.3,0.6-2.2,1.2-2.8c0.7-0.7,1.7-1.1,2.7-1.1h4.2v7.8H73.7z M91.9,302h7
	c2.8,7.5,10.1,12.9,18.6,12.9c11,0,19.9-8.9,19.9-19.9c0-11-8.9-19.9-19.9-19.9c-8.5,0-15.8,5.4-18.6,12.9h-7v-47.1h7
	c2.8,7.5,10.1,12.9,18.6,12.9c11,0,19.9-8.9,19.9-19.9s-8.9-19.9-19.9-19.9c-8.5,0-15.8,5.4-18.6,12.9h-7v-47.1h7
	c2.8,7.5,10.1,12.9,18.6,12.9c11,0,19.9-8.9,19.9-19.9c0-11-8.9-19.9-19.9-19.9c-8.5,0-15.8,5.4-18.6,12.9h-7v-47.1h7
	c2.8,7.5,10.1,12.9,18.6,12.9c11,0,19.9-8.9,19.9-19.9s-8.9-19.9-19.9-19.9c-8.5,0-15.8,5.4-18.6,12.9h-7V57.7h7
	c2.8,7.5,10.1,12.9,18.6,12.9c11,0,19.9-8.9,19.9-19.9s-8.9-19.9-19.9-19.9c-8.5,0-15.8,5.4-18.6,12.9h-7V25.1
	c0-6.1,5-11.1,11.1-11.1h241.3c16.1,0,29.1,13.1,29.1,29.1l0,320.9c-0.1,16-13.1,29-29.1,29h-219l0,0h-22.3c-4,0-7.7,0.9-11.1,2.6
	V363h7c2.8,7.5,10.1,12.9,18.6,12.9c11,0,19.9-8.9,19.9-19.9c0-11-8.9-19.9-19.9-19.9c-8.5,0-15.8,5.4-18.6,12.9h-7L91.9,302
	L91.9,302z M117.5,300.9c-3.3,0-5.9-2.7-5.9-5.9s2.7-5.9,5.9-5.9s5.9,2.7,5.9,5.9S120.8,300.9,117.5,300.9z M117.5,239.8
	c-3.3,0-5.9-2.7-5.9-5.9s2.7-5.9,5.9-5.9s5.9,2.7,5.9,5.9S120.8,239.8,117.5,239.8z M117.5,178.8c-3.3,0-5.9-2.7-5.9-5.9
	s2.7-5.9,5.9-5.9s5.9,2.7,5.9,5.9S120.8,178.8,117.5,178.8z M117.5,117.7c-3.3,0-5.9-2.7-5.9-5.9s2.7-5.9,5.9-5.9s5.9,2.7,5.9,5.9
	S120.8,117.7,117.5,117.7z M117.5,56.6c-3.3,0-5.9-2.7-5.9-5.9s2.7-5.9,5.9-5.9s5.9,2.7,5.9,5.9S120.8,56.6,117.5,56.6z
	 M117.5,361.9c-3.3,0-5.9-2.7-5.9-5.9s2.7-5.9,5.9-5.9s5.9,2.7,5.9,5.9S120.8,361.9,117.5,361.9z M73.7,370.8
	c-2.2,0-3.9-1.8-3.9-3.9c0-1.3,0.6-2.2,1.2-2.8c0.7-0.7,1.7-1.1,2.7-1.1h4.2v7.8H73.7z M344.2,429.1H102.9c-6.1,0-11.1-5-11.1-11.1
	s5-11.1,11.1-11.1h2.9l0,0h238.4c11.2,0,21.4-4.3,29.1-11.3v4.3C373.3,416,360.3,429.1,344.2,429.1z"/>
</svg>
