<?xml version="1.0" encoding="utf-8"?>
<!-- Generator: Adobe Illustrator 24.0.0, SVG Export Plug-In . SVG Version: 6.00 Build 0)  -->
<svg version="1.1" id="Capa_1" xmlns="http://www.w3.org/2000/svg" xmlns:xlink="http://www.w3.org/1999/xlink" x="0px" y="0px"
	 viewBox="0 0 451.2 451.2" style="enable-background:new 0 0 451.2 451.2;" xml:space="preserve">
<style type="text/css">
	.st0{fill:#FFFFFF;}
</style>
<g>
	<path class="st0" d="M317,196.4V53.7c0-16.5-13.5-30-30-30H30c-16.5,0-30,13.5-30,30v142.7c0,16.5,13.5,30,30,30h257
		C303.5,226.4,317,212.9,317,196.4z M20,196.4V53.7c0-5.5,4.5-10,10-10h257c5.5,0,10,4.5,10,10v142.7c0,5.5-4.5,10-10,10H30
		C24.5,206.4,20,201.9,20,196.4z"/>
	<path class="st0" d="M447.2,254.1l-71.4-123.6c-8.6-14.8-23.1-21.3-33.8-15.1l-10.1,5.8c-4.8,2.8-6.4,8.9-3.7,13.7
		c2.8,4.8,8.9,6.4,13.7,3.7l9.2-5.3c1.4,0.5,4.6,2.6,7.3,7.3l30.2,52.3l-52.5,30.3c-4.8,2.8-6.4,8.9-3.7,13.7c1.9,3.2,5.2,5,8.7,5
		c1.7,0,3.4-0.4,5-1.3l52.5-30.3l8.9,15.5L167.8,364.1l-8.9-15.5l157.8-91.1c4.8-2.8,6.4-8.9,3.7-13.7s-8.9-6.4-13.7-3.7
		l-157.8,91.1L118.7,279c-1.3-2.3-1.7-5-1-7.6c0.7-2.6,2.3-4.8,4.6-6.1l17.8-10.3c4.8-2.8,6.4-8.9,3.7-13.7
		c-2.8-4.8-8.9-6.4-13.7-3.7L112.3,248c-6.9,4-11.9,10.5-14,18.2c-2.1,7.8-1,15.8,3,22.8l35.2,61c0,0,0,0,0,0l0,0l18.9,32.8
		c0,0,0,0,0,0c0,0,0,0,0,0l17.2,29.8c4,6.9,10.5,11.9,18.2,14c2.6,0.7,5.2,1,7.8,1c5.2,0,10.3-1.4,14.9-4L436.2,295
		C450.6,286.8,455.5,268.4,447.2,254.1z M430.9,271.6c-0.7,2.6-2.3,4.8-4.6,6.1L203.7,406.2c-2.3,1.3-5,1.7-7.6,1
		c-2.6-0.7-4.8-2.3-6.1-4.6l-12.2-21.1l239.9-138.5l12.2,21.1C431.2,266.4,431.6,269,430.9,271.6z"/>
	<path class="st0" d="M267,166.4h-49.6c-5.5,0-10,4.5-10,10s4.5,10,10,10H267c5.5,0,10-4.5,10-10S272.5,166.4,267,166.4z"/>
	<path class="st0" d="M183.3,166.4h-49.6c-5.5,0-10,4.5-10,10s4.5,10,10,10h49.6c5.5,0,10-4.5,10-10S188.8,166.4,183.3,166.4z"/>
	<path class="st0" d="M99.6,166.4H50c-5.5,0-10,4.5-10,10s4.5,10,10,10h49.6c5.5,0,10-4.5,10-10S105.1,166.4,99.6,166.4z"/>
	<path class="st0" d="M92.7,63.7H70c-16.5,0-30,13.5-30,30v22.7c0,16.5,13.5,30,30,30h22.7c16.5,0,30-13.5,30-30V93.7
		C122.7,77.1,109.2,63.7,92.7,63.7z M102.7,116.4c0,5.5-4.5,10-10,10H70c-5.5,0-10-4.5-10-10V93.7c0-5.5,4.5-10,10-10h22.7
		c5.5,0,10,4.5,10,10V116.4z"/>
</g>
</svg>
