<?xml version="1.0" encoding="iso-8859-1"?>
<!-- Generator: Adobe Illustrator 16.0.0, SVG Export Plug-In . SVG Version: 6.00 Build 0)  -->
<!DOCTYPE svg PUBLIC "-//W3C//DTD SVG 1.1//EN" "http://www.w3.org/Graphics/SVG/1.1/DTD/svg11.dtd">
<svg version="1.1" id="Capa_1" xmlns="http://www.w3.org/2000/svg" xmlns:xlink="http://www.w3.org/1999/xlink" x="0px" y="0px"
	 width="322.592px" height="322.592px" viewBox="0 0 322.592 322.592" style="enable-background:new 0 0 322.592 322.592;"
	 xml:space="preserve">
<g>
	<g fill="#2386C7">
		<path d="M16.081,94.36l27.403,53.628H21.832v144.044c0,16.849,16.076,30.56,35.835,30.56h181.19
			c19.76,0,35.833-13.711,35.833-30.56v-8.822c18.984-3.201,33.339-17.418,33.339-34.42v-48.6c0-17.002-14.354-31.219-33.339-34.415
			v-17.787H236.88l69.842-109.076L245.939,0l-78.896,123.24l2.057-34.246c11.174-4.585,19.074-15.569,19.074-28.384V16.39h-53.207
			l-5.687,9.002l-8.058-9.002H90.687V60.61c0,12.809,7.894,23.794,19.074,28.384l3.542,58.994h-3.462L68.531,67.162L14.562,32.574
			L16.081,94.36z M126.132,91.288h26.602l-3.404,56.7h-19.796L126.132,91.288z M106.893,60.61V32.59h7.095l17.534,19.591
			l12.376-19.591h28.076V60.61c0,7.986-6.497,14.478-14.479,14.478h-36.12C113.389,75.088,106.893,68.597,106.893,60.61z
			 M194.64,110.173l13.047,8.348c3.765,2.402,8.774,1.308,11.185-2.458c2.415-3.762,1.313-8.775-2.452-11.188l-13.047-8.351
			l15.768-24.622l14.112,9.039c3.765,2.402,8.774,1.308,11.19-2.458c2.415-3.763,1.308-8.775-2.458-11.188l-14.117-9.036
			l22.977-35.88l33.481,21.437l-66.683,104.171H191.37c-0.479-0.535-1.002-1.031-1.646-1.442l-13.03-8.342L194.64,110.173z
			 M258.49,173.19v102.6v16.242c0,7.784-8.985,14.359-19.633,14.359H135.464h-1.453H57.667c-10.645,0-19.636-6.575-19.636-14.359
			V164.188h13.732h9.094h9.099h29.975h9.099h5.25h3.845h4.271h8.115h10.326h7.533h2.083h6.027h3.591h4.52h42.683h9.63h9.613h31.983
			v9.002H258.49z M61.678,147.988l-6.37-12.474L34.717,95.22l23.765-12.145l33.178,64.913H61.678z M31.891,78.469l-0.388-15.794
			l13.883,8.894L31.891,78.469z M291.829,200.19v48.6c0,8.29-7.203,15.272-17.139,17.809v-84.217
			C284.626,184.918,291.829,191.9,291.829,200.19z"/>
	</g>
</g>
<g>
</g>
<g>
</g>
<g>
</g>
<g>
</g>
<g>
</g>
<g>
</g>
<g>
</g>
<g>
</g>
<g>
</g>
<g>
</g>
<g>
</g>
<g>
</g>
<g>
</g>
<g>
</g>
<g>
</g>
</svg>
