<?xml version="1.0" encoding="utf-8"?>
<!-- Generator: Adobe Illustrator 24.0.0, SVG Export Plug-In . SVG Version: 6.00 Build 0)  -->
<svg version="1.1" id="Capa_1" xmlns="http://www.w3.org/2000/svg" xmlns:xlink="http://www.w3.org/1999/xlink" x="0px" y="0px"
	 viewBox="0 0 322.6 322.6" style="enable-background:new 0 0 322.6 322.6;" xml:space="preserve">
<style type="text/css">
	.st0{fill:#FFFFFF;}
</style>
<g>
	<g>
		<path class="st0" d="M16.1,94.4L43.5,148H21.8v144c0,16.8,16.1,30.6,35.8,30.6h181.2c19.8,0,35.8-13.7,35.8-30.6v-8.8
			c19-3.2,33.3-17.4,33.3-34.4v-48.6c0-17-14.4-31.2-33.3-34.4V148h-37.8l69.8-109.1L245.9,0L167,123.2l2.1-34.2
			c11.2-4.6,19.1-15.6,19.1-28.4V16.4H135l-5.7,9l-8.1-9H90.7v44.2c0,12.8,7.9,23.8,19.1,28.4l3.5,59h-3.5L68.5,67.2l-54-34.6
			L16.1,94.4z M126.1,91.3h26.6l-3.4,56.7h-19.8L126.1,91.3z M106.9,60.6v-28h7.1l17.5,19.6l12.4-19.6H172v28
			c0,8-6.5,14.5-14.5,14.5h-36.1C113.4,75.1,106.9,68.6,106.9,60.6z M194.6,110.2l13,8.3c3.8,2.4,8.8,1.3,11.2-2.5
			c2.4-3.8,1.3-8.8-2.5-11.2l-13-8.4l15.8-24.6l14.1,9c3.8,2.4,8.8,1.3,11.2-2.5c2.4-3.8,1.3-8.8-2.5-11.2l-14.1-9l23-35.9
			l33.5,21.4L217.6,148h-26.3c-0.5-0.5-1-1-1.6-1.4l-13-8.3L194.6,110.2z M258.5,173.2v102.6V292c0,7.8-9,14.4-19.6,14.4H135.5H134
			H57.7C47,306.4,38,299.8,38,292V164.2h13.7h9.1H70h30h9.1h5.3h3.8h4.3h8.1h10.3h7.5h2.1h6h3.6h4.5h42.7h9.6h9.6h32L258.5,173.2
			L258.5,173.2z M61.7,148l-6.4-12.5L34.7,95.2l23.8-12.1L91.7,148H61.7z M31.9,78.5l-0.4-15.8l13.9,8.9L31.9,78.5z M291.8,200.2
			v48.6c0,8.3-7.2,15.3-17.1,17.8v-84.2C284.6,184.9,291.8,191.9,291.8,200.2z"/>
	</g>
</g>
</svg>
