<?xml version="1.0" encoding="iso-8859-1"?>
<!-- Generator: Adobe Illustrator 16.0.0, SVG Export Plug-In . SVG Version: 6.00 Build 0)  -->
<!DOCTYPE svg PUBLIC "-//W3C//DTD SVG 1.1//EN" "http://www.w3.org/Graphics/SVG/1.1/DTD/svg11.dtd">
<svg version="1.1" id="Capa_1" xmlns="http://www.w3.org/2000/svg" xmlns:xlink="http://www.w3.org/1999/xlink" x="0px" y="0px"
	 width="68.694px" height="68.694px" viewBox="0 0 68.694 68.694" style="enable-background:new 0 0 68.694 68.694;"
	 xml:space="preserve">
<g fill="#2386C7">
	<path d="M28.042,38.046l11.603-12.457l1.026,0.963L29.071,39.004L28.042,38.046z M46.769,20.004l-2.511-2.345l-5.525,5.931
		l2.519,2.345L46.769,20.004z M39.188,25.164l-1.03-0.952l-11.601,12.45l1.025,0.958L39.188,25.164z M56.304,2.102v64.492
		c0,1.156-0.942,2.101-2.101,2.101h-39.71c-1.161,0-2.102-0.944-2.102-2.101V2.102c0-1.16,0.941-2.102,2.102-2.102h39.71
		C55.361-0.002,56.304,0.942,56.304,2.102z M28.536,3.787c0,0.283,0.219,0.515,0.488,0.515H39.67c0.27,0,0.49-0.232,0.49-0.515
		c0-0.285-0.221-0.517-0.49-0.517H29.024C28.753,3.27,28.536,3.499,28.536,3.787z M37.214,63.727c0-1.364-1.112-2.479-2.477-2.479
		c-1.366,0-2.476,1.115-2.476,2.479c0,1.368,1.11,2.479,2.476,2.479C36.102,66.206,37.214,65.095,37.214,63.727z M52.1,7.029H23.292
		v7.304l-2.273-1.908l-2.273,1.908V7.029h-2.151v51.325H52.1V7.029L52.1,7.029z M21.781,42.091v1.843h25.114v-1.843H24.569
		l2.128-0.541l1.798-1.935l-2.516-2.34l-1.799,1.93l-0.528,2.886H21.781L21.781,42.091z M21.781,51.037h25.114v-1.848H21.781V51.037
		z"/>
</g>
<g>
</g>
<g>
</g>
<g>
</g>
<g>
</g>
<g>
</g>
<g>
</g>
<g>
</g>
<g>
</g>
<g>
</g>
<g>
</g>
<g>
</g>
<g>
</g>
<g>
</g>
<g>
</g>
<g>
</g>
</svg>
