<?xml version="1.0" encoding="utf-8"?>
<!-- Generator: Adobe Illustrator 24.0.0, SVG Export Plug-In . SVG Version: 6.00 Build 0)  -->
<svg version="1.1" id="Capa_1" xmlns="http://www.w3.org/2000/svg" xmlns:xlink="http://www.w3.org/1999/xlink" x="0px" y="0px"
	 viewBox="0 0 68.7 68.7" style="enable-background:new 0 0 68.7 68.7;" xml:space="preserve">
<style type="text/css">
	.st0{fill:#FFFFFF;}
</style>
<g>
	<path class="st0" d="M28,38l11.6-12.5l1,1L29.1,39L28,38z M46.8,20l-2.5-2.3l-5.5,5.9l2.5,2.3L46.8,20z M39.2,25.2l-1-1L26.6,36.7
		l1,1L39.2,25.2z M56.3,2.1v64.5c0,1.2-0.9,2.1-2.1,2.1H14.5c-1.2,0-2.1-0.9-2.1-2.1V2.1c0-1.2,0.9-2.1,2.1-2.1h39.7
		C55.4,0,56.3,0.9,56.3,2.1z M28.5,3.8c0,0.3,0.2,0.5,0.5,0.5h10.6c0.3,0,0.5-0.2,0.5-0.5c0-0.3-0.2-0.5-0.5-0.5H29
		C28.8,3.3,28.5,3.5,28.5,3.8z M37.2,63.7c0-1.4-1.1-2.5-2.5-2.5c-1.4,0-2.5,1.1-2.5,2.5c0,1.4,1.1,2.5,2.5,2.5
		C36.1,66.2,37.2,65.1,37.2,63.7z M52.1,7H23.3v7.3L21,12.4l-2.3,1.9V7h-2.2v51.3h35.5V7L52.1,7z M21.8,42.1v1.8h25.1v-1.8H24.6
		l2.1-0.5l1.8-1.9L26,37.3l-1.8,1.9l-0.5,2.9H21.8L21.8,42.1z M21.8,51h25.1v-1.8H21.8V51z"/>
</g>
</svg>
