<?xml version="1.0" encoding="utf-8"?>
<!-- Generator: Adobe Illustrator 24.0.0, SVG Export Plug-In . SVG Version: 6.00 Build 0)  -->
<svg version="1.1" id="Capa_1" xmlns="http://www.w3.org/2000/svg" xmlns:xlink="http://www.w3.org/1999/xlink" x="0px" y="0px"
	 viewBox="0 0 443 443" style="enable-background:new 0 0 443 443;" xml:space="preserve">
<style type="text/css">
	.st0{fill:#FFFFFF;}
</style>
<g>
	<path class="st0" d="M365,208.9c-17.6-17.6-44.9-19.5-64.7-5.9c-19.8-13.6-47.1-11.7-64.7,5.9c-19.8,19.8-19.8,52,0,71.8l57.6,57.6
		c2,2,4.5,2.9,7.1,2.9s5.1-1,7.1-2.9l57.6-57.6c9.6-9.6,14.9-22.3,14.9-35.9C379.8,231.2,374.5,218.5,365,208.9z M350.8,266.5
		l-50.6,50.6l-50.6-50.6c-5.8-5.8-9-13.5-9-21.8s3.2-15.9,9-21.7c6-6,13.9-9,21.7-9s15.8,3,21.7,9c3.9,3.9,10.2,3.9,14.1,0
		c12-12,31.5-12,43.5,0c5.8,5.8,9,13.5,9,21.7C359.8,253,356.6,260.7,350.8,266.5z"/>
	<path class="st0" d="M382.8,87H263V37.7C263,16.9,246.1,0,225.3,0H60.2C39.4,0,22.5,16.9,22.5,37.7v280.6
		c0,20.8,16.9,37.7,37.7,37.7H180v49.3c0,20.8,16.9,37.7,37.7,37.7h165.1c20.8,0,37.7-16.9,37.7-37.7V124.7
		C420.5,103.9,403.6,87,382.8,87z M400.5,124.7v14.8H200v-14.8c0-9.8,7.9-17.7,17.7-17.7h165.1C392.5,107,400.5,114.9,400.5,124.7z
		 M180,233.7c-11.4,9.2-25.6,14.2-40.3,14.2c-35.6,0-64.5-28.9-64.5-64.5s28.9-64.5,64.5-64.5c14.7,0,28.9,5,40.3,14.2V233.7z
		 M200,159.5h200.5v214H200V159.5z M217.7,87c-15.8,0-29.4,9.8-35,23.7c-12.9-7.7-27.7-11.8-43-11.8c-46.6,0-84.5,37.9-84.5,84.5
		s37.9,84.5,84.5,84.5c14.2,0,28-3.6,40.3-10.2v28.8H42.5v-214H243V87H217.7z M60.2,20h165.1c9.8,0,17.7,7.9,17.7,17.7v14.8H42.5
		V37.7C42.5,27.9,50.4,20,60.2,20z M60.2,336c-9.8,0-17.7-7.9-17.7-17.7v-11.8H180V336H60.2z M382.8,423H217.7
		c-9.8,0-17.7-7.9-17.7-17.7v-11.8h200.5v11.8C400.5,415,392.5,423,382.8,423z"/>
	<path class="st0" d="M123.8,175.1c1.9-1.9,2.9-4.4,2.9-7.1s-1.1-5.2-2.9-7.1s-4.4-2.9-7.1-2.9s-5.2,1.1-7.1,2.9s-2.9,4.4-2.9,7.1
		s1.1,5.2,2.9,7.1s4.4,2.9,7.1,2.9S121.9,176.9,123.8,175.1z"/>
	<path class="st0" d="M162.7,178c2.6,0,5.2-1.1,7.1-2.9c1.9-1.9,2.9-4.4,2.9-7.1s-1.1-5.2-2.9-7.1c-1.9-1.9-4.4-2.9-7.1-2.9
		c-2.6,0-5.2,1.1-7.1,2.9s-2.9,4.4-2.9,7.1s1.1,5.2,2.9,7.1C157.5,176.9,160.1,178,162.7,178z"/>
	<path class="st0" d="M127,201.7c-3.1-3.1-8.2-3.1-11.3,0c-3.1,3.1-3.1,8.2,0,11.3c6.4,6.4,15,10,24,10c9.1,0,17.6-3.5,24-10
		c3.1-3.1,3.1-8.2,0-11.3c-3.1-3.1-8.2-3.1-11.3,0c-3.4,3.4-7.9,5.3-12.7,5.3C134.9,207,130.4,205.1,127,201.7z"/>
</g>
</svg>
