<?xml version="1.0" encoding="utf-8"?>
<!-- Generator: Adobe Illustrator 24.0.0, SVG Export Plug-In . SVG Version: 6.00 Build 0)  -->
<svg version="1.1" id="Layer_1" xmlns="http://www.w3.org/2000/svg" xmlns:xlink="http://www.w3.org/1999/xlink" x="0px" y="0px"
	 viewBox="0 0 470 470" style="enable-background:new 0 0 470 470;" xml:space="preserve">
<style type="text/css">
	.st0{fill:#FFFFFF;}
</style>
<g>
	<path class="st0" d="M462.5,22.5H7.5C3.4,22.5,0,25.9,0,30v410c0,4.1,3.4,7.5,7.5,7.5h455c4.1,0,7.5-3.4,7.5-7.5v-80
		c0-4.1-3.4-7.5-7.5-7.5s-7.5,3.4-7.5,7.5v72.5H15v-335h440V330c0,4.1,3.4,7.5,7.5,7.5s7.5-3.4,7.5-7.5V30
		C470,25.9,466.6,22.5,462.5,22.5z M15,37.5h277.5v45H15V37.5z M307.5,82.5v-45H455v45H307.5z"/>
	<path class="st0" d="M381.5,52c-4.4,0-8,3.6-8,8s3.6,8,8,8s8-3.6,8-8S385.9,52,381.5,52z"/>
	<path class="st0" d="M340.5,52c-4.4,0-8,3.6-8,8s3.6,8,8,8s8-3.6,8-8S344.9,52,340.5,52z"/>
	<path class="st0" d="M422.5,52c-4.4,0-8,3.6-8,8s3.6,8,8,8s8-3.6,8-8S426.9,52,422.5,52z"/>
	<path class="st0" d="M148.7,226c2.9-0.4,5.4-2.4,6.3-5.3l17.3-57.6c1.2-4-1.1-8.1-5-9.3c-4-1.2-8.1,1.1-9.3,5l-12.4,41.3
		l-11.9-19.9c-1.4-2.3-3.8-3.6-6.4-3.6s-5.1,1.4-6.4,3.6l-11.9,19.9l-12.4-41.3c-1.2-4-5.4-6.2-9.3-5c-4,1.2-6.2,5.4-5,9.3
		l17.3,57.6c0.9,2.8,3.3,4.9,6.3,5.3c0.3,0,0.6,0.1,0.9,0.1c2.6,0,5.1-1.4,6.4-3.6l14.2-23.8l14.2,23.8
		C142.9,224.9,145.8,226.4,148.7,226L148.7,226z"/>
	<path class="st0" d="M206.4,226c0.3,0,0.6,0.1,0.9,0.1c2.6,0,5.1-1.4,6.4-3.6l14.2-23.8l14.2,23.8c1.5,2.5,4.4,4,7.4,3.6
		c2.9-0.4,5.4-2.4,6.3-5.3l17.3-57.6c1.2-4-1.1-8.1-5-9.3c-4-1.2-8.1,1.1-9.3,5l-12.4,41.3l-11.9-19.9c-1.4-2.3-3.8-3.6-6.4-3.6
		s-5.1,1.4-6.4,3.6l-11.9,19.9l-12.4-41.3c-1.2-4-5.4-6.2-9.3-5c-4,1.2-6.2,5.4-5,9.3l17.3,57.6C201,223.5,203.4,225.6,206.4,226z"
		/>
	<path class="st0" d="M368.9,153.8c-4-1.2-8.1,1.1-9.3,5l-12.4,41.3l-11.9-19.9c-1.4-2.3-3.8-3.6-6.4-3.6s-5.1,1.4-6.4,3.6
		l-11.9,19.9l-12.4-41.3c-1.2-4-5.4-6.2-9.3-5c-4,1.2-6.2,5.4-5,9.3l17.3,57.6c0.9,2.8,3.3,4.9,6.3,5.3c2.9,0.4,5.8-1,7.4-3.6
		l14.2-23.8l14.2,23.8c1.4,2.3,3.8,3.6,6.4,3.6c0.3,0,0.6,0,0.9-0.1c2.9-0.4,5.4-2.4,6.3-5.3l17.3-57.6
		C375.1,159.1,372.8,154.9,368.9,153.8z"/>
	<path class="st0" d="M136.7,268.5c0-4.1-3.4-7.5-7.5-7.5h-40c-4.1,0-7.5,3.4-7.5,7.5v40c0,4.1,3.4,7.5,7.5,7.5h40
		c4.1,0,7.5-3.4,7.5-7.5V268.5z M121.7,301h-25v-25h25V301z"/>
	<path class="st0" d="M129.2,331h-40c-4.1,0-7.5,3.4-7.5,7.5v40c0,4.1,3.4,7.5,7.5,7.5h40c4.1,0,7.5-3.4,7.5-7.5v-40
		C136.7,334.4,133.3,331,129.2,331z M121.7,371h-25v-25h25V371z"/>
	<path class="st0" d="M366.7,281h-30c-4.1,0-7.5,3.4-7.5,7.5s3.4,7.5,7.5,7.5h30c4.1,0,7.5-3.4,7.5-7.5S370.9,281,366.7,281z"/>
	<path class="st0" d="M306.7,281H159.2c-4.1,0-7.5,3.4-7.5,7.5s3.4,7.5,7.5,7.5h147.5c4.1,0,7.5-3.4,7.5-7.5S310.9,281,306.7,281z"
		/>
	<path class="st0" d="M366.7,351h-30c-4.1,0-7.5,3.4-7.5,7.5s3.4,7.5,7.5,7.5h30c4.1,0,7.5-3.4,7.5-7.5S370.9,351,366.7,351z"/>
	<path class="st0" d="M306.7,351H159.2c-4.1,0-7.5,3.4-7.5,7.5s3.4,7.5,7.5,7.5h147.5c4.1,0,7.5-3.4,7.5-7.5S310.9,351,306.7,351z"
		/>
</g>
</svg>
