<?xml version="1.0" encoding="utf-8"?>
<!-- Generator: Adobe Illustrator 24.0.0, SVG Export Plug-In . SVG Version: 6.00 Build 0)  -->
<svg version="1.1" id="Capa_1" xmlns="http://www.w3.org/2000/svg" xmlns:xlink="http://www.w3.org/1999/xlink" x="0px" y="0px"
	 viewBox="0 0 390 390" style="enable-background:new 0 0 390 390;" xml:space="preserve">
<g fill="#2386C7">
	<path d="M385,75h-44V50h-75v25h-36V50h-75v25h-35V50H45v25H5v260h155l0,0h70l0,0h155V75z M281,65h45v30h-45V65z M170,65h45v30h-45
		V65z M60,65h45v30H60V65z M215,320h-40v15h40V320z M370,320H230h-70H20V90h25v20h75V90h35v20h75V90h36v20h75V90h29V320z"/>
	<path d="M278,134.5c-35.2,0-64.6,25.2-71.1,58.5H160v15h45.5c0.1,4.4,0.5,8.8,1.3,13H160v15h51.6c11.2,25.6,36.8,43.5,66.4,43.5
		c40,0,72.5-32.5,72.5-72.5S318,134.5,278,134.5z M278,264.5c-21.1,0-39.6-11.5-49.6-28.5H260v-15h-37.8c-1-4.2-1.6-8.5-1.7-13H260
		v-15h-37.8c6.3-25,28.9-43.5,55.8-43.5c31.7,0,57.5,25.8,57.5,57.5S309.7,264.5,278,264.5z"/>
	<rect x="43" y="140" width="100" height="15"/>
	<rect x="74" y="254" width="100" height="15"/>
</g>
</svg>
