<?xml version="1.0" encoding="utf-8"?>
<!-- Generator: Adobe Illustrator 24.0.0, SVG Export Plug-In . SVG Version: 6.00 Build 0)  -->
<svg version="1.1" id="Capa_1" xmlns="http://www.w3.org/2000/svg" xmlns:xlink="http://www.w3.org/1999/xlink" x="0px" y="0px"
	 viewBox="0 0 490 490" style="enable-background:new 0 0 490 490;" xml:space="preserve">
<style type="text/css">
	.st0{fill:#FFFFFF;}
</style>
<g>
	<path class="st0" d="M480,43.4H10c-5.5,0-10,4.5-10,10v383.2c0,5.5,4.5,10,10,10h470c5.5,0,10-4.5,10-10V53.4
		C490,47.9,485.5,43.4,480,43.4z M470,63.4v60.2H20V63.4H470z M20,426.6v-283h450v283L20,426.6L20,426.6z"/>
	<path class="st0" d="M156.1,193.9h-80c-5.5,0-10,4.5-10,10v81c0,5.5,4.5,10,10,10h80c5.5,0,10-4.5,10-10v-81
		C166.1,198.4,161.6,193.9,156.1,193.9z M146.1,274.9h-60v-61h60V274.9z"/>
	<path class="st0" d="M204.3,294.9h80c5.5,0,10-4.5,10-10v-81c0-5.5-4.5-10-10-10h-80c-5.5,0-10,4.5-10,10v81
		C194.3,290.5,198.8,294.9,204.3,294.9z M214.3,213.9h60v61h-60V213.9z"/>
	<path class="st0" d="M332.5,294.9h80c5.5,0,10-4.5,10-10v-81c0-5.5-4.5-10-10-10h-80c-5.5,0-10,4.5-10,10v81
		C322.5,290.5,326.9,294.9,332.5,294.9z M342.5,213.9h60v61h-60V213.9z"/>
	<path class="st0" d="M156.1,320.3h-80c-5.5,0-10,4.5-10,10s4.5,10,10,10h80c5.5,0,10-4.5,10-10
		C166.1,324.8,161.6,320.3,156.1,320.3z"/>
	<path class="st0" d="M156.1,357.3h-80c-5.5,0-10,4.5-10,10s4.5,10,10,10h80c5.5,0,10-4.5,10-10
		C166.1,361.8,161.6,357.3,156.1,357.3z"/>
	<path class="st0" d="M285,320.3h-80c-5.5,0-10,4.5-10,10s4.5,10,10,10h80c5.5,0,10-4.5,10-10C295,324.8,290.5,320.3,285,320.3z"/>
	<path class="st0" d="M285,357.3h-80c-5.5,0-10,4.5-10,10s4.5,10,10,10h80c5.5,0,10-4.5,10-10C295,361.8,290.5,357.3,285,357.3z"/>
	<path class="st0" d="M413.9,320.3h-80c-5.5,0-10,4.5-10,10s4.5,10,10,10h80c5.5,0,10-4.5,10-10
		C423.9,324.8,419.4,320.3,413.9,320.3z"/>
	<path class="st0" d="M413.9,357.3h-80c-5.5,0-10,4.5-10,10s4.5,10,10,10h80c5.5,0,10-4.5,10-10
		C423.9,361.8,419.4,357.3,413.9,357.3z"/>
	<path class="st0" d="M76.1,103.3h4.9c5.5,0,10-4.5,10-10s-4.5-10-10-10h-4.9c-5.5,0-10,4.5-10,10C66.1,98.8,70.6,103.3,76.1,103.3z
		"/>
	<path class="st0" d="M117.6,103.3h4.9c5.5,0,10-4.5,10-10s-4.5-10-10-10h-4.9c-5.5,0-10,4.5-10,10
		C107.6,98.8,112.1,103.3,117.6,103.3z"/>
	<path class="st0" d="M159,103.3h4.9c5.5,0,10-4.5,10-10s-4.5-10-10-10H159c-5.5,0-10,4.5-10,10C149,98.8,153.5,103.3,159,103.3z"/>
</g>
</svg>
