<?xml version="1.0" encoding="utf-8"?>
<!-- Generator: Adobe Illustrator 24.0.0, SVG Export Plug-In . SVG Version: 6.00 Build 0)  -->
<svg version="1.1" id="Capa_1" xmlns="http://www.w3.org/2000/svg" xmlns:xlink="http://www.w3.org/1999/xlink" x="0px" y="0px"
	 viewBox="0 0 399.7 399.7" style="enable-background:new 0 0 399.7 399.7;" xml:space="preserve">
<style type="text/css">
	.st0{fill:#FFFFFF;}
</style>
<g>
	<path class="st0" d="M393.7,131.3l-29.5-29.5c0,0,0,0,0,0s0,0,0,0l-29.5-29.5c-2.3-2.3-5.5-3.7-8.8-3.7s-6.5,1.3-8.8,3.7
		l-14.6,14.6V12.5c0-6.9-5.6-12.5-12.5-12.5h-275C7.9,0,2.3,5.6,2.3,12.5v374.7c0,6.9,5.6,12.5,12.5,12.5h275
		c6.9,0,12.5-5.6,12.5-12.5V240.3l91.3-91.3C398.6,144.1,398.6,136.2,393.7,131.3z M277.4,374.7h-250V25h250v86.8L174.1,215.1
		c-1.7,1.7-2.9,3.9-3.4,6.3l-15.4,74.4c-0.9,4.1,0.4,8.4,3.4,11.4c2.4,2.4,5.6,3.7,8.8,3.7c0.8,0,1.7-0.1,2.5-0.3l74.4-15.4
		c2.4-0.5,4.6-1.7,6.3-3.4l26.6-26.6L277.4,374.7L277.4,374.7z M190.5,249.2l26.3,26.3l-33.1,6.8L190.5,249.2z M242,265.3L200.6,224
		L325.8,98.8l11.8,11.8L261.3,187c-4.9,4.9-4.9,12.8,0,17.7c2.4,2.4,5.6,3.7,8.8,3.7s6.4-1.2,8.8-3.7l76.4-76.4l11.8,11.8L242,265.3
		z"/>
</g>
</svg>
