<?xml version="1.0" encoding="iso-8859-1"?>
<!-- Generator: Adobe Illustrator 18.0.0, SVG Export Plug-In . SVG Version: 6.00 Build 0)  -->
<!DOCTYPE svg PUBLIC "-//W3C//DTD SVG 1.1//EN" "http://www.w3.org/Graphics/SVG/1.1/DTD/svg11.dtd">
<svg version="1.1" id="Capa_1" xmlns="http://www.w3.org/2000/svg" xmlns:xlink="http://www.w3.org/1999/xlink" x="0px" y="0px"
	 viewBox="0 0 297 297" style="enable-background:new 0 0 297 297;" xml:space="preserve">
<g>
	<path style="fill:#2386C7;" d="M286.966,43.271H10.034C4.493,43.271,0,47.763,0,53.304v190.391c0,5.541,4.493,10.034,10.034,10.034h276.932
		c5.541,0,10.034-4.493,10.034-10.034V53.304C297,47.763,292.507,43.271,286.966,43.271z M276.932,233.662H158.292
		c-0.408-1.863-1.337-3.604-2.701-4.962c-1.866-1.867-4.445-2.94-7.093-2.94c-2.639,0-5.228,1.073-7.094,2.94
		c-1.358,1.358-2.289,3.099-2.699,4.962H20.068V63.338h118.636c0.411,1.863,1.341,3.604,2.699,4.961
		c1.867,1.867,4.455,2.941,7.094,2.941c2.639,0,5.228-1.074,7.093-2.941c1.365-1.357,2.293-3.098,2.701-4.961h118.641V233.662z"/>
	<path style="fill:#2386C7;" d="M85.292,84.825c0.007-1.413-0.001-2.318-0.006-2.636c-0.048-3.844-3.178-6.935-7.023-6.935s-6.975,3.091-7.023,6.935
		c-0.005,0.323-0.014,1.253-0.006,2.711c-0.136,14.932-2.28,91.71-31.385,125.217c-2.545,2.929-2.232,7.365,0.696,9.908
		c2.929,2.544,7.365,2.231,9.908-0.696c5.374-6.187,14.212-22.185,14.398-22.523c2.693-4.898,7.832-7.941,13.411-7.941
		c5.579,0,10.719,3.042,13.411,7.941c0.186,0.338,9.023,16.336,14.398,22.523c1.388,1.599,3.341,2.417,5.305,2.417
		c1.632,0,3.274-0.566,4.603-1.722c2.928-2.544,3.24-6.98,0.696-9.908C87.558,176.595,85.428,99.58,85.292,84.825z M78.264,174.818
		c-1.854,0-3.68,0.186-5.463,0.524c2.174-7.103,3.979-14.373,5.463-21.572c1.484,7.199,3.289,14.469,5.463,21.572
		C81.943,175.005,80.118,174.818,78.264,174.818z"/>
	<path style="fill:#2386C7;" d="M148.497,80.27c-5.539,0-10.034,4.495-10.034,10.034c0,5.538,4.495,10.034,10.034,10.034
		c5.548,0,10.034-4.496,10.034-10.034C158.531,84.765,154.045,80.27,148.497,80.27z"/>
	<path style="fill:#2386C7;" d="M148.497,138.466c-5.539,0-10.034,4.495-10.034,10.034c0,5.538,4.495,10.034,10.034,10.034
		c5.548,0,10.034-4.496,10.034-10.034C158.531,142.961,154.045,138.466,148.497,138.466z"/>
	<path style="fill:#2386C7;" d="M148.497,109.368c-5.539,0-10.034,4.495-10.034,10.034c0,5.538,4.495,10.034,10.034,10.034
		c5.548,0,10.034-4.496,10.034-10.034C158.531,113.863,154.045,109.368,148.497,109.368z"/>
	<path style="fill:#2386C7;" d="M148.497,196.662c-5.539,0-10.034,4.495-10.034,10.034c0,5.538,4.495,10.034,10.034,10.034
		c5.548,0,10.034-4.496,10.034-10.034C158.531,201.157,154.045,196.662,148.497,196.662z"/>
	<path style="fill:#2386C7;" d="M148.497,167.564c-5.539,0-10.034,4.495-10.034,10.034c0,5.538,4.495,10.034,10.034,10.034
		c5.548,0,10.034-4.496,10.034-10.034C158.531,172.059,154.045,167.564,148.497,167.564z"/>
	<path style="fill:#2386C7;" d="M186.378,105.856h73.247c3.879,0,7.024-3.144,7.024-7.024s-3.144-7.024-7.024-7.024h-73.247
		c-3.879,0-7.024,3.144-7.024,7.024S182.498,105.856,186.378,105.856z"/>
	<path style="fill:#2386C7;" d="M186.378,138.968h73.247c3.879,0,7.024-3.144,7.024-7.024s-3.144-7.024-7.024-7.024h-73.247
		c-3.879,0-7.024,3.144-7.024,7.024S182.498,138.968,186.378,138.968z"/>
	<path style="fill:#2386C7;" d="M186.378,172.079h73.247c3.879,0,7.024-3.144,7.024-7.024s-3.144-7.024-7.024-7.024h-73.247
		c-3.879,0-7.024,3.144-7.024,7.024S182.498,172.079,186.378,172.079z"/>
	<path style="fill:#2386C7;" d="M186.378,205.191h73.247c3.879,0,7.024-3.144,7.024-7.024s-3.144-7.024-7.024-7.024h-73.247
		c-3.879,0-7.024,3.144-7.024,7.024S182.498,205.191,186.378,205.191z"/>
</g>
<g>
</g>
<g>
</g>
<g>
</g>
<g>
</g>
<g>
</g>
<g>
</g>
<g>
</g>
<g>
</g>
<g>
</g>
<g>
</g>
<g>
</g>
<g>
</g>
<g>
</g>
<g>
</g>
<g>
</g>
</svg>
