<?xml version="1.0" encoding="utf-8"?>
<!-- Generator: Adobe Illustrator 24.0.0, SVG Export Plug-In . SVG Version: 6.00 Build 0)  -->
<svg version="1.1" id="Capa_1" xmlns="http://www.w3.org/2000/svg" xmlns:xlink="http://www.w3.org/1999/xlink" x="0px" y="0px"
	 viewBox="0 0 297 297" style="enable-background:new 0 0 297 297;" xml:space="preserve">
<style type="text/css">
	.st0{fill:#FFFFFF;}
</style>
<g>
	<path class="st0" d="M287,43.3H10c-5.5,0-10,4.5-10,10v190.4c0,5.5,4.5,10,10,10H287c5.5,0,10-4.5,10-10V53.3
		C297,47.8,292.5,43.3,287,43.3z M276.9,233.7H158.3c-0.4-1.9-1.3-3.6-2.7-5c-1.9-1.9-4.4-2.9-7.1-2.9c-2.6,0-5.2,1.1-7.1,2.9
		c-1.4,1.4-2.3,3.1-2.7,5H20.1V63.3h118.6c0.4,1.9,1.3,3.6,2.7,5c1.9,1.9,4.5,2.9,7.1,2.9c2.6,0,5.2-1.1,7.1-2.9
		c1.4-1.4,2.3-3.1,2.7-5h118.6V233.7z"/>
	<path class="st0" d="M85.3,84.8c0-1.4,0-2.3,0-2.6c0-3.8-3.2-6.9-7-6.9s-7,3.1-7,6.9c0,0.3,0,1.3,0,2.7
		c-0.1,14.9-2.3,91.7-31.4,125.2c-2.5,2.9-2.2,7.4,0.7,9.9c2.9,2.5,7.4,2.2,9.9-0.7c5.4-6.2,14.2-22.2,14.4-22.5
		c2.7-4.9,7.8-7.9,13.4-7.9s10.7,3,13.4,7.9c0.2,0.3,9,16.3,14.4,22.5c1.4,1.6,3.3,2.4,5.3,2.4c1.6,0,3.3-0.6,4.6-1.7
		c2.9-2.5,3.2-7,0.7-9.9C87.6,176.6,85.4,99.6,85.3,84.8z M78.3,174.8c-1.9,0-3.7,0.2-5.5,0.5c2.2-7.1,4-14.4,5.5-21.6
		c1.5,7.2,3.3,14.5,5.5,21.6C81.9,175,80.1,174.8,78.3,174.8z"/>
	<path class="st0" d="M148.5,80.3c-5.5,0-10,4.5-10,10c0,5.5,4.5,10,10,10c5.5,0,10-4.5,10-10C158.5,84.8,154,80.3,148.5,80.3z"/>
	<path class="st0" d="M148.5,138.5c-5.5,0-10,4.5-10,10c0,5.5,4.5,10,10,10c5.5,0,10-4.5,10-10C158.5,143,154,138.5,148.5,138.5z"/>
	<path class="st0" d="M148.5,109.4c-5.5,0-10,4.5-10,10c0,5.5,4.5,10,10,10c5.5,0,10-4.5,10-10C158.5,113.9,154,109.4,148.5,109.4z"
		/>
	<path class="st0" d="M148.5,196.7c-5.5,0-10,4.5-10,10c0,5.5,4.5,10,10,10c5.5,0,10-4.5,10-10C158.5,201.2,154,196.7,148.5,196.7z"
		/>
	<path class="st0" d="M148.5,167.6c-5.5,0-10,4.5-10,10c0,5.5,4.5,10,10,10c5.5,0,10-4.5,10-10C158.5,172.1,154,167.6,148.5,167.6z"
		/>
	<path class="st0" d="M186.4,105.9h73.2c3.9,0,7-3.1,7-7s-3.1-7-7-7h-73.2c-3.9,0-7,3.1-7,7S182.5,105.9,186.4,105.9z"/>
	<path class="st0" d="M186.4,139h73.2c3.9,0,7-3.1,7-7s-3.1-7-7-7h-73.2c-3.9,0-7,3.1-7,7S182.5,139,186.4,139z"/>
	<path class="st0" d="M186.4,172.1h73.2c3.9,0,7-3.1,7-7s-3.1-7-7-7h-73.2c-3.9,0-7,3.1-7,7S182.5,172.1,186.4,172.1z"/>
	<path class="st0" d="M186.4,205.2h73.2c3.9,0,7-3.1,7-7s-3.1-7-7-7h-73.2c-3.9,0-7,3.1-7,7S182.5,205.2,186.4,205.2z"/>
</g>
</svg>
