<?xml version="1.0" encoding="utf-8"?>
<!-- Generator: Adobe Illustrator 24.0.0, SVG Export Plug-In . SVG Version: 6.00 Build 0)  -->
<svg version="1.1" id="Layer_1" xmlns="http://www.w3.org/2000/svg" xmlns:xlink="http://www.w3.org/1999/xlink" x="0px" y="0px"
	 viewBox="0 0 470 470" style="enable-background:new 0 0 470 470;" xml:space="preserve">
<g>
	<g fill="#2386C7">
		<path d="M235,100c-28.8,0-52.2,23.4-52.2,52.2s23.4,52.2,52.2,52.2c28.8,0,52.2-23.4,52.2-52.2S263.8,100,235,100z M235,189.4
			c-20.5,0-37.2-16.7-37.2-37.2S214.5,115,235,115c20.5,0,37.2,16.7,37.2,37.2S255.5,189.4,235,189.4z"/>
		<path d="M462.5,30H460v-7.5C460,10.1,449.9,0,437.5,0S415,10.1,415,22.5V30H107.5c-4.1,0-7.5,3.4-7.5,7.5s3.4,7.5,7.5,7.5H455v295
			H15V45h62.5c4.1,0,7.5-3.4,7.5-7.5S81.6,30,77.5,30H55v-7.5C55,10.1,44.9,0,32.5,0S10,10.1,10,22.5V30H7.5C3.4,30,0,33.4,0,37.5
			v310c0,4.1,3.4,7.5,7.5,7.5H10v92.5c0,12.4,10.1,22.5,22.5,22.5S55,459.9,55,447.5V355h360v92.5c0,12.4,10.1,22.5,22.5,22.5
			s22.5-10.1,22.5-22.5V355h2.5c4.1,0,7.5-3.4,7.5-7.5v-310C470,33.4,466.6,30,462.5,30z M430,22.5c0-4.1,3.4-7.5,7.5-7.5
			s7.5,3.4,7.5,7.5V30h-15V22.5z M25,22.5c0-4.1,3.4-7.5,7.5-7.5s7.5,3.4,7.5,7.5V30H25V22.5z M40,447.5c0,4.1-3.4,7.5-7.5,7.5
			s-7.5-3.4-7.5-7.5V355h15V447.5z M445,447.5c0,4.1-3.4,7.5-7.5,7.5s-7.5-3.4-7.5-7.5V355h15V447.5z"/>
		<path d="M40,67.5v250c0,4.1,3.4,7.5,7.5,7.5s7.5-3.4,7.5-7.5v-250c0-4.1-3.4-7.5-7.5-7.5S40,63.4,40,67.5z"/>
		<path d="M430,317.5v-250c0-4.1-3.4-7.5-7.5-7.5s-7.5,3.4-7.5,7.5v250c0,4.1,3.4,7.5,7.5,7.5S430,321.6,430,317.5z"/>
	</g>
</g>
</svg>
