<?xml version="1.0" encoding="iso-8859-1"?>
<!-- Generator: Adobe Illustrator 16.0.0, SVG Export Plug-In . SVG Version: 6.00 Build 0)  -->
<!DOCTYPE svg PUBLIC "-//W3C//DTD SVG 1.1//EN" "http://www.w3.org/Graphics/SVG/1.1/DTD/svg11.dtd">
<svg version="1.1" id="Capa_1" xmlns="http://www.w3.org/2000/svg" xmlns:xlink="http://www.w3.org/1999/xlink" x="0px" y="0px"
	 width="68.387px" height="68.387px" viewBox="0 0 68.387 68.387" style="enable-background:new 0 0 68.387 68.387;"
	 xml:space="preserve">
<g fill="#2386C7">
	<path d="M61.847,14.207c-0.44-4.059-3.844-7.244-8.011-7.244H32.958L16.859,0.479C16.073,0.165,15.295,0,14.551,0
		c-2.802,0-4.69,2.191-4.69,5.462v3.029c-1.83,1.311-3.067,3.361-3.321,5.715c-0.972,1.475-1.544,3.231-1.544,5.128v39.708
		c0,5.16,4.184,9.344,9.343,9.344h39.709c5.16,0,9.343-4.184,9.343-9.344V19.334C63.391,17.438,62.818,15.681,61.847,14.207z
		 M11.029,7.807V5.462c0-2.609,1.382-4.294,3.522-4.294c0.596,0,1.225,0.133,1.874,0.393L29.83,6.963l2.897,1.168l0.883,0.356v0.812
		v0.692v50.124h-0.656l-16.094-6.487c-3.214-1.296-5.83-5.283-5.83-8.887V10.622V10.54V9.131V7.807z M39.038,9.994v5.447
		l2.272-1.911l2.271,1.911V9.994v-0.69H53.84c1.412,0,2.681,0.53,3.68,1.37c1.264,1.062,2.083,2.627,2.083,4.398v39.277
		c0,3.18-2.58,5.769-5.763,5.769H34.78V9.994v-0.69h4.261v0.69H39.038z M30.173,24.732l-7.226-2.915V20.63l7.226,2.916V24.732z
		 M30.173,29.259l-7.226-2.915v-1.188l7.226,2.911V29.259z M30.173,33.825L15.719,28v-1.187l14.454,5.826V33.825z M30.173,38.35
		l-14.454-5.825v-1.192l14.454,5.825V38.35z M30.173,42.916L15.719,37.09v-1.186l14.454,5.826V42.916z M16.956,24.276l0.375-1.154
		l2.177,0.876l0.39,1.466l0.633,0.254l0.635,0.254l-2.026-7.239l-0.697-0.281l-0.693-0.277l-2.03,5.599l0.624,0.243L16.956,24.276z
		 M18.424,19.883v-0.004h0.002L18.424,19.883l0.762,2.882l-1.521-0.619L18.424,19.883z M50.571,38.838H41.27l-4.401-9.156
		l1.203-0.58l4.037,8.404h7.605l4.03-8.781h3.543v1.335h-2.683L50.571,38.838z M43.354,40.394c-0.858,0-1.554,0.693-1.554,1.551
		s0.695,1.551,1.554,1.551c0.855,0,1.549-0.693,1.549-1.551S44.21,40.394,43.354,40.394z M49.084,40.394
		c-0.859-0.037-1.583,0.625-1.619,1.482c-0.041,0.854,0.625,1.583,1.478,1.619c0.854,0.041,1.586-0.629,1.617-1.478
		C50.599,41.16,49.939,40.435,49.084,40.394z"/>
</g>
<g>
</g>
<g>
</g>
<g>
</g>
<g>
</g>
<g>
</g>
<g>
</g>
<g>
</g>
<g>
</g>
<g>
</g>
<g>
</g>
<g>
</g>
<g>
</g>
<g>
</g>
<g>
</g>
<g>
</g>
</svg>
