<?xml version="1.0" encoding="utf-8"?>
<!-- Generator: Adobe Illustrator 24.0.0, SVG Export Plug-In . SVG Version: 6.00 Build 0)  -->
<svg version="1.1" id="Capa_1" xmlns="http://www.w3.org/2000/svg" xmlns:xlink="http://www.w3.org/1999/xlink" x="0px" y="0px"
	 viewBox="0 0 226.7 226.7" style="enable-background:new 0 0 226.7 226.7;" xml:space="preserve">
<style type="text/css">
	.st0{fill:#FFFFFF;}
</style>
<g>
	<path class="st0" d="M197.3,24h-16.5V7.5c0-2.2-1-4.3-2.7-5.7c-1.7-1.4-3.9-2-6.1-1.7l-144,24c-3.6,0.6-6.3,3.7-6.3,7.4v187.7
		c0,4.1,3.4,7.5,7.5,7.5h168c4.1,0,7.5-3.4,7.5-7.5V31.5C204.8,27.3,201.5,24,197.3,24z M36.9,37.8l129-21.5v172.5l-129,21.5V37.8z
		 M189.8,211.7h-69.8l54.5-9.1c3.6-0.6,6.3-3.7,6.3-7.4V39h9L189.8,211.7L189.8,211.7z"/>
	<path class="st0" d="M139,50L61.5,62c-4.1,0.6-6.9,4.5-6.3,8.6c0.6,3.7,3.8,6.4,7.4,6.4c0.4,0,0.8,0,1.2-0.1l77.5-12
		c4.1-0.6,6.9-4.5,6.3-8.6C146.9,52.2,143,49.4,139,50z"/>
</g>
</svg>
