<?xml version="1.0" encoding="utf-8"?>
<!-- Generator: Adobe Illustrator 24.0.0, SVG Export Plug-In . SVG Version: 6.00 Build 0)  -->
<svg version="1.1" id="Layer_1" xmlns="http://www.w3.org/2000/svg" xmlns:xlink="http://www.w3.org/1999/xlink" x="0px" y="0px"
	 viewBox="0 0 409.2 409.2" style="enable-background:new 0 0 409.2 409.2;" xml:space="preserve">
<style type="text/css">
	.st0{fill:#FFFFFF;}
</style>
<path class="st0" d="M387.1,389.2h-14.3v-18.1h14.3c5.5,0,10-4.5,10-10c0-55.8-42.8-101.8-97.3-106.8V237c0-5.5-4.5-10-10-10
	s-10,4.5-10,10v17.3c-54.5,5.1-97.3,51-97.3,106.8c0,5.5,4.5,10,10,10h14.3v18.1h-14.3c-5.5,0-10,4.5-10,10s4.5,10,10,10h24.1
	c0.1,0,0.3,0,0.4,0h145.6c0.1,0,0.1,0,0.2,0s0.1,0,0.2,0h24.1c5.5,0,10-4.5,10-10S392.6,389.2,387.1,389.2L387.1,389.2z
	 M352.7,389.2h-126v-18.1h126V389.2z M203,351.1c5-43.4,42-77.3,86.7-77.3s81.8,33.9,86.7,77.3H203z M131.6,97.3
	c-29.4,0-52.4,16.8-52.4,38.3c0,21.5,23,38.3,52.4,38.3S184,157,184,135.6C184,114.1,161,97.3,131.6,97.3z M131.6,153.8
	c-19.1,0-32.4-9.6-32.4-18.3s13.3-18.3,32.4-18.3c19.1,0,32.4,9.6,32.4,18.3C164,144.2,150.7,153.8,131.6,153.8z M155.2,389.2h-123
	V68.7h198.9v166.5c0,5.5,4.5,10,10,10s10-4.5,10-10V58.7c0-5.5-4.5-10-10-10h-4.7V10c0-2.9-1.2-5.6-3.4-7.5c-2.1-1.9-5-2.8-7.8-2.5
	L21,24.4c-5,0.6-8.8,4.9-8.8,9.9v364.9c0,5.5,4.5,10,10,10h133c5.5,0,10-4.5,10-10S160.7,389.2,155.2,389.2L155.2,389.2z M32.2,43.2
	l184.2-21.9v27.4H32.2C32.2,48.7,32.2,43.2,32.2,43.2z M114.8,360.6c-5.5,0-10-4.5-10-10s4.5-10,10-10h33.7c5.5,0,10,4.5,10,10
	s-4.5,10-10,10C148.5,360.6,114.8,360.6,114.8,360.6z"/>
</svg>
