<?xml version="1.0" encoding="utf-8"?>
<!-- Generator: Adobe Illustrator 24.0.0, SVG Export Plug-In . SVG Version: 6.00 Build 0)  -->
<svg version="1.1" id="Capa_1" xmlns="http://www.w3.org/2000/svg" xmlns:xlink="http://www.w3.org/1999/xlink" x="0px" y="0px"
	 viewBox="0 0 470 470" style="enable-background:new 0 0 470 470;" xml:space="preserve">
<style type="text/css">
	.st0{fill:#FFFFFF;}
</style>
<g>
	<path class="st0" d="M88.3,440H290c4.1,0,7.5-3.4,7.5-7.5s-3.4-7.5-7.5-7.5H95.8V45h278.5v296.1c0,4.1,3.4,7.5,7.5,7.5
		s7.5-3.4,7.5-7.5V37.5c0-4.1-3.4-7.5-7.5-7.5H88.3c-4.1,0-7.5,3.4-7.5,7.5v395C80.8,436.6,84.1,440,88.3,440z"/>
	<path class="st0" d="M351.7,110.8H206.9c-4.1,0-7.5,3.4-7.5,7.5v50.5c0,4.1,3.4,7.5,7.5,7.5c4.1,0,7.5-3.4,7.5-7.5v-43h129.8v73
		c0,35.8-29.1,64.9-64.9,64.9c-2.9,0-5.9-0.2-8.7-0.6v-43.7c2.7-1.4,5.7-2.2,8.9-2.2c7.5,0,14.3,4.4,17.5,11.2
		c1.3,2.7,4,4.4,6.8,4.4c1.1,0,2.1-0.2,3.1-0.7c3.8-1.7,5.4-6.2,3.7-10c-5.6-12.1-17.8-19.9-31.1-19.9c-3,0-6,0.4-8.9,1.2v-4.6
		c0-4.1-3.4-7.5-7.5-7.5h-56.2h-88.6c-4.1,0-7.5,3.4-7.5,7.5v80.5c0,44.1,35.8,79.9,79.9,79.9s79.9-35.9,79.9-79.9v-1.1
		c2.9,0.3,5.8,0.5,8.7,0.5c44.1,0,79.9-35.9,79.9-79.9v-80.5C359.2,114.1,355.9,110.8,351.7,110.8z M255.6,215.1c0,0,0,0.1,0,0.1
		v64.1c0,35.8-29.1,64.9-64.9,64.9s-64.9-29.1-64.9-64.9v-73h129.8V215.1z"/>
	<path class="st0" d="M317.5,166c4.1,0,7.5-3.4,7.5-7.5s-3.4-7.5-7.5-7.5h-19.3c-4.1,0-7.5,3.4-7.5,7.5s3.4,7.5,7.5,7.5H317.5z"/>
	<path class="st0" d="M260.4,166c4.1,0,7.5-3.4,7.5-7.5s-3.4-7.5-7.5-7.5h-19.3c-4.1,0-7.5,3.4-7.5,7.5s3.4,7.5,7.5,7.5H260.4z"/>
	<path class="st0" d="M227.2,271.8h-73.1c-4.1,0-7.5,3.4-7.5,7.5c0,24.3,19.8,44,44,44s44-19.8,44-44
		C234.7,275.2,231.4,271.8,227.2,271.8z M190.7,308.4c-13.4,0-24.8-9.2-28.1-21.5h56.1C215.4,299.2,204.1,308.4,190.7,308.4z"/>
	<path class="st0" d="M209.6,246.6h19.3c4.1,0,7.5-3.4,7.5-7.5s-3.4-7.5-7.5-7.5h-19.3c-4.1,0-7.5,3.4-7.5,7.5
		S205.4,246.6,209.6,246.6z"/>
	<path class="st0" d="M152.5,246.6h19.3c4.1,0,7.5-3.4,7.5-7.5s-3.4-7.5-7.5-7.5h-19.3c-4.1,0-7.5,3.4-7.5,7.5
		S148.4,246.6,152.5,246.6z"/>
	<path class="st0" d="M411.7,0H58.3c-4.1,0-7.5,3.4-7.5,7.5v455c0,4.1,3.4,7.5,7.5,7.5h262.1c2,0,3.9-0.8,5.3-2.2l91.4-91.4
		c1.4-1.4,2.2-3.3,2.2-5.3V7.5C419.2,3.4,415.9,0,411.7,0z M327.8,444.4v-65.8h65.8L327.8,444.4z M404.2,363.6h-83.9
		c-4.1,0-7.5,3.4-7.5,7.5V455H65.8V15h338.5L404.2,363.6L404.2,363.6z"/>
</g>
</svg>
