<?xml version="1.0" encoding="iso-8859-1"?>
<!-- Generator: Adobe Illustrator 19.0.0, SVG Export Plug-In . SVG Version: 6.00 Build 0)  -->
<svg version="1.1" id="Capa_1" xmlns="http://www.w3.org/2000/svg" xmlns:xlink="http://www.w3.org/1999/xlink" x="0px" y="0px"
	 viewBox="0 0 470 470" style="enable-background:new 0 0 470 470;" xml:space="preserve">
<g fill="#2386C7">
	<path d="M88.264,440h201.781c4.143,0,7.5-3.357,7.5-7.5s-3.357-7.5-7.5-7.5H95.764V45h278.472v296.103c0,4.143,3.357,7.5,7.5,7.5
		s7.5-3.357,7.5-7.5V37.5c0-4.143-3.357-7.5-7.5-7.5H88.264c-4.142,0-7.5,3.357-7.5,7.5v395C80.764,436.643,84.122,440,88.264,440z"
		/>
	<path d="M351.736,110.766H206.908c-4.142,0-7.5,3.357-7.5,7.5v50.528c0,4.143,3.358,7.5,7.5,7.5c4.144-0.002,7.5-3.359,7.5-7.5
		v-43.028h129.828v73.028c0,35.794-29.12,64.914-64.914,64.914c-2.923,0-5.862-0.209-8.729-0.573v-43.733
		c2.726-1.435,5.745-2.189,8.893-2.189c7.467,0,14.322,4.395,17.467,11.194c1.268,2.741,3.979,4.354,6.813,4.354
		c1.053,0,2.124-0.224,3.143-0.694c3.76-1.738,5.398-6.195,3.66-9.955c-5.589-12.089-17.789-19.899-31.082-19.899
		c-3.047,0-6.026,0.399-8.893,1.167v-4.586c0-4.143-3.357-7.5-7.5-7.5h-56.181h-88.648c-4.142,0-7.5,3.357-7.5,7.5v80.529
		c0,44.064,35.849,79.914,79.914,79.914s79.915-35.85,79.915-79.914v-1.073c2.89,0.3,5.823,0.457,8.729,0.457
		c44.064,0,79.914-35.85,79.914-79.914v-80.528C359.236,114.123,355.878,110.766,351.736,110.766z M255.593,215.113
		c-0.001,0.047,0.001,0.093,0,0.14v64.07c0,35.794-29.121,64.914-64.915,64.914s-64.914-29.12-64.914-64.914v-73.029h129.829
		V215.113z"/>
	<path d="M317.485,166.03c4.143,0,7.5-3.357,7.5-7.5s-3.357-7.5-7.5-7.5h-19.282c-4.143,0-7.5,3.357-7.5,7.5s3.357,7.5,7.5,7.5
		H317.485z"/>
	<path d="M260.442,166.03c4.143,0,7.5-3.357,7.5-7.5s-3.357-7.5-7.5-7.5h-19.282c-4.143,0-7.5,3.357-7.5,7.5s3.357,7.5,7.5,7.5
		H260.442z"/>
	<path d="M227.227,271.823H154.13c-4.142,0-7.5,3.357-7.5,7.5c0,24.288,19.76,44.048,44.048,44.048s44.048-19.76,44.048-44.048
		C234.727,275.181,231.369,271.823,227.227,271.823z M190.678,308.371c-13.425,0-24.751-9.154-28.067-21.548h56.134
		C215.43,299.217,204.103,308.371,190.678,308.371z"/>
	<path d="M209.559,246.559h19.282c4.142,0,7.5-3.357,7.5-7.5s-3.358-7.5-7.5-7.5h-19.282c-4.142,0-7.5,3.357-7.5,7.5
		S205.417,246.559,209.559,246.559z"/>
	<path d="M152.516,246.559h19.282c4.142,0,7.5-3.357,7.5-7.5s-3.358-7.5-7.5-7.5h-19.282c-4.142,0-7.5,3.357-7.5,7.5
		S148.374,246.559,152.516,246.559z"/>
	<path d="M411.736,0H58.264c-4.142,0-7.5,3.357-7.5,7.5v455c0,4.143,3.358,7.5,7.5,7.5h262.075c1.989,0,3.896-0.79,5.304-2.196
		l91.396-91.397c1.406-1.407,2.196-3.314,2.196-5.304V7.5C419.236,3.357,415.878,0,411.736,0z M327.839,444.394v-65.791h65.79
		L327.839,444.394z M404.236,363.603h-83.896c-4.143,0-7.5,3.357-7.5,7.5V455H65.764V15h338.471V363.603z"/>
</g>
<g>
</g>
<g>
</g>
<g>
</g>
<g>
</g>
<g>
</g>
<g>
</g>
<g>
</g>
<g>
</g>
<g>
</g>
<g>
</g>
<g>
</g>
<g>
</g>
<g>
</g>
<g>
</g>
<g>
</g>
</svg>
