<?xml version="1.0" encoding="utf-8"?>
<!-- Generator: Adobe Illustrator 24.0.0, SVG Export Plug-In . SVG Version: 6.00 Build 0)  -->
<svg version="1.1" id="Layer_1" xmlns="http://www.w3.org/2000/svg" xmlns:xlink="http://www.w3.org/1999/xlink" x="0px" y="0px"
	 viewBox="0 0 297 297" style="enable-background:new 0 0 297 297;" xml:space="preserve">
<style type="text/css">
	.st0{fill:#FFFFFF;}
</style>
<g>
	<path class="st0" d="M122.3,98.5c11.3,0,20.4-9.2,20.4-20.4s-9.2-20.4-20.4-20.4s-20.4,9.2-20.4,20.4S111,98.5,122.3,98.5z
		 M122.3,71.2c3.8,0,6.9,3.1,6.9,6.9s-3.1,6.9-6.9,6.9s-6.9-3.1-6.9-6.9C115.4,74.3,118.5,71.2,122.3,71.2z"/>
	<path class="st0" d="M253.3,0H43.7c-4.8,0-8.8,3.9-8.8,8.8v279.4c0,4.8,3.9,8.8,8.8,8.8h209.6c4.8,0,8.8-3.9,8.8-8.8V8.8
		C262.1,3.9,258.1,0,253.3,0z M244.5,279.4h-192V17.6h192L244.5,279.4L244.5,279.4z"/>
	<path class="st0" d="M75.4,153.4h93.9c4.3,0,7.8-3.5,7.8-7.8V40c0-4.3-3.5-7.8-7.8-7.8H75.4c-4.3,0-7.8,3.5-7.8,7.8v105.6
		C67.6,149.9,71.1,153.4,75.4,153.4z M142.8,137.9h-12.7l9.6-26.2c1.9,1.2,3.2,3.3,3.2,5.7L142.8,137.9L142.8,137.9z M101.8,137.9
		v-20.6c0-2.4,1.2-4.5,3.2-5.7l9.6,26.2H101.8z M83.1,47.8h78.4v90.1h-5.1v-20.6c0-8.7-5.6-16.5-13.8-19.2c-0.1,0-0.1,0-0.2-0.1
		l-4.8-1.5c-3.4-1.1-7.1,0.8-8.4,4.2l-6.9,18.9l-6.9-18.9c-1.2-3.4-4.9-5.2-8.4-4.2l-4.8,1.5c-0.1,0-0.1,0-0.2,0.1
		c-8.3,2.8-13.8,10.5-13.8,19.2v20.6h-5.1C83.1,137.9,83.1,47.8,83.1,47.8z"/>
	<path class="st0" d="M218.4,174.7H74.8c-4.8,0-8.8,3.9-8.8,8.8s3.9,8.8,8.8,8.8h143.6c4.8,0,8.8-3.9,8.8-8.8
		C227.1,178.6,223.2,174.7,218.4,174.7z"/>
	<path class="st0" d="M200.9,122.3h17.5c4.8,0,8.8-3.9,8.8-8.8s-3.9-8.8-8.8-8.8h-17.5c-4.8,0-8.8,3.9-8.8,8.8
		S196.1,122.3,200.9,122.3z"/>
	<path class="st0" d="M200.9,87.4h17.5c4.8,0,8.8-3.9,8.8-8.8s-3.9-8.8-8.8-8.8h-17.5c-4.8,0-8.8,3.9-8.8,8.8S196.1,87.4,200.9,87.4
		z"/>
	<path class="st0" d="M218.4,227.1H74.8c-4.8,0-8.8,3.9-8.8,8.8s3.9,8.8,8.8,8.8h143.6c4.8,0,8.8-3.9,8.8-8.8
		S223.2,227.1,218.4,227.1z"/>
</g>
</svg>
