<?xml version='1.0' encoding='iso-8859-1'?>
<!DOCTYPE svg PUBLIC '-//W3C//DTD SVG 1.1//EN' 'http://www.w3.org/Graphics/SVG/1.1/DTD/svg11.dtd'>
<svg version="1.1" xmlns="http://www.w3.org/2000/svg" viewBox="0 0 297 297" xmlns:xlink="http://www.w3.org/1999/xlink" enable-background="new 0 0 297 297">
  <g fill="#2386C7">
    <path d="m122.302,98.467c11.261,0 20.424-9.163 20.424-20.424s-9.163-20.424-20.424-20.424-20.424,9.163-20.424,20.424 9.162,20.424 20.424,20.424zm0-27.295c3.789,0 6.871,3.082 6.871,6.871 0,3.789-3.082,6.871-6.871,6.871-3.789,0-6.871-3.082-6.871-6.871-1.42109e-14-3.79 3.082-6.871 6.871-6.871z"/>
    <path d="M253.293,0H43.707c-4.847,0-8.776,3.929-8.776,8.776v279.448c0,4.847,3.929,8.776,8.776,8.776h209.587   c4.847,0,8.776-3.929,8.776-8.776V8.776C262.069,3.929,258.14,0,253.293,0z M244.518,279.448H52.482V17.552h192.035V279.448z"/>
    <path d="m75.353,153.416h93.898c4.292,0 7.771-3.479 7.771-7.771v-105.634c0-4.292-3.479-7.771-7.771-7.771h-93.898c-4.292,0-7.771,3.479-7.771,7.771v105.634c0,4.293 3.479,7.771 7.771,7.771zm67.466-15.541h-12.729l9.564-26.243c1.94,1.202 3.165,3.336 3.165,5.693v20.55zm-41.035,0v-20.55c0-2.357 1.225-4.492 3.165-5.693l9.564,26.243h-12.729zm-18.66-90.093h78.356v90.093h-5.107v-20.55c0-8.732-5.565-16.453-13.849-19.214-0.051-0.017-0.103-0.034-0.154-0.05l-4.816-1.478c-3.449-1.055-7.12,0.77-8.355,4.158l-6.897,18.924-6.897-18.924c-1.235-3.387-4.905-5.213-8.355-4.158l-4.816,1.478c-0.051,0.016-0.103,0.033-0.154,0.05-8.283,2.761-13.849,10.482-13.849,19.214v20.55h-5.107v-90.093z"/>
    <path d="m218.363,174.655h-143.587c-4.847,0-8.776,3.929-8.776,8.776 0,4.847 3.929,8.776 8.776,8.776h143.587c4.847,0 8.776-3.929 8.776-8.776-0.001-4.847-3.93-8.776-8.776-8.776z"/>
    <path d="m200.897,122.345h17.466c4.847,0 8.776-3.929 8.776-8.776 0-4.847-3.929-8.776-8.776-8.776h-17.466c-4.847,0-8.776,3.929-8.776,8.776 2.84217e-14,4.847 3.929,8.776 8.776,8.776z"/>
    <path d="m200.897,87.413h17.466c4.847,0 8.776-3.929 8.776-8.776s-3.929-8.776-8.776-8.776h-17.466c-4.847,0-8.776,3.929-8.776,8.776s3.929,8.776 8.776,8.776z"/>
    <path d="m218.363,227.052h-143.587c-4.847,0-8.776,3.929-8.776,8.776s3.929,8.776 8.776,8.776h143.587c4.847,0 8.776-3.929 8.776-8.776s-3.93-8.776-8.776-8.776z"/>
  </g>
</svg>
