<?xml version="1.0" encoding="utf-8"?>
<!-- Generator: Adobe Illustrator 24.0.0, SVG Export Plug-In . SVG Version: 6.00 Build 0)  -->
<svg version="1.1" id="Capa_1" xmlns="http://www.w3.org/2000/svg" xmlns:xlink="http://www.w3.org/1999/xlink" x="0px" y="0px"
	 viewBox="0 0 533.1 533.1" style="enable-background:new 0 0 533.1 533.1;" xml:space="preserve">
<style type="text/css">
	.st0{fill:#2386C7;}
</style>
<g>
	<g>
		<g>
			<path class="st0" d="M231.6,289.4c19.3-13.1,47.2-36.2,80.4-66.7c-6-3.6-12.4-8.2-18.4-14.1c-6.6-6.2-11.9-12.7-15.8-19
				c-28.8,34.2-50.4,62.8-62.8,82.6c-4,0-38.6,0.6-62.8,25.8c-25.6,26.8-24.2,91.7-24.2,91.7s16.4-25.5,47.1-32.7
				C210.8,348.8,226.9,326.3,231.6,289.4z"/>
			<polygon class="st0" points="196.1,451.3 198.5,453.5 287.1,407.5 240,362.2 			"/>
			<path class="st0" d="M435.8,157.9l-27.2,28.3v-58.7c5.4-5.5,8.8-8.9,8.8-8.9s84.1-84.9,60.4-101.2
				C454.2,1.2,376.8,79.8,376.8,79.8s-13.3,14.3-30.4,33H0v405.1h408.6V280.8l74.4-77.6L435.8,157.9z M375,484.2
				c-29.2,0-312,0-341.3,0c0-29.2,0-308.5,0-337.8c22.1,0,189.2,0,282,0c-12.7,14-24.7,27.5-32.9,37.2c4,6.4,9.4,13.1,16.1,19.6
				c6.1,5.8,12.6,10.7,18.7,14.3c14.2-13.2,37.1-35.9,57.4-56.1c0,13.8,0,35,0,60.1L249.6,352.2l47.2,45.3l78.2-81.6
				C375,392.9,375,469.6,375,484.2z"/>
			<path class="st0" d="M530.5,137.9l-31.6-30.1c-4.2-4.2-12.6-2.7-18.2,3.3l-35.6,37.1l47.2,45.4l35.5-37.2
				C533.7,150.4,534.8,142,530.5,137.9z"/>
		</g>
	</g>
</g>
</svg>
