<?xml version="1.0" encoding="utf-8"?>
<!-- Generator: Adobe Illustrator 24.0.0, SVG Export Plug-In . SVG Version: 6.00 Build 0)  -->
<svg version="1.1" id="Capa_1" xmlns="http://www.w3.org/2000/svg" xmlns:xlink="http://www.w3.org/1999/xlink" x="0px" y="0px"
	 viewBox="0 0 448.5 448.5" style="enable-background:new 0 0 448.5 448.5;" xml:space="preserve">
<style type="text/css">
	.st0{fill:#2386C7;}
</style>
<g>
	<path class="st0" d="M306.6,216.6c0-37.6-30.6-68.2-68.2-68.2c-37.6,0-68.2,30.6-68.2,68.2c0,37.6,30.6,68.2,68.2,68.2
		C276,284.8,306.6,254.2,306.6,216.6z M185.3,216.6c0-29.3,23.8-53.2,53.2-53.2s53.2,23.8,53.2,53.2s-23.8,53.2-53.2,53.2
		S185.3,245.9,185.3,216.6z"/>
	<path class="st0" d="M260.9,239.1c2.9-2.9,2.9-7.7,0-10.6c-2.9-2.9-7.7-2.9-10.6,0c-6.5,6.5-17.2,6.5-23.7,0
		c-2.9-2.9-7.7-2.9-10.6,0c-2.9,2.9-2.9,7.7,0,10.6c6,6,14,9.3,22.5,9.3S254.9,245.1,260.9,239.1z"/>
	<path class="st0" d="M238.4,306.2c-42.8,0-80.8,25.6-96.9,65.3c-1.6,3.8,0.3,8.2,4.1,9.8c0.9,0.4,1.9,0.5,2.8,0.5
		c3,0,5.8-1.8,7-4.7c13.8-34,46.4-56,83-56s69.2,22,83,56c1.6,3.8,5.9,5.7,9.8,4.1c3.8-1.6,5.7-5.9,4.1-9.8
		C319.3,331.8,281.2,306.2,238.4,306.2z"/>
	<path class="st0" d="M171.5,101.5c2.9,2.6,7.3,2.6,10.2,0l25.8-23.8l25.8,23.8c2.9,2.6,7.3,2.6,10.2,0l25.8-23.8l25.9,23.8
		c1.4,1.3,3.3,2,5.1,2s3.6-0.7,5.1-2L336.3,73c3-2.8,3.2-7.6,0.4-10.6c-2.8-3-7.5-3.2-10.6-0.4l-25.9,23.8L274.4,62
		c-2.9-2.6-7.3-2.6-10.2,0l-25.8,23.8L212.6,62c-2.9-2.6-7.3-2.6-10.2,0l-25.8,23.8L150.7,62c-3-2.8-7.8-2.6-10.6,0.4
		c-2.8,3-2.6,7.8,0.4,10.6L171.5,101.5z"/>
	<path class="st0" d="M80.6,411.8h305.6c4.1,0,7.5-3.4,7.5-7.5V7.5c0-4.1-3.4-7.5-7.5-7.5H80.6C66.4,0,54.8,11.6,54.8,25.8v396.8
		c0,14.2,11.6,25.8,25.8,25.8h305.6c4.1,0,7.5-3.4,7.5-7.5s-3.4-7.5-7.5-7.5H80.6c-6,0-10.8-4.9-10.8-10.8
		C69.8,416.7,74.7,411.8,80.6,411.8z M69.8,25.8c0-6,4.9-10.8,10.8-10.8h2.5v79c0,4.1,3.4,7.5,7.5,7.5s7.5-3.4,7.5-7.5V15h280.6
		v381.8H98.1V124c0-4.1-3.4-7.5-7.5-7.5s-7.5,3.4-7.5,7.5v272.9h-2.5c-3.9,0-7.5,0.9-10.8,2.4C69.8,399.2,69.8,25.8,69.8,25.8z"/>
</g>
</svg>
