<?xml version="1.0" encoding="utf-8"?>
<!-- Generator: Adobe Illustrator 24.0.0, SVG Export Plug-In . SVG Version: 6.00 Build 0)  -->
<svg version="1.1" id="Capa_1" xmlns="http://www.w3.org/2000/svg" xmlns:xlink="http://www.w3.org/1999/xlink" x="0px" y="0px"
	 viewBox="0 0 68.4 68.4" style="enable-background:new 0 0 68.4 68.4;" xml:space="preserve">
<style type="text/css">
	.st0{fill:#2386C7;}
</style>
<g>
	<path class="st0" d="M61.8,14.2C61.4,10.1,58,7,53.8,7H33L16.9,0.5C16.1,0.2,15.3,0,14.6,0c-2.8,0-4.7,2.2-4.7,5.5v3
		C8,9.8,6.8,11.9,6.5,14.2c-1,1.5-1.5,3.2-1.5,5.1V59c0,5.2,4.2,9.3,9.3,9.3H54c5.2,0,9.3-4.2,9.3-9.3V19.3
		C63.4,17.4,62.8,15.7,61.8,14.2z M11,7.8V5.5c0-2.6,1.4-4.3,3.5-4.3c0.6,0,1.2,0.1,1.9,0.4L29.8,7l2.9,1.2l0.9,0.4v0.8V10v50.1H33
		l-16.1-6.5c-3.2-1.3-5.8-5.3-5.8-8.9V10.6v-0.1V9.1L11,7.8L11,7.8z M39,10v5.4l2.3-1.9l2.3,1.9V10V9.3h10.3c1.4,0,2.7,0.5,3.7,1.4
		c1.3,1.1,2.1,2.6,2.1,4.4v39.3c0,3.2-2.6,5.8-5.8,5.8H34.8V10V9.3H39L39,10L39,10z M30.2,24.7l-7.2-2.9v-1.2l7.2,2.9V24.7z
		 M30.2,29.3l-7.2-2.9v-1.2l7.2,2.9V29.3z M30.2,33.8L15.7,28v-1.2l14.5,5.8V33.8z M30.2,38.3l-14.5-5.8v-1.2l14.5,5.8V38.3z
		 M30.2,42.9l-14.5-5.8v-1.2l14.5,5.8V42.9z M17,24.3l0.4-1.2l2.2,0.9l0.4,1.5l0.6,0.3l0.6,0.3l-2-7.2l-0.7-0.3l-0.7-0.3l-2,5.6
		l0.6,0.2L17,24.3z M18.4,19.9L18.4,19.9L18.4,19.9L18.4,19.9l0.8,2.9l-1.5-0.6L18.4,19.9z M50.6,38.8h-9.3l-4.4-9.2l1.2-0.6l4,8.4
		h7.6l4-8.8h3.5v1.3h-2.7L50.6,38.8z M43.4,40.4c-0.9,0-1.6,0.7-1.6,1.6s0.7,1.6,1.6,1.6c0.9,0,1.5-0.7,1.5-1.6S44.2,40.4,43.4,40.4
		z M49.1,40.4c-0.9,0-1.6,0.6-1.6,1.5c0,0.9,0.6,1.6,1.5,1.6c0.9,0,1.6-0.6,1.6-1.5C50.6,41.2,49.9,40.4,49.1,40.4z"/>
</g>
</svg>
