<?xml version="1.0" encoding="utf-8"?>
<!-- Generator: Adobe Illustrator 24.0.0, SVG Export Plug-In . SVG Version: 6.00 Build 0)  -->
<svg version="1.1" id="Capa_1" xmlns="http://www.w3.org/2000/svg" xmlns:xlink="http://www.w3.org/1999/xlink" x="0px" y="0px"
	 viewBox="0 0 283.1 283.1" style="enable-background:new 0 0 283.1 283.1;" xml:space="preserve">
<style type="text/css">
	.st0{fill:#2386C7;}
</style>
<g>
	<path class="st0" d="M271.3,54.5L219,2.2c-2.9-2.9-7.7-2.9-10.6,0L78.3,132.3c-1,1.1-1.8,2.4-2.1,3.8l-13,65.3
		c-0.5,2.5,0.3,5,2.1,6.8c1.4,1.4,3.3,2.2,5.3,2.2c0.5,0,1,0,1.5-0.1l65.3-13c1.5-0.3,2.8-1,3.8-2.1L271.3,65.1
		C274.2,62.2,274.2,57.5,271.3,54.5z M83.2,178.1L90,144l39.6,39.6l-34.1,6.8L83.2,178.1z"/>
	<path class="st0" d="M205.9,227.1c-71.7-30-118.4,19.6-132.4,27.2c-17.8,9.6-42.9,21-48.8,1.4c-3.5-11.8,15.5-24.5,28.1-28.4
		c9.2-2.9,5.3-17.4-4-14.5c-19.6,6.1-42.9,22.6-38.9,45.8c3,17.3,24.7,33,66.4,11.1c30.3-15.9,50.9-48.8,114.7-31.8
		c21,5.6,37.9,19.3,45.2,40.1c3.2,9.1,17.7,5.2,14.5-4C243.1,251.8,227.4,236.1,205.9,227.1z"/>
</g>
</svg>
