<?xml version="1.0" encoding="utf-8"?>
<!-- Generator: Adobe Illustrator 24.0.0, SVG Export Plug-In . SVG Version: 6.00 Build 0)  -->
<svg version="1.1" id="Capa_1" xmlns="http://www.w3.org/2000/svg" xmlns:xlink="http://www.w3.org/1999/xlink" x="0px" y="0px"
	 viewBox="0 0 437 437" style="enable-background:new 0 0 437 437;" xml:space="preserve">
<style type="text/css">
	.st0{fill:#2386C7;}
</style>
<g>
	<g>
		<g>
			<path class="st0" d="M128.5,303.5h180c16.8,0-14.2-73.7-14.2-73.7c-1.8-4.4-6.2-7.2-10.5-8.9l-28.5-13.1l-13.7-11.5l-22,21.9h0
				l9.5,63.4c0,0.2,0,0.4-0.2,0.6l-9.9,13.6c-0.2,0.2-0.4,0.3-0.7,0.3c-0.3,0-0.5-0.1-0.7-0.3l-9.9-13.6c-0.1-0.2-0.2-0.4-0.1-0.6
				l9.5-63.4h0l-22-21.9l-13.7,11.5l-28.5,13.1c-4.2,1.7-8.4,4.4-10.5,8.9C142.6,229.8,111.7,303.5,128.5,303.5z"/>
			<path class="st0" d="M218.5,202.1c21.7,0,50.8-27.1,51.3-72.6c0.3-31.6-14.7-50.5-51.3-50.5c-36.6,0-51.7,18.9-51.3,50.5
				C167.7,175,193.1,202.1,218.5,202.1z M208.2,142.2c26.5,2.8,49.7-34.3,49.3-1.1c-0.2,19.9-18.7,49.9-39,49.9
				c-21.3,0-36-25-39-49.9C176.3,114.1,226,120.2,208.2,142.2z"/>
			<path class="st0" d="M417,29.6H20c-11,0-20,9-20,20V333c0,11,9,20,20,20h397c11,0,20-9,20-20V49.6C437,38.5,428,29.6,417,29.6z
				 M407,323H30V59.6h377V323z"/>
			<path class="st0" d="M0,384.8c0,6.1,4.9,11,11,11h106.4v-22.1H11C4.9,373.7,0,378.7,0,384.8z"/>
			<path class="st0" d="M426,373.7H160.2v22.1H426c6.1,0,11-4.9,11-11C437,378.7,432.1,373.7,426,373.7z"/>
			<path class="st0" d="M138.8,362.2c-7.3,0-13.3,6-13.3,13.3v18.7c0,7.3,6,13.3,13.3,13.3c7.3,0,13.3-6,13.3-13.3v-18.7
				C152.1,368.1,146.1,362.2,138.8,362.2z"/>
		</g>
	</g>
</g>
</svg>
