<?xml version="1.0" encoding="utf-8"?>
<!-- Generator: Adobe Illustrator 24.0.0, SVG Export Plug-In . SVG Version: 6.00 Build 0)  -->
<svg version="1.1" id="Layer_1" xmlns="http://www.w3.org/2000/svg" xmlns:xlink="http://www.w3.org/1999/xlink" x="0px" y="0px"
	 viewBox="0 0 470 470" style="enable-background:new 0 0 470 470;" xml:space="preserve">
<style type="text/css">
	.st0{fill:#FFFFFF;}
</style>
<g>
	<path class="st0" d="M105.7,370c-3.9-1.4-8.2,0.6-9.6,4.5l-4.2,11.6c-1.4,3.9,0.6,8.2,4.5,9.6c0.8,0.3,1.7,0.4,2.5,0.4
		c3.1,0,6-1.9,7.1-5l4.2-11.6C111.6,375.7,109.6,371.4,105.7,370z"/>
	<path class="st0" d="M116.9,328.4c-4-1-8.1,1.4-9.1,5.5l-3,11.9c-1,4,1.4,8.1,5.5,9.1c0.6,0.2,1.2,0.2,1.8,0.2
		c3.4,0,6.4-2.3,7.3-5.7l3-11.9C123.3,333.5,120.9,329.4,116.9,328.4L116.9,328.4z"/>
	<path class="st0" d="M124,285.9c-4.1-0.6-7.9,2.2-8.5,6.3l-1.8,12.2c-0.6,4.1,2.2,7.9,6.3,8.5c0.4,0.1,0.7,0.1,1.1,0.1
		c3.7,0,6.9-2.7,7.4-6.4l1.8-12.2C130.9,290.3,128.1,286.5,124,285.9z"/>
	<path class="st0" d="M126.9,242.9c-4.1-0.2-7.7,3-7.9,7.1l-0.6,12.3c-0.2,4.1,3,7.7,7.1,7.9c0.1,0,0.3,0,0.4,0c4,0,7.3-3.1,7.5-7.1
		l0.6-12.3C134.2,246.6,131,243.1,126.9,242.9L126.9,242.9z"/>
	<path class="st0" d="M125.4,199.8c-4.1,0.3-7.3,3.8-7,8c0.3,4,0.4,8.1,0.6,12.1c0.1,4.1,3.5,7.2,7.5,7.2c0.1,0,0.2,0,0.3,0
		c4.1-0.1,7.4-3.6,7.2-7.8c-0.1-4.2-0.4-8.4-0.6-12.5C133.1,202.7,129.6,199.6,125.4,199.8z"/>
	<path class="st0" d="M120,157.1c-4.1,0.6-6.9,4.4-6.3,8.5l1.8,12.2c0.6,3.7,3.8,6.4,7.4,6.4c0.4,0,0.7,0,1.1-0.1
		c4.1-0.6,6.9-4.4,6.3-8.5l-1.8-12.2C127.9,159.3,124.1,156.5,120,157.1L120,157.1z"/>
	<path class="st0" d="M104.8,124.2l3,11.9c0.9,3.4,3.9,5.7,7.3,5.7c0.6,0,1.2-0.1,1.8-0.2c4-1,6.5-5.1,5.5-9.1l-3-11.9
		c-1-4-5.1-6.5-9.1-5.4C106.2,116.1,103.8,120.2,104.8,124.2z"/>
	<path class="st0" d="M96,95.4c1.1,3.1,4,5.1,7.1,5.1c0.8,0,1.6-0.1,2.4-0.4c3.9-1.3,6-5.6,4.7-9.5c-1.3-3.9-2.8-7.9-4.2-11.8
		c-1.5-3.9-5.8-5.8-9.7-4.4c-3.9,1.5-5.8,5.8-4.4,9.7C93.4,87.8,94.7,91.6,96,95.4z"/>
	<path class="st0" d="M373.9,374.5c-1.4-3.9-5.7-5.9-9.6-4.5c-3.9,1.4-5.9,5.7-4.5,9.6l4.2,11.6c1.1,3.1,4,5,7.1,5
		c0.8,0,1.7-0.1,2.5-0.4c3.9-1.4,5.9-5.7,4.5-9.6L373.9,374.5z"/>
	<path class="st0" d="M365.2,345.8l-3-11.9c-1-4-5.1-6.5-9.1-5.5c-4,1-6.5,5.1-5.5,9.1l3,11.9c0.9,3.4,3.9,5.7,7.3,5.7
		c0.6,0,1.2-0.1,1.8-0.2C363.8,353.9,366.2,349.8,365.2,345.8L365.2,345.8z"/>
	<path class="st0" d="M350,312.9c4.1-0.6,6.9-4.4,6.3-8.5l-1.8-12.2c-0.6-4.1-4.4-6.9-8.5-6.3c-4.1,0.6-6.9,4.4-6.3,8.5l1.8,12.2
		c0.6,3.7,3.8,6.4,7.4,6.4C349.3,313,349.7,313,350,312.9L350,312.9z"/>
	<path class="st0" d="M344.5,270.2c4.1-0.2,7.3-3.7,7.1-7.9L351,250c-0.2-4.1-3.7-7.3-7.9-7.1c-4.1,0.2-7.3,3.7-7.1,7.9l0.6,12.3
		c0.2,4,3.5,7.1,7.5,7.1C344.2,270.2,344.4,270.2,344.5,270.2L344.5,270.2z"/>
	<path class="st0" d="M343.2,227.1c0.1,0,0.2,0,0.3,0c4,0,7.3-3.2,7.5-7.2c0.1-4,0.3-8.1,0.6-12.1c0.3-4.1-2.9-7.7-7-8
		c-4.2-0.2-7.7,2.9-8,7c-0.3,4.1-0.5,8.3-0.6,12.5C335.9,223.5,339.1,227,343.2,227.1L343.2,227.1z"/>
	<path class="st0" d="M346,184.1c0.4,0.1,0.7,0.1,1.1,0.1c3.7,0,6.9-2.7,7.4-6.4l1.8-12.2c0.6-4.1-2.2-7.9-6.3-8.5
		c-4.1-0.6-7.9,2.2-8.5,6.3l-1.8,12.2C339.1,179.7,341.9,183.5,346,184.1L346,184.1z"/>
	<path class="st0" d="M353.1,141.6c0.6,0.2,1.2,0.2,1.8,0.2c3.4,0,6.4-2.3,7.3-5.7l3-11.9c1-4-1.4-8.1-5.4-9.1c-4-1-8.1,1.4-9.1,5.4
		l-3,11.9C346.6,136.5,349.1,140.6,353.1,141.6z"/>
	<path class="st0" d="M373.6,74.3c-3.9-1.5-8.2,0.5-9.7,4.4c-1.5,3.9-2.9,7.9-4.2,11.8c-1.3,3.9,0.7,8.2,4.7,9.5
		c0.8,0.3,1.6,0.4,2.4,0.4c3.1,0,6-2,7.1-5.1c1.3-3.8,2.7-7.6,4.1-11.4C379.5,80.1,377.5,75.8,373.6,74.3z"/>
	<path class="st0" d="M392.9,45.8V7.5c0-4.1-3.4-7.5-7.5-7.5H84.6c-4.1,0-7.5,3.4-7.5,7.5v38.3C49.6,104.5,35,169.9,35,235
		c0,65.1,14.6,130.5,42.1,189.2v38.3c0,4.1,3.4,7.5,7.5,7.5h300.7c4.1,0,7.5-3.4,7.5-7.5v-38.3c27.6-58.7,42.1-124,42.1-189.2
		C435,169.9,420.4,104.5,392.9,45.8z M383,409.6c-1.1,0-2.3,0.2-3.4,0.7c-3.8,1.8-5.4,6.2-3.6,10l1.8,3.9V455H92.1v-25h263.2
		c4.1,0,7.5-3.4,7.5-7.5s-3.4-7.5-7.5-7.5h-266C37.3,302.1,36.5,173.8,87,60.4c0.1,0,0.1,0,0.2,0c1.1,0,2.1-0.2,3.2-0.7
		c3.8-1.7,5.4-6.2,3.6-10l-1.8-3.9V15h285.7v25H114.6c-4.1,0-7.5,3.4-7.5,7.5s3.4,7.5,7.5,7.5h266
		C432.7,167.9,433.5,296.2,383,409.6L383,409.6z"/>
	<path class="st0" d="M304.2,256.4c0-4.1-3.3-7.5-7.5-7.5c-4.2,0-7.5,3.3-7.5,7.5c0,6.6-0.7,13.4-2.1,20.2l-44.7-44.7v-46.4
		c9.9,3.5,18.7,8.9,25.9,16.1c7.6,7.6,13.2,16.8,16.7,27.4c1.3,3.9,5.5,6.1,9.5,4.8c3.9-1.3,6.1-5.5,4.8-9.5
		c-4.2-12.9-11.1-24.1-20.3-33.4c-11.3-11.3-25.7-19-41.8-22.7c-0.4-0.1-0.8-0.2-1.2-0.3c-18.2-3.9-38.6-2.9-59.3,3.6
		c0,0-0.1,0-0.1,0c-0.1,0-0.1,0-0.1,0c-0.2,0.1-0.5,0.2-0.7,0.3c-0.1,0-0.1,0.1-0.2,0.1c-0.2,0.1-0.4,0.2-0.6,0.3
		c-0.1,0-0.1,0.1-0.2,0.1c-0.2,0.1-0.4,0.2-0.5,0.4c-0.1,0-0.1,0.1-0.2,0.1c-0.2,0.2-0.4,0.4-0.6,0.6c-0.2,0.2-0.4,0.4-0.6,0.6
		c0,0.1-0.1,0.1-0.1,0.2c-0.1,0.2-0.3,0.4-0.4,0.5c0,0.1-0.1,0.1-0.1,0.2c-0.1,0.2-0.2,0.4-0.3,0.6c0,0.1-0.1,0.1-0.1,0.2
		c-0.1,0.2-0.2,0.4-0.3,0.7c0,0,0,0.1,0,0.1c0,0,0,0,0,0.1c0,0,0,0,0,0.1c-6.4,20.8-7.5,41.2-3.6,59.4c0.1,0.4,0.1,0.8,0.3,1.2
		c3.7,16.1,11.3,30.4,22.7,41.8c16.6,16.6,39.5,25.2,65,25.2c12,0,24.6-1.9,37.3-5.9c0,0,0.1,0,0.1,0c0,0,0,0,0,0c0,0,0.1,0,0.1,0
		c0.2-0.1,0.5-0.2,0.7-0.3c0.1,0,0.1-0.1,0.2-0.1c0.2-0.1,0.4-0.2,0.6-0.3c0.1,0,0.1-0.1,0.2-0.1c0.2-0.1,0.4-0.2,0.5-0.4
		c0.1,0,0.1-0.1,0.2-0.1c0.2-0.2,0.4-0.4,0.6-0.6c0.2-0.2,0.4-0.4,0.6-0.6c0-0.1,0.1-0.1,0.1-0.2c0.1-0.2,0.3-0.4,0.4-0.5
		c0-0.1,0.1-0.1,0.1-0.2c0.1-0.2,0.2-0.4,0.3-0.6c0-0.1,0.1-0.1,0.1-0.2c0.1-0.2,0.2-0.5,0.3-0.7c0,0,0-0.1,0-0.1c0-0.1,0-0.1,0-0.1
		C302.2,280.9,304.2,268.5,304.2,256.4L304.2,256.4z M227.5,181.8v35.1l-34.1-34.1C205.3,180.5,216.8,180.2,227.5,181.8z
		 M182.8,193.4l34.1,34.1h-35.1C180.2,216.8,180.5,205.3,182.8,193.4L182.8,193.4z M201.6,268.4c-7.2-7.2-12.7-16-16.1-25.9h46.4
		l44.7,44.7C246.9,293,219.5,286.3,201.6,268.4z"/>
</g>
</svg>
