<?xml version="1.0" encoding="iso-8859-1"?>
<!-- Generator: Adobe Illustrator 19.0.0, SVG Export Plug-In . SVG Version: 6.00 Build 0)  -->
<svg version="1.1" id="Capa_1" xmlns="http://www.w3.org/2000/svg" xmlns:xlink="http://www.w3.org/1999/xlink" x="0px" y="0px"
	 viewBox="0 0 512 512" style="enable-background:new 0 0 512 512;" xml:space="preserve">
<path style="fill:#0D70B2;" d="M330.799,121.5c-0.901-1.8-2.399-3.6-3.896-4.799C307.698,99.3,280.203,90.899,255,90.899
	S204.302,99.3,185.098,116.7c-1.498,1.199-2.996,2.999-3.896,4.799c-0.601,2.1-1.201,4.2-1.201,6.301v212
	c0,6.599,3.9,11.4,9.001,13.799c4.797,2.1,11.096,1.8,15.901-2.699c13.799-12.001,32.098-18.301,50.098-18.301
	S293.3,338.9,307.099,350.9c1.501,1.5,3.003,2.399,4.504,2.999c1.798,0.601,3.596,0.901,5.398,0.901c4.2,0,7.8-1.8,10.499-4.501
	s4.5-6.3,4.5-10.499v-212C332,125.7,331.399,123.6,330.799,121.5z"/>
<path style="fill:#0059AA;" d="M326.902,328.7c-19.504-17.1-46.7-25.801-71.902-25.801s-50.398,8.701-69.902,25.801
	c-3.296,2.699-5.098,6.899-5.098,11.1v60c0,12.9,15.3,19.799,24.902,11.1C218.701,398.599,237,392.599,255,392.599
	s38.299,6,52.098,18.301c2.703,2.699,6.302,3.9,9.902,3.9c8.401,0,15-6.601,15-15v-60C332,335.6,330.198,331.399,326.902,328.7z"/>
<g>
	<path style="fill:#0D70B2;" d="M180,126.899C180,106.201,163.799,90,143.086,90c-7.559,0-14.707,2.256-20.654,6.504
		c-11.599,8.276-27.142-2.858-23.115-16.465l13.506-45.601C119.297,14.048,138.75,0,160.195,0C187.646,0,210,22.339,210,49.805
		V126.9C210,146.673,180,146.754,180,126.899z"/>
	<path style="fill:#0D70B2;" d="M302,126.899V49.805C302,22.339,324.354,0,351.805,0c21.445,0,40.898,14.048,47.285,34.16
		l13.594,45.879c4.027,13.607-11.516,24.741-23.115,16.465C383.621,92.256,376.473,90,368.914,90
		C348.201,90,332,106.201,332,126.899C332,146.673,302,146.754,302,126.899z"/>
</g>
<g>
	<path style="fill:#1DE8F1;" d="M105,317c-50.383,0-90,40.547-90,90c0,49.629,40.371,90,90,90s90-40.371,90-90S154.629,317,105,317z
		"/>
	<path style="fill:#1DE8F1;" d="M407,317c-49.629,0-90,40.371-90,90s40.371,90,90,90s90-40.371,90-90
		C497,358.128,457.804,317,407,317z"/>
</g>
<path style="fill:#E1E4FB;" d="M392,422c-16.543,0-30-13.457-30-30s13.457-30,30-30c17.262,0,30,14.006,30,30
	C422,408.543,408.543,422,392,422z"/>
<path style="fill:#FFFFFF;" d="M90,422c-16.543,0-30-13.457-30-30s13.457-30,30-30c17.262,0,30,14.006,30,30
	C120,408.543,106.543,422,90,422z"/>
<path style="fill:#1689FC;" d="M302,407V126.899C302,90.015,332.029,60,368.914,60c28.57,0,54.84,18.484,63.779,46.772
	l74.561,269.202c5.257,18.891-23.006,27.057-28.77,8.481C468.729,353.079,439.988,332,407,332c-41.367,0-75,33.647-75,75
	C332,426.773,302,426.854,302,407z"/>
<path style="fill:#17ACE8;" d="M180,407c0-41.353-33.633-75-75-75c-32.988,0-61.729,21.079-71.484,52.456
	c-2.402,7.837-10.723,12.29-18.574,9.932C7.09,392.073,2.549,383.87,4.746,375.975L79.16,107.271
	C88.238,78.476,114.392,60,143.086,60C179.971,60,210,90.015,210,126.899V407C210,426.773,180,426.854,180,407z"/>
<g>
	<path style="fill:#0D70B2;" d="M105,512C47.109,512,0,464.891,0,407c0-10.664,1.699-21.592,4.922-31.582
		C18.574,331.561,58.799,302,105,302c57.891,0,105,47.109,105,105S162.891,512,105,512z M105,332
		c-32.988,0-61.729,21.079-71.484,52.456C31.201,391.663,30,399.412,30,407c0,41.353,33.633,75,75,75s75-33.647,75-75
		S146.367,332,105,332z"/>
	<path style="fill:#0D70B2;" d="M407,512c-57.891,0-105-47.109-105-105s47.109-105,105-105c46.201,0,86.426,29.561,100.137,73.55
		C510.301,385.408,512,396.336,512,407C512,464.891,464.891,512,407,512z M407,332c-41.367,0-75,33.647-75,75s33.633,75,75,75
		s75-33.647,75-75c0-7.588-1.201-15.337-3.457-22.412C468.729,353.079,439.988,332,407,332z"/>
</g>
<g>
</g>
<g>
</g>
<g>
</g>
<g>
</g>
<g>
</g>
<g>
</g>
<g>
</g>
<g>
</g>
<g>
</g>
<g>
</g>
<g>
</g>
<g>
</g>
<g>
</g>
<g>
</g>
<g>
</g>
</svg>
