<?xml version="1.0" encoding="iso-8859-1"?>
<!-- Generator: Adobe Illustrator 19.0.0, SVG Export Plug-In . SVG Version: 6.00 Build 0)  -->
<svg version="1.1" id="Capa_1" xmlns="http://www.w3.org/2000/svg" xmlns:xlink="http://www.w3.org/1999/xlink" x="0px" y="0px"
	 viewBox="0 0 512 512" style="enable-background:new 0 0 512 512;" xml:space="preserve">
<path style="fill:#F1F3F0;" d="M342.929,2.929l110.142,110.142c1.875,1.875,2.929,4.419,2.929,7.071V502c0,5.523-4.477,10-10,10H66
	c-5.523,0-10-4.477-10-10V10c0-5.523,4.477-10,10-10h269.858C338.51,0,341.054,1.054,342.929,2.929z"/>
<path style="fill:#DCE5DF;" d="M95.998,512H90H71.998H66c-5.523,0-10-4.477-10-10V10c0-5.523,4.477-10,10-10h5.997H90h5.997
	c-5.523,0-10,4.477-10,10v492C85.998,507.523,90.475,512,95.998,512z"/>
<path style="fill:#5192A9;" d="M426,481H86V31h274l66,69V481z"/>
<path style="fill:#38729A;" d="M363.5,360c0,4.142-3.358,7.5-7.5,7.5H156c-4.142,0-7.5-3.358-7.5-7.5s3.358-7.5,7.5-7.5h200
	C360.142,352.5,363.5,355.858,363.5,360z M313.5,382.5h-115c-4.142,0-7.5,3.358-7.5,7.5s3.358,7.5,7.5,7.5h115
	c4.142,0,7.5-3.358,7.5-7.5S317.642,382.5,313.5,382.5z M283.5,432.5h-55c-4.142,0-7.5,3.358-7.5,7.5s3.358,7.5,7.5,7.5h55
	c4.142,0,7.5-3.358,7.5-7.5S287.642,432.5,283.5,432.5z"/>
<path style="fill:#F3B05F;" d="M349.637,255.583c6.908,0.271,10.597,8.335,6.152,13.631c-20.586,24.527-51.302,40.266-85.708,40.774
	c-63.109,0.932-115.809-50.961-115.808-114.077c0-53.021,36.17-97.594,85.18-110.393c6.72-1.755,12.449,5.019,9.728,11.41
	c-6.348,14.911-9.614,31.45-8.997,48.817c2.097,58.971,49.575,107.016,108.518,109.798
	C349.015,255.557,349.326,255.571,349.637,255.583z"/>
<path style="fill:#E29F5A;" d="M357.278,266.556c-0.316,0.926-0.791,1.827-1.488,2.657c-20.586,24.527-51.302,40.266-85.708,40.774
	c-63.109,0.932-115.809-50.961-115.808-114.076c0-36.891,17.522-69.679,44.684-90.533c-14.76,19.228-23.547,43.282-23.547,69.396
	c0,63.115,52.7,115.009,115.808,114.077C315.939,288.486,338.756,280.257,357.278,266.556z"/>
<path style="fill:#FFF5C2;" d="M317.869,207.269l-27.468,15.023c-1.026,0.561-1.869,1.405-2.431,2.431l-15.023,27.468
	c-2.319,4.241-8.41,4.241-10.729,0l-15.023-27.468c-0.561-1.026-1.405-1.869-2.43-2.431l-27.468-15.023
	c-4.241-2.319-4.241-8.41,0-10.729l27.468-15.023c1.026-0.561,1.869-1.405,2.43-2.43l15.023-27.468c2.319-4.241,8.41-4.241,10.729,0
	l15.023,27.468c0.561,1.026,1.405,1.869,2.431,2.43l27.468,15.023C322.11,198.859,322.11,204.949,317.869,207.269z"/>
<path style="fill:#FFDB8B;" d="M473.752,318.831l-27.468,15.023c-1.026,0.561-1.869,1.405-2.431,2.431l-15.023,27.468
	c-2.319,4.24-8.41,4.24-10.729,0l-15.023-27.468c-0.561-1.026-1.405-1.87-2.43-2.431l-27.468-15.023
	c-4.241-2.319-4.241-8.41,0-10.729l27.468-15.023c1.026-0.561,1.869-1.405,2.43-2.431l15.023-27.468
	c2.319-4.241,8.41-4.241,10.729,0l15.023,27.468c0.561,1.026,1.405,1.869,2.431,2.431l27.468,15.023
	C477.992,310.421,477.992,316.511,473.752,318.831z M147.712,104.607L127.95,93.799c-0.738-0.404-1.345-1.01-1.749-1.749
	l-10.808-19.762c-1.669-3.051-6.05-3.051-7.719,0L96.866,92.05c-0.404,0.738-1.011,1.345-1.749,1.749l-19.762,10.808
	c-3.051,1.669-3.051,6.05,0,7.719l19.762,10.808c0.738,0.404,1.345,1.011,1.749,1.749l10.808,19.762c1.669,3.051,6.05,3.051,7.719,0
	l10.808-19.762c0.404-0.738,1.011-1.345,1.749-1.749l19.762-10.808C150.763,110.657,150.763,106.275,147.712,104.607z
	 M510.009,180.108l-17.193-9.403c-0.642-0.351-1.17-0.879-1.521-1.521l-9.403-17.193c-1.452-2.654-5.264-2.654-6.716,0
	l-9.403,17.193c-0.351,0.642-0.879,1.17-1.521,1.521l-17.193,9.403c-2.654,1.452-2.654,5.264,0,6.716l17.193,9.403
	c0.642,0.351,1.17,0.879,1.521,1.521l9.403,17.193c1.452,2.654,5.264,2.654,6.716,0l9.403-17.193
	c0.351-0.642,0.879-1.17,1.521-1.521l17.193-9.403C512.664,185.372,512.664,181.56,510.009,180.108z M94.049,266.671L69.15,253.053
	c-0.93-0.509-1.695-1.273-2.203-2.203l-13.618-24.899c-2.102-3.844-7.623-3.844-9.726,0L29.985,250.85
	c-0.509,0.93-1.273,1.695-2.203,2.203L2.883,266.671c-3.844,2.102-3.844,7.623,0,9.725l24.899,13.618
	c0.93,0.509,1.695,1.273,2.203,2.203l13.618,24.899c2.102,3.844,7.623,3.844,9.726,0l13.618-24.899
	c0.509-0.93,1.273-1.695,2.203-2.203l24.899-13.618C97.893,274.294,97.893,268.773,94.049,266.671z"/>
<path style="fill:#DCE5DF;" d="M455.993,120H346c-5.523,0-10-4.477-10-10V0.007c2.6,0.037,5.087,1.08,6.929,2.922l110.142,110.142
	C454.913,114.913,455.956,117.399,455.993,120z"/>
<g>
</g>
<g>
</g>
<g>
</g>
<g>
</g>
<g>
</g>
<g>
</g>
<g>
</g>
<g>
</g>
<g>
</g>
<g>
</g>
<g>
</g>
<g>
</g>
<g>
</g>
<g>
</g>
<g>
</g>
</svg>
