<?xml version="1.0" encoding="utf-8"?>
<!-- Generator: Adobe Illustrator 24.0.0, SVG Export Plug-In . SVG Version: 6.00 Build 0)  -->
<svg version="1.1" id="Capa_1" xmlns="http://www.w3.org/2000/svg" xmlns:xlink="http://www.w3.org/1999/xlink" x="0px" y="0px"
	 viewBox="0 0 445.4 445.4" style="enable-background:new 0 0 445.4 445.4;" xml:space="preserve">
<style type="text/css">
	.st0{fill:#FFFFFF;}
</style>
<g>
	<g>
		<g>
			<path class="st0" d="M83.2,388.6l0.1-0.3c2.3-5,6.5-8.8,12.5-11.3l19.1-8.8l1-0.9c-0.7-0.8-1.4-1.7-2.1-2.6
				c-8.6-11.2-13.3-26.1-13.7-43l-2.6-1.2l-9.8-8.3L71.8,328h0l-1.8,0h0l-15.8-15.7l-9.8,8.3L23.9,330c-3,1.2-6,3.1-7.5,6.4
				c0,0-22.2,52.9-10.2,52.9h76.7C83.1,388.9,83.2,388.7,83.2,388.6z"/>
			<path class="st0" d="M34,264.3c0.4,32.7,18.6,52.1,36.9,52.1c15.6,0,36.5-19.5,36.9-52.1c0.2-22.7-10.6-36.2-36.9-36.2
				C44.6,228.1,33.8,241.7,34,264.3z"/>
			<path class="st0" d="M197.7,377c6.2,2.6,10.6,6.6,12.7,11.7c0,0.1,0.1,0.3,0.3,0.6h24c0.1-0.4,0.2-0.6,0.3-0.6l0.1-0.3
				c2.3-5,6.5-8.8,12.5-11.3l19.1-8.8l1-0.9c-0.7-0.8-1.4-1.7-2.1-2.6c-8.6-11.2-13.3-26.1-13.7-43l-2.6-1.2l-9.8-8.3L223.6,328h0
				l-1.8,0h0L206,312.3l-9.8,8.3l-2.6,1.2c-0.4,16.5-5.7,31.8-14.9,43.2c-0.5,0.6-1.1,1.3-1.6,1.9l1.6,1.4L197.7,377z"/>
			<path class="st0" d="M222.7,316.5c15.6,0,36.5-19.5,36.9-52.1c0.2-22.7-10.6-36.2-36.9-36.2c-26.3,0-37.1,13.6-36.9,36.2
				C186.2,297,204.4,316.5,222.7,316.5z"/>
			<path class="st0" d="M428.9,336.4c-1.3-3.1-4.5-5.2-7.5-6.4l-20.4-9.4l-9.8-8.3L375.4,328h0l-1.8,0h0l-15.8-15.7l-9.8,8.3
				l-2.6,1.2c-0.4,16.5-5.7,31.8-14.9,43.2c-0.5,0.6-1.1,1.3-1.6,1.9l1.6,1.4l19.1,8.8c6.2,2.6,10.6,6.6,12.7,11.7
				c0,0.1,0.1,0.3,0.3,0.6h76.7C451.2,389.3,428.9,336.4,428.9,336.4z"/>
			<path class="st0" d="M337.6,264.3c0.4,32.7,18.6,52.1,36.9,52.1c15.6,0,36.5-19.5,36.9-52.1c0.2-22.7-10.6-36.2-36.9-36.2
				C348.2,228.1,337.4,241.7,337.6,264.3z"/>
			<path class="st0" d="M193.8,386.1l-20.4-9.4l-9.8-8.3l-15.8,15.7h0h-1.8h0l-15.8-15.7l-9.8,8.3l-20.4,9.4c-3,1.2-6,3.1-7.5,6.4
				c0,0-22.2,52.9-10.2,52.9h129.3c12.1,0-10.2-52.9-10.2-52.9C200,389.3,196.8,387.3,193.8,386.1z"/>
			<path class="st0" d="M146.8,284.2c-26.3,0-37.1,13.6-36.9,36.2c0.4,32.7,18.6,52.1,36.9,52.1c15.6,0,36.5-19.5,36.9-52.1
				C183.9,297.8,173.1,284.2,146.8,284.2z"/>
			<path class="st0" d="M345.5,386.1l-20.4-9.4l-9.8-8.3l-15.8,15.7h0h-1.8h0l-15.8-15.7l-9.8,8.3l-20.4,9.4c-3,1.2-6,3.1-7.5,6.4
				c0,0-22.2,52.9-10.2,52.9h129.3c12.1,0-10.2-52.9-10.2-52.9C351.7,389.3,348.6,387.3,345.5,386.1z"/>
			<path class="st0" d="M298.6,372.6c15.6,0,36.5-19.5,36.9-52.1c0.2-22.7-10.6-36.2-36.9-36.2c-26.3,0-37.1,13.6-36.9,36.2
				C262.1,353.1,280.3,372.6,298.6,372.6z"/>
			<path class="st0" d="M209.9,140.7c0.5,0.3,1.1,0.4,1.7,0.4c0.8,0,1.6-0.3,2.3-0.8l38.9-29.8c0.9-0.7,1.5-1.8,1.5-3
				c0-1.2-0.6-2.3-1.5-3l-38.9-29.8c-1.1-0.9-2.7-1-4-0.4c-1.3,0.6-2.1,2-2.1,3.4v59.5C207.8,138.8,208.6,140.1,209.9,140.7z"/>
			<path class="st0" d="M23.2,215.1h399c2.9,0,5.3-2.4,5.3-5.3V5.3c0-2.9-2.4-5.3-5.3-5.3h-399c-2.9,0-5.3,2.4-5.3,5.3v204.6
				C17.9,212.8,20.3,215.1,23.2,215.1z M222.7,46.3c33.9,0,61.3,27.4,61.3,61.3s-27.4,61.3-61.3,61.3c-33.9,0-61.3-27.4-61.3-61.3
				S188.8,46.3,222.7,46.3z"/>
		</g>
	</g>
</g>
</svg>
