<?xml version='1.0' encoding='utf-8'?>
<!DOCTYPE svg PUBLIC '-//W3C//DTD SVG 1.1//EN' 'http://www.w3.org/Graphics/SVG/1.1/DTD/svg11.dtd'>
<svg version="1.1" xmlns="http://www.w3.org/2000/svg" viewBox="0 0 512 512" xmlns:xlink="http://www.w3.org/1999/xlink" enable-background="new 0 0 512 512">
  <g>
    <g fill="#2386C7">
      <path d="M464.3,11H47.7C27.5,11,11,27.5,11,47.7v416.5c0,20.3,16.5,36.7,36.7,36.7h416.5c20.3,0,36.7-16.5,36.7-36.7V47.7    C501,27.5,484.5,11,464.3,11z M460.2,460.2H51.8V51.8h408.3V460.2z"/>
      <path d="m109.9,413h19v12.6c0,11.3 9.1,20.4 20.4,20.4 11.3,0 20.4-9.1 20.4-20.4v-12.6h232.4c11.3,0 20.4-9.1 20.4-20.4 0-11.3-9.1-20.4-20.4-20.4h-232.3v-12.6c0-11.3-9.1-20.4-20.4-20.4-11.3,0-20.4,9.1-20.4,20.4v12.6h-19c-11.3,0-20.4,9.1-20.4,20.4-0.1,11.2 9,20.4 20.3,20.4z"/>
      <path d="m181.6,294c10.3,4.2 18.7,0.9 22.4-1.3l128.9-77.4c5.7-3.4 9.1-9 9.1-15 0-6-3.4-11.6-9.1-15l-128.9-77.4c-6.6-4-15.3-4.5-22.4-1.3-7.2,3.2-11.7,9.4-11.7,16.3v154.7c0,6.9 4.4,13.4 11.7,16.4zm31.6-135.6l69.8,41.9-69.8,41.9v-83.8z"/>
    </g>
  </g>
</svg>
