<?xml version="1.0" encoding="utf-8"?>
<!-- Generator: Adobe Illustrator 24.0.0, SVG Export Plug-In . SVG Version: 6.00 Build 0)  -->
<svg version="1.1" id="Layer_1" xmlns="http://www.w3.org/2000/svg" xmlns:xlink="http://www.w3.org/1999/xlink" x="0px" y="0px"
	 viewBox="0 0 512 512" style="enable-background:new 0 0 512 512;" xml:space="preserve">
<style type="text/css">
	.st0{fill:#FFFFFF;}
</style>
<g>
	<g>
		<path class="st0" d="M464.3,11H47.7C27.5,11,11,27.5,11,47.7v416.5c0,20.3,16.5,36.7,36.7,36.7h416.5c20.3,0,36.7-16.5,36.7-36.7
			V47.7C501,27.5,484.5,11,464.3,11z M460.2,460.2H51.8V51.8h408.3v408.4H460.2z"/>
		<path class="st0" d="M109.9,413h19v12.6c0,11.3,9.1,20.4,20.4,20.4c11.3,0,20.4-9.1,20.4-20.4V413h232.4
			c11.3,0,20.4-9.1,20.4-20.4s-9.1-20.4-20.4-20.4H169.8v-12.6c0-11.3-9.1-20.4-20.4-20.4c-11.3,0-20.4,9.1-20.4,20.4v12.6h-19
			c-11.3,0-20.4,9.1-20.4,20.4C89.5,403.8,98.6,413,109.9,413L109.9,413z"/>
		<path class="st0" d="M181.6,294c10.3,4.2,18.7,0.9,22.4-1.3l128.9-77.4c5.7-3.4,9.1-9,9.1-15s-3.4-11.6-9.1-15L204,107.9
			c-6.6-4-15.3-4.5-22.4-1.3c-7.2,3.2-11.7,9.4-11.7,16.3v154.7C169.9,284.5,174.3,291,181.6,294z M213.2,158.4l69.8,41.9
			l-69.8,41.9L213.2,158.4L213.2,158.4z"/>
	</g>
</g>
</svg>
